<?xml version="1.0" encoding="UTF-8" standalone="no"?>
<svg width="117px" height="30px" viewBox="0 0 117 30" version="1.1" xmlns="http://www.w3.org/2000/svg" xmlns:xlink="http://www.w3.org/1999/xlink" xmlns:sketch="http://www.bohemiancoding.com/sketch/ns">
    <!-- Generator: Sketch 3.4.2 (15857) - http://www.bohemiancoding.com/sketch -->
    <title>logo</title>
    <desc>Created with Sketch.</desc>
    <defs></defs>
    <g id="v4" stroke="none" stroke-width="1" fill="none" fill-rule="evenodd" sketch:type="MSPage">
        <g id="Artboard-1" sketch:type="MSArtboardGroup" transform="translate(-1136.000000, -25.000000)" fill="#FFFFFF">
            <g id="logo" sketch:type="MSLayerGroup" transform="translate(1136.000000, 25.766000)">
                <g id="Group" sketch:type="MSShapeGroup">
                    <g id="Shape">
                        <path d="M91.040625,0 L91.040625,7.51363636 L109.577812,7.51363636 L109.577812,26.2422078 L117,26.2422078 L117,0 L91.040625,0 Z"></path>
                        <path d="M2.8153125,20.2461039 C2.8153125,22.0597403 3.6196875,23.0961039 4.9725,23.0961039 C6.361875,23.0961039 7.16625,22.0597403 7.16625,20.2831169 C7.16625,18.4694805 6.361875,17.4331169 4.9359375,17.4331169 C3.65625,17.4701299 2.8153125,18.5064935 2.8153125,20.2461039 L2.8153125,20.2461039 Z M9.579375,24.9097403 L7.2028125,24.9097403 L7.2028125,23.7253247 C6.58125,24.6876623 5.70375,25.1318182 4.460625,25.1318182 C1.9378125,25.1318182 0.3290625,23.2441558 0.3290625,20.2461039 C0.3290625,17.3590909 1.90125,15.4714286 4.314375,15.4714286 C5.5209375,15.4714286 6.508125,15.9525974 7.093125,16.8409091 L7.093125,12.2883117 L9.579375,12.2883117 L9.579375,24.9097403 L9.579375,24.9097403 Z"></path>
                        <path d="M17.330625,19.3948052 C17.184375,18.0623377 16.4896875,17.3220779 15.35625,17.3220779 C14.2228125,17.3220779 13.455,18.0993506 13.30875,19.3948052 L17.330625,19.3948052 L17.330625,19.3948052 Z M19.7071875,22.0967532 C19.231875,23.9844156 17.55,25.1688312 15.429375,25.1688312 C12.650625,25.1688312 10.749375,23.2441558 10.749375,20.3941558 C10.749375,17.5811688 12.6871875,15.5084416 15.3196875,15.5084416 C18.0253125,15.5084416 19.816875,17.5441558 19.816875,20.5792208 L19.816875,20.9863636 L13.30875,20.9863636 C13.381875,22.5409091 14.113125,23.3551948 15.4659375,23.3551948 C16.3434375,23.3551948 16.9284375,22.9480519 17.2940625,22.0597403 L19.7071875,22.0597403 L19.7071875,22.0967532 L19.7071875,22.0967532 Z"></path>
                        <path d="M26.2884375,18.4324675 C26.1421875,17.5811688 25.666875,17.211039 24.57,17.211039 C23.6925,17.211039 23.180625,17.5441558 23.180625,18.0993506 C23.180625,18.7285714 23.473125,18.8766234 25.4109375,19.2837662 C28.0434375,19.8019481 28.9940625,20.5422078 28.9940625,22.0967532 C28.9940625,23.9844156 27.3853125,25.1688312 24.7528125,25.1688312 C22.0471875,25.1688312 20.5846875,24.0954545 20.475,21.9487013 L22.888125,21.9487013 C22.9978125,23.0220779 23.5828125,23.5032468 24.8259375,23.5032468 C25.8496875,23.5032468 26.5078125,23.0590909 26.5078125,22.3558442 C26.5078125,21.7266234 26.17875,21.5045455 24.4603125,21.1344156 C22.741875,20.7272727 22.37625,20.6162338 21.8278125,20.3201299 C21.133125,19.912987 20.7309375,19.1727273 20.7309375,18.3214286 C20.7309375,16.5448052 22.1934375,15.5454545 24.6796875,15.5454545 C26.2153125,15.5454545 27.34875,15.9525974 28.0434375,16.6928571 C28.445625,17.137013 28.591875,17.6181818 28.7015625,18.4324675 C28.7015625,18.4324675 26.2884375,18.4324675 26.2884375,18.4324675 L26.2884375,18.4324675 Z"></path>
                        <path d="M32.686875,24.9097403 L30.200625,24.9097403 L30.200625,15.7675325 L32.686875,15.7675325 L32.686875,24.9097403 L32.686875,24.9097403 Z M32.686875,14.4350649 L30.200625,14.4350649 L30.200625,12.2883117 L32.686875,12.2883117 L32.686875,14.4350649 L32.686875,14.4350649 Z"></path>
                        <g transform="translate(33.637500, 11.844156)">
                            <path d="M2.77875,8.2538961 C2.77875,9.91948052 3.583125,10.9558442 4.8628125,10.9558442 C6.1425,10.9558442 6.946875,9.91948052 6.946875,8.2538961 C6.946875,6.66233766 6.1425,5.66298701 4.7896875,5.66298701 C3.583125,5.62597403 2.77875,6.62532468 2.77875,8.2538961 L2.77875,8.2538961 Z M9.36,11.9551948 C9.36,13.3987013 9.21375,14.138961 8.7384375,14.8422078 C8.0071875,15.9525974 6.7275,16.5077922 4.82625,16.5077922 C2.19375,16.5077922 0.804375,15.5454545 0.5484375,13.6577922 L3.07125,13.6577922 C3.2540625,14.4720779 3.8025,14.8422078 4.899375,14.8422078 C6.361875,14.8422078 6.946875,14.175974 6.946875,12.4733766 L6.946875,11.437013 C6.28875,12.3993506 5.41125,12.8435065 4.168125,12.8435065 C1.7915625,12.8435065 0.2925,11.1038961 0.2925,8.36493506 C0.2925,5.58896104 1.8646875,3.73831169 4.2778125,3.73831169 C5.5209375,3.73831169 6.28875,4.14545455 6.9834375,5.18181818 L6.9834375,3.96038961 L9.36,3.96038961 L9.36,11.9551948 L9.36,11.9551948 L9.36,11.9551948 Z"></path>
                            <path d="M13.3453125,5.18181818 C14.1496875,4.10844156 15.06375,3.66428571 16.4165625,3.66428571 C17.5865625,3.66428571 18.5371875,4.14545455 19.0125,4.92272727 C19.378125,5.51493506 19.4878125,6.10714286 19.4878125,7.32857143 L19.4878125,13.1025974 L17.0015625,13.1025974 L17.0015625,7.84675325 C17.0015625,7.18051948 16.965,6.8474026 16.8553125,6.5512987 C16.6725,6.07012987 16.1240625,5.73701299 15.429375,5.73701299 C14.6615625,5.73701299 14.0034375,6.10714286 13.674375,6.73636364 C13.4915625,7.10649351 13.4184375,7.55064935 13.4184375,8.32792208 L13.4184375,13.0655844 L10.9321875,13.0655844 L10.9321875,3.92337662 L13.30875,3.92337662 L13.3453125,5.18181818 L13.3453125,5.18181818 Z"></path>
                            <path d="M26.7271875,8.62402597 C26.325,8.88311688 25.9959375,8.95714286 24.9721875,9.10519481 C23.5828125,9.32727273 23.1075,9.66038961 23.1075,10.4746753 C23.1075,11.2519481 23.619375,11.6961039 24.496875,11.6961039 C25.228125,11.6961039 25.8496875,11.437013 26.2884375,10.9558442 C26.6175,10.5857143 26.690625,10.2896104 26.690625,9.66038961 L26.690625,8.62402597 L26.7271875,8.62402597 L26.7271875,8.62402597 Z M26.91,13.0655844 C26.76375,12.6584416 26.76375,12.5103896 26.76375,12.1772727 C25.9959375,12.9545455 24.9721875,13.3246753 23.7290625,13.3246753 C21.718125,13.3246753 20.548125,12.2883117 20.548125,10.5487013 C20.548125,9.4012987 21.133125,8.55 22.1934375,8.10584416 C22.66875,7.92077922 23.2171875,7.80974026 24.5334375,7.62467532 C26.5078125,7.36558442 26.7271875,7.25454545 26.7271875,6.51428571 C26.7271875,5.7 26.2153125,5.32987013 25.081875,5.32987013 C23.9484375,5.32987013 23.473125,5.7 23.2903125,6.69935065 L20.91375,6.69935065 C21.06,4.70064935 22.4859375,3.66428571 25.1184375,3.66428571 C26.544375,3.66428571 27.64125,3.96038961 28.3359375,4.5525974 C28.9575,5.07077922 29.1403125,5.55194805 29.1403125,6.81038961 C29.1403125,7.10649351 29.1403125,7.10649351 29.10375,8.2538961 C29.10375,8.69805195 29.10375,8.69805195 29.0671875,9.91948052 L29.0671875,10.5487013 C29.0671875,11.9181818 29.1403125,12.4733766 29.39625,13.0655844 L26.91,13.0655844 L26.91,13.0655844 Z"></path>
                            <path d="M35.7215625,2.29480519 C35.3559375,2.25779221 35.173125,2.22077922 34.8440625,2.22077922 C34.003125,2.22077922 33.7471875,2.44285714 33.7471875,3.18311688 L33.7471875,3.88636364 L35.5753125,3.88636364 L35.5753125,5.58896104 L33.78375,5.58896104 L33.78375,13.0655844 L31.3340625,13.0655844 L31.3340625,5.62597403 L29.835,5.62597403 L29.835,3.92337662 L31.3340625,3.92337662 L31.3340625,3.44220779 C31.3340625,2.22077922 31.516875,1.62857143 32.02875,1.1474026 C32.540625,0.629220779 33.345,0.37012987 34.441875,0.37012987 C34.8075,0.37012987 35.026875,0.37012987 35.7946875,0.444155844 L35.7946875,2.29480519 L35.7215625,2.29480519 L35.7215625,2.29480519 Z"></path>
                            <path d="M41.461875,2.29480519 C41.09625,2.25779221 40.9134375,2.22077922 40.584375,2.22077922 C39.7434375,2.22077922 39.4875,2.44285714 39.4875,3.18311688 L39.4875,3.88636364 L41.315625,3.88636364 L41.315625,5.58896104 L39.5240625,5.58896104 L39.5240625,13.0655844 L37.0378125,13.0655844 L37.0378125,5.62597403 L35.53875,5.62597403 L35.53875,3.92337662 L37.0378125,3.92337662 L37.0378125,3.44220779 C37.0378125,2.22077922 37.220625,1.62857143 37.7325,1.1474026 C38.244375,0.629220779 39.04875,0.37012987 40.145625,0.37012987 C40.51125,0.37012987 40.730625,0.37012987 41.4984375,0.444155844 L41.461875,2.29480519 L41.461875,2.29480519 Z"></path>
                            <path d="M47.604375,8.62402597 C47.2021875,8.88311688 46.873125,8.95714286 45.849375,9.10519481 C44.46,9.32727273 43.9846875,9.66038961 43.9846875,10.4746753 C43.9846875,11.2519481 44.4965625,11.6961039 45.3740625,11.6961039 C46.1053125,11.6961039 46.726875,11.437013 47.165625,10.9558442 C47.4946875,10.5857143 47.5678125,10.2896104 47.5678125,9.66038961 L47.604375,8.62402597 L47.604375,8.62402597 Z M47.7871875,13.0655844 C47.6409375,12.6584416 47.6409375,12.5103896 47.6409375,12.1772727 C46.873125,12.9545455 45.849375,13.3246753 44.60625,13.3246753 C42.5953125,13.3246753 41.4253125,12.2883117 41.4253125,10.5487013 C41.4253125,9.4012987 42.0103125,8.55 43.070625,8.10584416 C43.5459375,7.92077922 44.094375,7.80974026 45.410625,7.62467532 C47.385,7.36558442 47.604375,7.25454545 47.604375,6.51428571 C47.604375,5.7 47.0925,5.32987013 45.9590625,5.32987013 C44.7890625,5.32987013 44.3503125,5.7 44.1675,6.69935065 L41.7909375,6.69935065 C41.9371875,4.70064935 43.363125,3.66428571 45.995625,3.66428571 C47.4215625,3.66428571 48.5184375,3.96038961 49.213125,4.5525974 C49.8346875,5.07077922 50.0175,5.55194805 50.0175,6.81038961 C50.0175,7.10649351 50.0175,7.10649351 49.9809375,8.2538961 C49.9809375,8.69805195 49.9809375,8.69805195 49.944375,9.91948052 L49.944375,10.5487013 C49.944375,11.9181818 50.0175,12.4733766 50.2734375,13.0655844 L47.7871875,13.0655844 L47.7871875,13.0655844 Z"></path>
                        </g>
                        <path d="M87.7865625,24.9097403 L85.3003125,24.9097403 L85.3003125,15.7675325 L87.7865625,15.7675325 L87.7865625,24.9097403 L87.7865625,24.9097403 Z M87.7865625,14.4350649 L85.3003125,14.4350649 L85.3003125,12.2883117 L87.7865625,12.2883117 L87.7865625,14.4350649 L87.7865625,14.4350649 Z"></path>
                        <g transform="translate(89.212500, 15.545455)">
                            <path d="M6.069375,2.36883117 C5.5940625,2.29480519 5.3746875,2.29480519 5.0821875,2.29480519 C4.2046875,2.29480519 3.436875,2.73896104 3.0346875,3.47922078 C2.77875,3.92337662 2.705625,4.51558442 2.705625,5.55194805 L2.705625,9.36428571 L0.219375,9.36428571 L0.219375,0.222077922 L2.5959375,0.222077922 L2.5959375,1.92467532 C3.2540625,0.666233766 4.2046875,0.037012987 5.5575,0.037012987 C5.7403125,0.037012987 5.85,0.037012987 6.1059375,0.074025974 L6.069375,2.36883117 L6.069375,2.36883117 Z"></path>
                            <path d="M12.13875,2.88701299 C11.9925,2.03571429 11.5171875,1.66558442 10.4203125,1.66558442 C9.5428125,1.66558442 9.0309375,1.9987013 9.0309375,2.5538961 C9.0309375,3.18311688 9.3234375,3.33116883 11.26125,3.73831169 C13.89375,4.25649351 14.844375,4.99675325 14.844375,6.5512987 C14.844375,8.43896104 13.235625,9.62337662 10.603125,9.62337662 C7.8975,9.62337662 6.435,8.55 6.3253125,6.40324675 L8.7384375,6.40324675 C8.848125,7.47662338 9.433125,7.95779221 10.67625,7.95779221 C11.7,7.95779221 12.358125,7.51363636 12.358125,6.81038961 C12.358125,6.18116883 12.0290625,5.95909091 10.310625,5.58896104 C8.5921875,5.18181818 8.2265625,5.07077922 7.678125,4.77467532 C6.9834375,4.36753247 6.58125,3.62727273 6.58125,2.77597403 C6.58125,0.999350649 8.04375,0 10.53,0 C12.065625,0 13.1990625,0.407142857 13.89375,1.1474026 C14.2959375,1.59155844 14.4421875,2.07272727 14.5153125,2.88701299 L12.13875,2.88701299 L12.13875,2.88701299 Z"></path>
                        </g>
                    </g>
                </g>
            </g>
        </g>
    </g>
</svg>