<?xml version="1.0" encoding="utf-8"?>
<!-- Generator: Adobe Illustrator 19.0.0, SVG Export Plug-In . SVG Version: 6.00 Build 0)  -->
<svg version="1.1" id="Ebene_1" xmlns="http://www.w3.org/2000/svg" xmlns:xlink="http://www.w3.org/1999/xlink" x="0px" y="0px"
	 viewBox="-131 350.8 1015.9 200.2" style="enable-background:new -131 350.8 1015.9 200.2;" xml:space="preserve">
<style type="text/css">
	.st0{display:none;}
	.st1{display:inline;fill:#3A404F;}
	.st2{display:inline;fill:#2F333E;}
	.st3{display:inline;}
	.st4{fill:#FFFFFF;}
	.st5{display:none;fill:#2F333E;}
	.st6{fill:#3A404F;}
</style>
<g id="Layer_1" class="st0">
	<path class="st1" d="M326.7,575.5l13.8,0.2c2.7,0,5.1-1.2,7-3.1c0.1-0.1,0.2-0.3,0.3-0.3v-0.1c0.2-0.2,0.4-0.5,0.6-0.8
		c3.5-4.7,3.7-12,0-16.7L235.9,408.5c-0.3-0.4-0.5-0.7-0.8-1.1c-0.9-1-1.9-1.8-3-2.4c0,0,0,0-0.1,0c-0.5-0.3-1.1-0.5-1.6-0.6
		c-0.2,0-0.3-0.1-0.4-0.1c-0.4-0.1-0.8-0.2-1.3-0.2c-0.3-0.1-0.5-0.1-0.8-0.1c-0.2,0-0.5,0-0.8,0.1c-0.4,0-0.9,0.1-1.3,0.2
		c-0.1,0-0.3,0.1-0.5,0.1c-0.5,0.1-1,0.3-1.6,0.6c0,0,0,0-0.1,0c-1.1,0.5-2.1,1.3-3,2.3c-0.3,0.4-0.5,0.7-0.8,1.1L104.1,551.8
		c-0.9,1.1-1.6,2.4-2.1,3.7l0,0c-0.2,0.6-0.4,1.3-0.6,1.9c0,0.2-0.1,0.4-0.1,0.6c-0.1,0.5-0.1,1-0.1,1.5c-0.1,0.3-0.1,0.6-0.1,0.9
		c0.1,0.1,0,0.1,0,0.2c0,0.2,0,0.4,0,0.6c0.3,6.5,4.8,11.8,10.3,11.8l17,0.2L326.7,575.5z"/>
	<path class="st2" d="M235.9,407.5c-0.3-0.4-0.5-0.7-0.8-1.1c-0.9-1-1.9-1.8-3-2.4c0,0,0,0-0.1,0c-0.5-0.3-1.1-0.5-1.6-0.6
		c-0.2,0-0.3-0.1-0.4-0.1c-0.4-0.1-0.8-0.2-1.3-0.2c-0.3-0.1-0.5-0.1-0.8-0.1c-0.2,0-0.5,0-0.8,0.1c-0.3,0-0.5,0.1-0.8,0.1v170.2
		l100.4,1.1l13.8,0.2c2.7,0,5.1-1.2,7-3.1c0.1-0.1,0.2-0.3,0.3-0.3v-0.1c0.2-0.2,0.4-0.5,0.6-0.8c3.5-4.7,3.7-12,0-16.7L235.9,407.5
		z"/>
	<path class="st1" d="M222.5,574.5l10.8,0.1c2.1,0,4-0.9,5.5-2.4c0.1-0.1,0.2-0.2,0.2-0.2l0,0c0.2-0.2,0.3-0.4,0.5-0.7
		c2.8-3.7,2.9-9.4,0-13.1L151,443.3c-0.2-0.3-0.4-0.6-0.6-0.8c-0.7-0.8-1.5-1.4-2.3-1.9l0,0c-0.4-0.2-0.8-0.4-1.2-0.5
		c-0.1,0-0.2-0.1-0.3-0.1c-0.3-0.1-0.7-0.1-1-0.2c-0.2,0-0.4-0.1-0.7-0.1c-0.2,0-0.4,0-0.6,0.1c-0.3,0-0.7,0.1-1,0.1
		c-0.1,0-0.2,0.1-0.4,0.1c-0.4,0.1-0.8,0.3-1.3,0.5c0,0,0,0-0.1,0c-0.8,0.4-1.7,1-2.4,1.8c-0.2,0.3-0.4,0.5-0.6,0.8L47.4,556
		c-0.7,0.9-1.2,1.9-1.6,2.9l0,0c-0.2,0.5-0.3,1-0.5,1.5c0,0.1-0.1,0.3-0.1,0.4c-0.1,0.4-0.1,0.8-0.1,1.2c-0.1,0.2-0.1,0.4-0.1,0.7
		c0,0.1,0,0.1,0,0.2c0,0.1,0,0.3,0,0.5c0.2,5.1,3.7,9.2,8.1,9.3l13.4,0.2L222.5,574.5z"/>
	<path class="st2" d="M151.1,443.2c-0.2-0.3-0.4-0.6-0.6-0.8c-0.7-0.8-1.5-1.4-2.3-1.9l0,0c-0.4-0.2-0.8-0.4-1.2-0.5
		c-0.1,0-0.2-0.1-0.3-0.1c-0.3-0.1-0.7-0.1-1-0.2c-0.2,0-0.4-0.1-0.7-0.1c-0.2,0-0.4,0-0.6,0.1c-0.2,0-0.4,0.1-0.6,0.1v133.9l79,0.9
		l10.8,0.1c2.1,0,4-0.9,5.5-2.4c0.1-0.1,0.2-0.2,0.2-0.2l0,0c0.2-0.2,0.3-0.4,0.5-0.7c2.8-3.7,2.9-9.4,0-13.1L151.1,443.2z"/>
	<g class="st3">
		<path class="st4" d="M158.8,456.3c-1.6,1.5-4.1,1.5-5.6-0.1l-11.7-12.1c-1.5-1.6-1.5-4.1,0.1-5.6l0,0c1.6-1.5,4-1.5,5.6,0.1
			l11.7,12.1C160.4,452.3,160.3,454.7,158.8,456.3L158.8,456.3z"/>
	</g>
	<g class="st3">
		<path class="st4" d="M129.8,456.2c1.6,1.5,4,1.5,5.6-0.1l11.7-12c1.5-1.6,1.5-4-0.1-5.6l0,0c-1.6-1.5-4-1.5-5.6,0.1l-11.7,12
			C128.2,452.2,128.3,454.7,129.8,456.2L129.8,456.2z"/>
	</g>
	<g class="st3">
		<path class="st4" d="M242.5,418.9c-1.6,1.5-4.1,1.5-5.6-0.1l-11.7-12.1c-1.5-1.6-1.5-4.1,0.1-5.6l0,0c1.6-1.5,4-1.5,5.6,0.1
			l11.7,12.1C244.1,414.9,244,417.4,242.5,418.9L242.5,418.9z"/>
	</g>
	<g class="st3">
		<path class="st4" d="M213.5,418.9c1.6,1.5,4,1.5,5.6-0.1l11.7-12c1.5-1.6,1.5-4-0.1-5.6l0,0c-1.6-1.5-4-1.5-5.6,0.1l-11.7,12
			C211.9,414.9,211.9,417.4,213.5,418.9L213.5,418.9z"/>
	</g>
</g>
<g id="Layer_1_Kopie">
	<path class="st5" d="M235.9,407.5c-0.3-0.4-0.5-0.7-0.8-1.1c-0.9-1-1.9-1.8-3-2.4c0,0,0,0-0.1,0c-0.5-0.3-1.1-0.5-1.6-0.6
		c-0.2,0-0.3-0.1-0.4-0.1c-0.4-0.1-0.8-0.2-1.3-0.2c-0.3-0.1-0.5-0.1-0.8-0.1c-0.2,0-0.5,0-0.8,0.1c-0.3,0-0.5,0.1-0.8,0.1v170.2
		l100.4,1.1l13.8,0.2c2.7,0,5.1-1.2,7-3.1c0.1-0.1,0.2-0.3,0.3-0.3v-0.1c0.2-0.2,0.4-0.5,0.6-0.8c3.5-4.7,3.7-12,0-16.7L235.9,407.5
		z"/>
	<path class="st5" d="M151.1,443.2c-0.2-0.3-0.4-0.6-0.6-0.8c-0.7-0.8-1.5-1.4-2.3-1.9l0,0c-0.4-0.2-0.8-0.4-1.2-0.5
		c-0.1,0-0.2-0.1-0.3-0.1c-0.3-0.1-0.7-0.1-1-0.2c-0.2,0-0.4-0.1-0.7-0.1c-0.2,0-0.4,0-0.6,0.1c-0.2,0-0.4,0.1-0.6,0.1v133.9l79,0.9
		l10.8,0.1c2.1,0,4-0.9,5.5-2.4c0.1-0.1,0.2-0.2,0.2-0.2l0,0c0.2-0.2,0.3-0.4,0.5-0.7c2.8-3.7,2.9-9.4,0-13.1L151.1,443.2z"/>
	<g>
		<g>
			<path class="st6" d="M219.4,550.7h10.8c2.1,0,4-0.5,5.5-2.1c0.1-0.1,0.2-0.2,0.2-0.2l0,0c0.2-0.2,0.3-0.4,0.5-0.7
				c2.8-3.7,2.8-9.4-0.1-13.1l-89-114.5c-0.2-0.3-0.4-0.6-0.6-0.8c-0.7-0.8-1.5-1.4-2.3-1.8l0,0c-0.4-0.2-0.8-0.4-1.2-0.5
				c-0.1,0-0.2-0.1-0.3-0.1c-0.3-0.1-0.7-0.1-1-0.2c-0.2,0-0.4,0-0.7-0.1c-0.2,0-0.4,0-0.6,0.1c-0.3,0-0.7,0.1-1,0.2
				c-0.1,0-0.2,0.1-0.4,0.1c-0.4,0.1-0.8,0.3-1.3,0.5c0,0,0,0-0.1,0c-0.8,0.4-1.6,1-2.4,1.8c-0.2,0.3-0.4,0.5-0.6,0.9L44.2,534.5
				c-0.7,0.9-1.2,1.9-1.6,3l0,0c-0.2,0.5-0.3,1-0.4,1.5c0,0.1-0.1,0.3-0.1,0.4c-0.1,0.4-0.1,0.8-0.1,1.2c-0.1,0.2-0.1,0.4-0.1,0.7
				c0,0.1,0,0.1,0,0.2c0,0.1,0,0.3,0,0.5c0.2,5.1,3.8,9,8.1,9h13.4h156V550.7z"/>
			<g>
				<path class="st4" d="M155.1,433.1c-1.6,1.5-4,1.5-5.6-0.1l-11.7-12c-1.5-1.6-1.5-4,0.1-5.6l0,0c1.6-1.5,4-1.5,5.6,0.1l11.7,12
					C156.7,429.1,156.6,431.6,155.1,433.1L155.1,433.1z"/>
			</g>
			<g>
				<path class="st4" d="M126.1,433.2c1.6,1.5,4.1,1.5,5.6-0.1l11.7-12.1c1.5-1.6,1.5-4.1-0.1-5.6l0,0c-1.6-1.5-4-1.5-5.6,0.1
					L126,427.6C124.5,429.2,124.5,431.7,126.1,433.2L126.1,433.2z"/>
			</g>
		</g>
		<path class="st6" d="M327,550.7h13.8c2.7,0,5.1-1.5,7-3.4c0.1-0.1,0.2-0.3,0.3-0.3v-0.1c0.2-0.2,0.4-0.5,0.6-0.8
			c3.5-4.7,3.6-12-0.1-16.7l-113-145.7c-0.3-0.4-0.5-0.7-0.8-1c-0.9-1-1.9-1.8-3-2.3c0,0,0,0-0.1,0c-0.5-0.3-1.1-0.5-1.6-0.6
			c-0.2,0-0.3-0.1-0.4-0.1c-0.4-0.1-0.8-0.2-1.3-0.2c-0.3-0.1-0.5-0.1-0.8-0.1c-0.2,0-0.5,0-0.8,0.1c-0.4,0-0.9,0.1-1.3,0.2
			c-0.1,0-0.3,0.1-0.5,0.1c-0.5,0.1-1,0.3-1.6,0.6c0,0,0,0-0.1,0c-1.1,0.5-2.1,1.3-3,2.3c-0.3,0.4-0.5,0.7-0.8,1.1L104.3,529.5
			c-0.9,1.1-1.6,2.4-2.1,3.8l0,0c-0.2,0.6-0.4,1.3-0.6,1.9c0,0.2-0.1,0.4-0.1,0.6c-0.1,0.5-0.1,1-0.1,1.5c-0.1,0.3-0.1,0.6-0.1,0.9
			c0.1,0.1,0,0.1,0,0.2c0,0.2,0,0.4,0,0.6c0.3,6.5,4.8,11.8,10.3,11.9h17H327V550.7z"/>
		<g>
			<path class="st4" d="M242.2,394c-1.6,1.5-4,1.5-5.6-0.1l-11.7-12c-1.5-1.6-1.5-4,0.1-5.6l0,0c1.6-1.5,4-1.5,5.6,0.1l11.7,12
				C243.8,390,243.8,392.5,242.2,394L242.2,394z"/>
		</g>
		<g>
			<path class="st4" d="M213.2,394.1c1.6,1.5,4,1.5,5.6-0.1l11.7-12.1c1.5-1.6,1.5-4-0.1-5.6l0,0c-1.6-1.5-4-1.5-5.6,0.1l-11.7,12.1
				C211.6,390.1,211.7,392.6,213.2,394.1L213.2,394.1z"/>
		</g>
	</g>
	<g>
		<g>
			<path class="st6" d="M479,550.7h-12.3c-2.4,0-4.6-0.6-6.2-2.4c-0.1-0.1-0.2-0.2-0.3-0.3v-0.1c-0.2-0.2-0.3-0.5-0.5-0.8
				c-3.2-4.2-3.2-10.8,0.1-15l101.5-130.6c0.2-0.3,0.4-0.7,0.7-0.9c0.8-0.9,1.7-1.6,2.7-2.1l0,0c0.5-0.3,1-0.4,1.4-0.6
				c0.2,0,0.3-0.1,0.4-0.1c0.4-0.1,0.8-0.2,1.2-0.2c0.2-0.1,0.5-0.1,0.8-0.1c0.2,0,0.5,0,0.7,0.1c0.4,0,0.8,0.1,1.1,0.2
				c0.1,0,0.2,0.1,0.4,0.1c0.5,0.1,0.9,0.3,1.4,0.6c0,0,0,0,0.1,0c1,0.5,1.9,1.2,2.7,2c0.3,0.3,0.5,0.6,0.7,1L678.8,532
				c0.8,1,1.4,2.2,1.8,3.4l0,0c0.2,0.6,0.3,1.1,0.5,1.7c0,0.2,0.1,0.3,0.1,0.5c0.1,0.4,0.1,0.9,0.1,1.3c0.1,0.3,0.1,0.5,0.1,0.8
				c-0.1,0.1,0,0.1,0,0.2c0,0.1,0,0.4,0,0.5c-0.3,5.8-4.3,10.3-9.3,10.3h-15.2L479,550.7L479,550.7z"/>
			<g>
				<path class="st4" d="M552.4,416.6c1.8,1.7,4.6,1.7,6.3-0.1l13.4-13.7c1.7-1.8,1.7-4.6-0.1-6.3l0,0c-1.8-1.7-4.6-1.7-6.3,0.1
					l-13.4,13.7C550.6,412,550.6,414.9,552.4,416.6L552.4,416.6z"/>
			</g>
			<g>
				<path class="st4" d="M585.4,416.7c-1.8,1.7-4.6,1.7-6.3-0.1l-13.3-13.8c-1.7-1.8-1.7-4.6,0.1-6.3l0,0c1.8-1.7,4.6-1.7,6.3,0.1
					l13.3,13.8C587.2,412.2,587.2,415,585.4,416.7L585.4,416.7z"/>
			</g>
		</g>
		<path class="st6" d="M356.3,550.7h-15.7c-3.1,0-5.8-1.7-7.9-3.9c-0.1-0.2-0.2-0.3-0.4-0.3v-0.1c-0.2-0.3-0.4-0.6-0.7-1
			c-4-5.3-4.1-13.7,0.1-19.1l128.9-166.2c0.3-0.4,0.5-0.8,0.9-1.2c1-1.2,2.2-2,3.4-2.7c0,0,0,0,0.1,0c0.6-0.3,1.2-0.6,1.8-0.7
			c0.2,0,0.4-0.1,0.5-0.1c0.5-0.1,1-0.2,1.5-0.2c0.3-0.1,0.6-0.1,1-0.1c0.3,0,0.6,0,0.9,0.1c0.5,0.1,1,0.1,1.5,0.2
			c0.1,0,0.3,0.1,0.5,0.1c0.6,0.2,1.2,0.4,1.8,0.7c0,0,0,0,0.1,0c1.2,0.6,2.4,1.5,3.4,2.6c0.3,0.4,0.6,0.8,0.9,1.2l131.5,166.4
			c1,1.2,1.8,2.7,2.3,4.3l0,0c0.3,0.7,0.4,1.4,0.6,2.2c0,0.2,0.1,0.4,0.1,0.6c0.1,0.6,0.1,1.2,0.2,1.7c0.1,0.3,0.1,0.6,0.1,1
			c-0.1,0.1,0,0.1,0,0.3c0,0.2,0,0.5,0,0.7c-0.3,7.4-5.5,13.5-11.8,13.5h-19.4H356.3L356.3,550.7z"/>
		<g>
			<path class="st4" d="M453,372.1c1.8,1.7,4.6,1.7,6.3-0.1l13.3-13.7c1.7-1.8,1.7-4.6-0.1-6.3l0,0c-1.8-1.7-4.6-1.7-6.3,0.1
				l-13.3,13.7C451.2,367.5,451.3,370.4,453,372.1L453,372.1z"/>
		</g>
		<g>
			<path class="st4" d="M486.1,372.2c-1.8,1.7-4.6,1.7-6.3-0.1l-13.3-13.7c-1.7-1.8-1.7-4.6,0.1-6.3l0,0c1.8-1.7,4.6-1.7,6.3,0.1
				l13.3,13.7C487.9,367.6,487.8,370.4,486.1,372.2L486.1,372.2z"/>
		</g>
	</g>
	<g>
		<g>
			<path class="st6" d="M789.4,550.7h7.8c1.5,0,2.9-0.4,4-1.5c0.1-0.1,0.1-0.1,0.2-0.2l0,0c0.1-0.1,0.2-0.3,0.3-0.5
				c2-2.7,2.1-6.8-0.1-9.5l-64.4-82.8c-0.2-0.2-0.3-0.4-0.5-0.6c-0.5-0.6-1.1-1-1.7-1.3l0,0c-0.3-0.2-0.6-0.3-0.9-0.4
				c-0.1,0-0.2-0.1-0.3-0.1c-0.2-0.1-0.5-0.1-0.7-0.1s-0.3,0-0.5-0.1c-0.1,0-0.3,0-0.5,0s-0.5,0.1-0.7,0.1c-0.1,0-0.1,0.1-0.3,0.1
				c-0.3,0.1-0.6,0.2-0.9,0.4l0,0c-0.6,0.3-1.2,0.7-1.7,1.3c-0.2,0.2-0.3,0.4-0.4,0.6l-65.5,82.7c-0.5,0.6-0.9,1.4-1.2,2.1l0,0
				c-0.1,0.4-0.2,0.7-0.3,1.1c0,0.1,0,0.2,0,0.3c0,0.3-0.1,0.6-0.1,0.9c0,0.2,0,0.3,0,0.5v0.1c0,0.1,0,0.2,0,0.3
				c0.2,3.7,2.7,6.5,5.9,6.5h9.7h112.8V550.7z"/>
			<g>
				<path class="st4" d="M742.9,465.6c-1.1,1.1-2.9,1.1-4-0.1l-8.5-8.7c-1.1-1.1-1.1-2.9,0.1-4l0,0c1.1-1.1,2.9-1.1,4,0l8.5,8.7
					C744,462.7,744,464.5,742.9,465.6L742.9,465.6z"/>
			</g>
			<g>
				<path class="st4" d="M721.9,465.7c1.1,1.1,2.9,1.1,4-0.1l8.4-8.7c1.1-1.1,1.1-2.9-0.1-4l0,0c-1.1-1.1-2.9-1.1-4,0.1l-8.4,8.7
					C720.7,462.8,720.8,464.6,721.9,465.7L721.9,465.7z"/>
			</g>
		</g>
		<path class="st6" d="M867.2,550.7h10c1.9,0,3.7-1.1,5-2.5c0.1-0.1,0.1-0.2,0.2-0.2l0,0c0.2-0.2,0.3-0.4,0.4-0.6
			c2.5-3.4,2.6-8.7-0.1-12.1l-81.8-105.4c-0.2-0.3-0.3-0.5-0.6-0.8c-0.6-0.8-1.4-1.3-2.2-1.7l0,0c-0.4-0.2-0.8-0.4-1.1-0.5
			c-0.1,0-0.2-0.1-0.3-0.1c-0.3-0.1-0.6-0.1-0.9-0.1c-0.2,0-0.4,0-0.6-0.1c-0.2,0-0.4,0-0.6,0.1c-0.3,0-0.6,0.1-0.9,0.1
			c-0.1,0-0.2,0.1-0.3,0.1c-0.4,0.1-0.7,0.3-1.2,0.4l0,0c-0.8,0.4-1.5,0.9-2.2,1.6c-0.2,0.3-0.4,0.5-0.5,0.8l-83.4,105.6
			c-0.6,0.8-1.1,1.7-1.5,2.7l0,0c-0.2,0.4-0.3,0.9-0.4,1.4c0,0.1-0.1,0.3,0,0.4c-0.1,0.4-0.1,0.7-0.1,1.1c-0.1,0.2,0,0.4-0.1,0.6
			c0,0.1,0,0.1,0,0.2c0,0.1,0,0.3,0,0.4c0.2,4.7,3.5,8.5,7.5,8.6h12.3H867.2z"/>
		<g>
			<path class="st4" d="M805.9,437.4c-1.1,1.1-2.9,1.1-4-0.1l-8.5-8.7c-1.1-1.1-1.1-2.9,0.1-4l0,0c1.1-1.1,2.9-1.1,4,0.1l8.5,8.7
				C807,434.5,807,436.3,805.9,437.4L805.9,437.4z"/>
		</g>
		<g>
			<path class="st4" d="M784.9,437.4c1.1,1.1,2.9,1.1,4-0.1l8.5-8.7c1.1-1.1,1.1-2.9-0.1-4l0,0c-1.1-1.1-2.9-1.1-4,0.1l-8.5,8.7
				C783.8,434.5,783.8,436.3,784.9,437.4L784.9,437.4z"/>
		</g>
	</g>
	<g>
		<g>
			<path class="st6" d="M-2.6,550.7h7.8c1.5,0,2.9-0.4,4-1.5c0.1-0.1,0.1-0.1,0.2-0.2l0,0c0.1-0.1,0.2-0.3,0.3-0.5
				c2-2.7,2.1-6.8-0.1-9.5l-64.4-82.8c-0.2-0.2-0.3-0.4-0.5-0.6c-0.5-0.6-1.1-1-1.7-1.3l0,0c-0.3-0.2-0.6-0.3-0.9-0.4
				c-0.1,0-0.2-0.1-0.3-0.1c-0.2-0.1-0.5-0.1-0.7-0.1s-0.3,0-0.5-0.1c-0.1,0-0.3,0-0.5,0s-0.5,0.1-0.7,0.1c-0.1,0-0.1,0.1-0.3,0.1
				c-0.3,0.1-0.6,0.2-0.9,0.4l0,0c-0.6,0.3-1.2,0.7-1.7,1.3c-0.2,0.2-0.3,0.4-0.4,0.6l-65.5,82.7c-0.5,0.6-0.9,1.4-1.2,2.1l0,0
				c-0.1,0.4-0.2,0.7-0.3,1.1c0,0.1,0,0.2,0,0.3c0,0.3-0.1,0.6-0.1,0.9c0,0.2,0,0.3,0,0.5v0.1c0,0.1,0,0.2,0,0.3
				c0.2,3.7,2.7,6.5,5.9,6.5h9.7H-2.6V550.7z"/>
			<g>
				<path class="st4" d="M-49.1,465.6c-1.1,1.1-2.9,1.1-4-0.1l-8.5-8.7c-1.1-1.1-1.1-2.9,0.1-4l0,0c1.1-1.1,2.9-1.1,4,0l8.5,8.7
					C-48,462.7-48,464.5-49.1,465.6L-49.1,465.6z"/>
			</g>
			<g>
				<path class="st4" d="M-70.1,465.7c1.1,1.1,2.9,1.1,4-0.1l8.4-8.7c1.1-1.1,1.1-2.9-0.1-4l0,0c-1.1-1.1-2.9-1.1-4,0.1l-8.4,8.7
					C-71.3,462.8-71.2,464.6-70.1,465.7L-70.1,465.7z"/>
			</g>
		</g>
		<path class="st6" d="M75.2,550.7h10c1.9,0,3.7-1.1,5-2.5c0.1-0.1,0.1-0.2,0.2-0.2l0,0c0.2-0.2,0.3-0.4,0.4-0.6
			c2.5-3.4,2.6-8.7-0.1-12.1L8.9,429.9c-0.2-0.3-0.3-0.5-0.6-0.8c-0.6-0.8-1.4-1.3-2.2-1.7l0,0c-0.4-0.2-0.8-0.4-1.1-0.5
			c-0.1,0-0.2-0.1-0.3-0.1c-0.3-0.1-0.6-0.1-0.9-0.1c-0.2,0-0.4,0-0.6-0.1c-0.2,0-0.4,0-0.6,0.1c-0.3,0-0.6,0.1-0.9,0.1
			c-0.1,0-0.2,0.1-0.3,0.1c-0.4,0.1-0.7,0.3-1.2,0.4l0,0c-0.8,0.4-1.5,0.9-2.2,1.6c-0.2,0.3-0.4,0.5-0.5,0.8l-83.4,105.6
			c-0.6,0.8-1.1,1.7-1.5,2.7l0,0c-0.2,0.4-0.3,0.9-0.4,1.4c0,0.1-0.1,0.3,0,0.4c-0.1,0.4-0.1,0.7-0.1,1.1c-0.1,0.2,0,0.4-0.1,0.6
			c0,0.1,0,0.1,0,0.2c0,0.1,0,0.3,0,0.4c0.2,4.7,3.5,8.5,7.5,8.6h12.3H75.2z"/>
		<g>
			<path class="st4" d="M13.9,437.4c-1.1,1.1-2.9,1.1-4-0.1l-8.5-8.7c-1.1-1.1-1.1-2.9,0.1-4l0,0c1.1-1.1,2.9-1.1,4,0.1l8.5,8.7
				C15,434.5,15,436.3,13.9,437.4L13.9,437.4z"/>
		</g>
		<g>
			<path class="st4" d="M-7.1,437.4c1.1,1.1,2.9,1.1,4-0.1l8.5-8.7c1.1-1.1,1.1-2.9-0.1-4l0,0c-1.1-1.1-2.9-1.1-4,0.1l-8.5,8.7
				C-8.2,434.5-8.2,436.3-7.1,437.4L-7.1,437.4z"/>
		</g>
	</g>
</g>
</svg>
