<?xml version="1.0" encoding="utf-8"?>
<!-- Generator: Adobe Illustrator 19.0.0, SVG Export Plug-In . SVG Version: 6.00 Build 0)  -->
<svg version="1.1" xmlns="http://www.w3.org/2000/svg" xmlns:xlink="http://www.w3.org/1999/xlink" x="0px" y="0px"
	 viewBox="0 0 1015.9 300" style="enable-background:new 0 0 1015.9 300;" xml:space="preserve">
<style type="text/css">
	.st0{display:none;}
	.st1{display:inline;fill:#3A404F;}
	.st2{fill:#2F333E;}
	.st3{display:inline;}
	.st4{fill:#FFFFFF;}
	.st5{display:none;fill:#2F333E;}
	.st6{fill:#3A404F;}
</style>
<g id="Layer_1" class="st0">
	<path class="st1" d="M457.7,324.5l13.8,0.2c2.7,0,5.1-1.2,7-3.1c0.1-0.1,0.2-0.3,0.3-0.3c0,0,0-0.1,0-0.1c0.2-0.2,0.4-0.5,0.6-0.8
		c3.5-4.7,3.7-12,0-16.7L366.9,157.5c-0.3-0.4-0.5-0.7-0.8-1.1c-0.9-1-1.9-1.8-3-2.4c0,0,0,0-0.1,0c-0.5-0.3-1.1-0.5-1.6-0.6
		c-0.2,0-0.3-0.1-0.4-0.1c-0.4-0.1-0.8-0.2-1.3-0.2c-0.3-0.1-0.5-0.1-0.8-0.1c-0.2,0-0.5,0-0.8,0.1c-0.4,0-0.9,0.1-1.3,0.2
		c-0.1,0-0.3,0.1-0.5,0.1c-0.5,0.1-1,0.3-1.6,0.6c0,0,0,0-0.1,0c-1.1,0.5-2.1,1.3-3,2.3c-0.3,0.4-0.5,0.7-0.8,1.1L235.1,300.8
		c-0.9,1.1-1.6,2.4-2.1,3.7c0,0,0,0,0,0c-0.2,0.6-0.4,1.3-0.6,1.9c0,0.2-0.1,0.4-0.1,0.6c-0.1,0.5-0.1,1-0.1,1.5
		c-0.1,0.3-0.1,0.6-0.1,0.9c0.1,0.1,0,0.1,0,0.2c0,0.2,0,0.4,0,0.6c0.3,6.5,4.8,11.8,10.3,11.8l17,0.2L457.7,324.5z"/>
	<path class="st2" d="M366.9,156.5c-0.3-0.4-0.5-0.7-0.8-1.1c-0.9-1-1.9-1.8-3-2.4c0,0,0,0-0.1,0c-0.5-0.3-1.1-0.5-1.6-0.6
		c-0.2,0-0.3-0.1-0.4-0.1c-0.4-0.1-0.8-0.2-1.3-0.2c-0.3-0.1-0.5-0.1-0.8-0.1c-0.2,0-0.5,0-0.8,0.1c-0.3,0-0.5,0.1-0.8,0.1v170.2
		l100.4,1.1l13.8,0.2c2.7,0,5.1-1.2,7-3.1c0.1-0.1,0.2-0.3,0.3-0.3c0,0,0-0.1,0-0.1c0.2-0.2,0.4-0.5,0.6-0.8c3.5-4.7,3.7-12,0-16.7
		L366.9,156.5z"/>
	<path class="st1" d="M353.5,323.5l10.8,0.1c2.1,0,4-0.9,5.5-2.4c0.1-0.1,0.2-0.2,0.2-0.2c0,0,0,0,0,0c0.2-0.2,0.3-0.4,0.5-0.7
		c2.8-3.7,2.9-9.4,0-13.1l-88.5-114.9c-0.2-0.3-0.4-0.6-0.6-0.8c-0.7-0.8-1.5-1.4-2.3-1.9c0,0,0,0,0,0c-0.4-0.2-0.8-0.4-1.2-0.5
		c-0.1,0-0.2-0.1-0.3-0.1c-0.3-0.1-0.7-0.1-1-0.2c-0.2,0-0.4-0.1-0.7-0.1c-0.2,0-0.4,0-0.6,0.1c-0.3,0-0.7,0.1-1,0.1
		c-0.1,0-0.2,0.1-0.4,0.1c-0.4,0.1-0.8,0.3-1.3,0.5c0,0,0,0-0.1,0c-0.8,0.4-1.7,1-2.4,1.8c-0.2,0.3-0.4,0.5-0.6,0.8l-91.1,112.9
		c-0.7,0.9-1.2,1.9-1.6,2.9c0,0,0,0,0,0c-0.2,0.5-0.3,1-0.5,1.5c0,0.1-0.1,0.3-0.1,0.4c-0.1,0.4-0.1,0.8-0.1,1.2
		c-0.1,0.2-0.1,0.4-0.1,0.7c0,0.1,0,0.1,0,0.2c0,0.1,0,0.3,0,0.5c0.2,5.1,3.7,9.2,8.1,9.3l13.4,0.2L353.5,323.5z"/>
	<path class="st2" d="M282.1,192.2c-0.2-0.3-0.4-0.6-0.6-0.8c-0.7-0.8-1.5-1.4-2.3-1.9c0,0,0,0,0,0c-0.4-0.2-0.8-0.4-1.2-0.5
		c-0.1,0-0.2-0.1-0.3-0.1c-0.3-0.1-0.7-0.1-1-0.2c-0.2,0-0.4-0.1-0.7-0.1c-0.2,0-0.4,0-0.6,0.1c-0.2,0-0.4,0.1-0.6,0.1v133.9l79,0.9
		l10.8,0.1c2.1,0,4-0.9,5.5-2.4c0.1-0.1,0.2-0.2,0.2-0.2c0,0,0,0,0,0c0.2-0.2,0.3-0.4,0.5-0.7c2.8-3.7,2.9-9.4,0-13.1L282.1,192.2z"
		/>
	<g class="st3">
		<path class="st4" d="M289.8,205.3c-1.6,1.5-4.1,1.5-5.6-0.1l-11.7-12.1c-1.5-1.6-1.5-4.1,0.1-5.6l0,0c1.6-1.5,4-1.5,5.6,0.1
			l11.7,12.1C291.4,201.3,291.3,203.7,289.8,205.3L289.8,205.3z"/>
	</g>
	<g class="st3">
		<path class="st4" d="M260.8,205.2c1.6,1.5,4,1.5,5.6-0.1l11.7-12c1.5-1.6,1.5-4-0.1-5.6l0,0c-1.6-1.5-4-1.5-5.6,0.1l-11.7,12
			C259.2,201.2,259.3,203.7,260.8,205.2L260.8,205.2z"/>
	</g>
	<g class="st3">
		<path class="st4" d="M373.5,167.9c-1.6,1.5-4.1,1.5-5.6-0.1l-11.7-12.1c-1.5-1.6-1.5-4.1,0.1-5.6l0,0c1.6-1.5,4-1.5,5.6,0.1
			l11.7,12.1C375.1,163.9,375,166.4,373.5,167.9L373.5,167.9z"/>
	</g>
	<g class="st3">
		<path class="st4" d="M344.5,167.9c1.6,1.5,4,1.5,5.6-0.1l11.7-12c1.5-1.6,1.5-4-0.1-5.6l0,0c-1.6-1.5-4-1.5-5.6,0.1l-11.7,12
			C342.9,163.9,342.9,166.4,344.5,167.9L344.5,167.9z"/>
	</g>
</g>
<g id="Layer_1_Kopie">
	<path class="st5" d="M366.9,156.5c-0.3-0.4-0.5-0.7-0.8-1.1c-0.9-1-1.9-1.8-3-2.4c0,0,0,0-0.1,0c-0.5-0.3-1.1-0.5-1.6-0.6
		c-0.2,0-0.3-0.1-0.4-0.1c-0.4-0.1-0.8-0.2-1.3-0.2c-0.3-0.1-0.5-0.1-0.8-0.1c-0.2,0-0.5,0-0.8,0.1c-0.3,0-0.5,0.1-0.8,0.1v170.2
		l100.4,1.1l13.8,0.2c2.7,0,5.1-1.2,7-3.1c0.1-0.1,0.2-0.3,0.3-0.3c0,0,0-0.1,0-0.1c0.2-0.2,0.4-0.5,0.6-0.8c3.5-4.7,3.7-12,0-16.7
		L366.9,156.5z"/>
	<path class="st5" d="M282.1,192.2c-0.2-0.3-0.4-0.6-0.6-0.8c-0.7-0.8-1.5-1.4-2.3-1.9c0,0,0,0,0,0c-0.4-0.2-0.8-0.4-1.2-0.5
		c-0.1,0-0.2-0.1-0.3-0.1c-0.3-0.1-0.7-0.1-1-0.2c-0.2,0-0.4-0.1-0.7-0.1c-0.2,0-0.4,0-0.6,0.1c-0.2,0-0.4,0.1-0.6,0.1v133.9l79,0.9
		l10.8,0.1c2.1,0,4-0.9,5.5-2.4c0.1-0.1,0.2-0.2,0.2-0.2c0,0,0,0,0,0c0.2-0.2,0.3-0.4,0.5-0.7c2.8-3.7,2.9-9.4,0-13.1L282.1,192.2z"
		/>
	<g>
		<g>
			<path class="st6" d="M350.4,299.7h10.8c2.1,0,4-0.5,5.5-2.1c0.1-0.1,0.2-0.2,0.2-0.2c0,0,0,0,0,0c0.2-0.2,0.3-0.4,0.5-0.7
				c2.8-3.7,2.8-9.4-0.1-13.1l-89-114.5c-0.2-0.3-0.4-0.6-0.6-0.8c-0.7-0.8-1.5-1.4-2.3-1.8c0,0,0,0,0,0c-0.4-0.2-0.8-0.4-1.2-0.5
				c-0.1,0-0.2-0.1-0.3-0.1c-0.3-0.1-0.7-0.1-1-0.2c-0.2,0-0.4,0-0.7-0.1c-0.2,0-0.4,0-0.6,0.1c-0.3,0-0.7,0.1-1,0.2
				c-0.1,0-0.2,0.1-0.4,0.1c-0.4,0.1-0.8,0.3-1.3,0.5c0,0,0,0-0.1,0c-0.8,0.4-1.6,1-2.4,1.8c-0.2,0.3-0.4,0.5-0.6,0.9l-90.6,114.3
				c-0.7,0.9-1.2,1.9-1.6,3c0,0,0,0,0,0c-0.2,0.5-0.3,1-0.4,1.5c0,0.1-0.1,0.3-0.1,0.4c-0.1,0.4-0.1,0.8-0.1,1.2
				c-0.1,0.2-0.1,0.4-0.1,0.7c0,0.1,0,0.1,0,0.2c0,0.1,0,0.3,0,0.5c0.2,5.1,3.8,9,8.1,9h13.4H350.4z"/>
			<g>
				<path class="st4" d="M286.1,182.1c-1.6,1.5-4,1.5-5.6-0.1l-11.7-12c-1.5-1.6-1.5-4,0.1-5.6l0,0c1.6-1.5,4-1.5,5.6,0.1l11.7,12
					C287.7,178.1,287.6,180.6,286.1,182.1L286.1,182.1z"/>
			</g>
			<g>
				<path class="st4" d="M257.1,182.2c1.6,1.5,4.1,1.5,5.6-0.1l11.7-12.1c1.5-1.6,1.5-4.1-0.1-5.6l0,0c-1.6-1.5-4-1.5-5.6,0.1
					L257,176.6C255.5,178.2,255.5,180.7,257.1,182.2L257.1,182.2z"/>
			</g>
		</g>
		<path class="st6" d="M458,299.7h13.8c2.7,0,5.1-1.5,7-3.4c0.1-0.1,0.2-0.3,0.3-0.3c0,0,0-0.1,0-0.1c0.2-0.2,0.4-0.5,0.6-0.8
			c3.5-4.7,3.6-12-0.1-16.7l-113-145.7c-0.3-0.4-0.5-0.7-0.8-1c-0.9-1-1.9-1.8-3-2.3c0,0,0,0-0.1,0c-0.5-0.3-1.1-0.5-1.6-0.6
			c-0.2,0-0.3-0.1-0.4-0.1c-0.4-0.1-0.8-0.2-1.3-0.2c-0.3-0.1-0.5-0.1-0.8-0.1c-0.2,0-0.5,0-0.8,0.1c-0.4,0-0.9,0.1-1.3,0.2
			c-0.1,0-0.3,0.1-0.5,0.1c-0.5,0.1-1,0.3-1.6,0.6c0,0,0,0-0.1,0c-1.1,0.5-2.1,1.3-3,2.3c-0.3,0.4-0.5,0.7-0.8,1.1L235.3,278.5
			c-0.9,1.1-1.6,2.4-2.1,3.8c0,0,0,0,0,0c-0.2,0.6-0.4,1.3-0.6,1.9c0,0.2-0.1,0.4-0.1,0.6c-0.1,0.5-0.1,1-0.1,1.5
			c-0.1,0.3-0.1,0.6-0.1,0.9c0.1,0.1,0,0.1,0,0.2c0,0.2,0,0.4,0,0.6c0.3,6.5,4.8,11.8,10.3,11.9h17H458z"/>
		<g>
			<path class="st4" d="M373.2,143c-1.6,1.5-4,1.5-5.6-0.1l-11.7-12c-1.5-1.6-1.5-4,0.1-5.6l0,0c1.6-1.5,4-1.5,5.6,0.1l11.7,12
				C374.8,139,374.8,141.5,373.2,143L373.2,143z"/>
		</g>
		<g>
			<path class="st4" d="M344.2,143.1c1.6,1.5,4,1.5,5.6-0.1l11.7-12.1c1.5-1.6,1.5-4-0.1-5.6l0,0c-1.6-1.5-4-1.5-5.6,0.1l-11.7,12.1
				C342.6,139.1,342.7,141.6,344.2,143.1L344.2,143.1z"/>
		</g>
	</g>
	<g>
		<g>
			<path class="st6" d="M610,299.7h-12.3c-2.4,0-4.6-0.6-6.2-2.4c-0.1-0.1-0.2-0.2-0.3-0.3c0,0,0-0.1,0-0.1
				c-0.2-0.2-0.3-0.5-0.5-0.8c-3.2-4.2-3.2-10.8,0.1-15l101.5-130.6c0.2-0.3,0.4-0.7,0.7-0.9c0.8-0.9,1.7-1.6,2.7-2.1c0,0,0,0,0,0
				c0.5-0.3,1-0.4,1.4-0.6c0.2,0,0.3-0.1,0.4-0.1c0.4-0.1,0.8-0.2,1.2-0.2c0.2-0.1,0.5-0.1,0.8-0.1c0.2,0,0.5,0,0.7,0.1
				c0.4,0,0.8,0.1,1.1,0.2c0.1,0,0.2,0.1,0.4,0.1c0.5,0.1,0.9,0.3,1.4,0.6c0,0,0,0,0.1,0c1,0.5,1.9,1.2,2.7,2c0.3,0.3,0.5,0.6,0.7,1
				L809.8,281c0.8,1,1.4,2.2,1.8,3.4c0,0,0,0,0,0c0.2,0.6,0.3,1.1,0.5,1.7c0,0.2,0.1,0.3,0.1,0.5c0.1,0.4,0.1,0.9,0.1,1.3
				c0.1,0.3,0.1,0.5,0.1,0.8c-0.1,0.1,0,0.1,0,0.2c0,0.1,0,0.4,0,0.5c-0.3,5.8-4.3,10.3-9.3,10.3h-15.2H610z"/>
			<g>
				<path class="st4" d="M683.4,165.6c1.8,1.7,4.6,1.7,6.3-0.1l13.4-13.7c1.7-1.8,1.7-4.6-0.1-6.3l0,0c-1.8-1.7-4.6-1.7-6.3,0.1
					l-13.4,13.7C681.6,161,681.6,163.9,683.4,165.6L683.4,165.6z"/>
			</g>
			<g>
				<path class="st4" d="M716.4,165.7c-1.8,1.7-4.6,1.7-6.3-0.1l-13.3-13.8c-1.7-1.8-1.7-4.6,0.1-6.3l0,0c1.8-1.7,4.6-1.7,6.3,0.1
					l13.3,13.8C718.2,161.2,718.2,164,716.4,165.7L716.4,165.7z"/>
			</g>
		</g>
		<path class="st6" d="M487.3,299.7h-15.7c-3.1,0-5.8-1.7-7.9-3.9c-0.1-0.2-0.2-0.3-0.4-0.3c0,0,0-0.1,0-0.1c-0.2-0.3-0.4-0.6-0.7-1
			c-4-5.3-4.1-13.7,0.1-19.1l128.9-166.2c0.3-0.4,0.5-0.8,0.9-1.2c1-1.2,2.2-2,3.4-2.7c0,0,0,0,0.1,0c0.6-0.3,1.2-0.6,1.8-0.7
			c0.2,0,0.4-0.1,0.5-0.1c0.5-0.1,1-0.2,1.5-0.2c0.3-0.1,0.6-0.1,1-0.1c0.3,0,0.6,0,0.9,0.1c0.5,0.1,1,0.1,1.5,0.2
			c0.1,0,0.3,0.1,0.5,0.1c0.6,0.2,1.2,0.4,1.8,0.7c0,0,0,0,0.1,0c1.2,0.6,2.4,1.5,3.4,2.6c0.3,0.4,0.6,0.8,0.9,1.2l131.5,166.4
			c1,1.2,1.8,2.7,2.3,4.3c0,0,0,0,0,0c0.3,0.7,0.4,1.4,0.6,2.2c0,0.2,0.1,0.4,0.1,0.6c0.1,0.6,0.1,1.2,0.2,1.7
			c0.1,0.3,0.1,0.6,0.1,1c-0.1,0.1,0,0.1,0,0.3c0,0.2,0,0.5,0,0.7c-0.3,7.4-5.5,13.5-11.8,13.5h-19.4H487.3z"/>
		<g>
			<path class="st4" d="M584,121.1c1.8,1.7,4.6,1.7,6.3-0.1l13.3-13.7c1.7-1.8,1.7-4.6-0.1-6.3l0,0c-1.8-1.7-4.6-1.7-6.3,0.1
				l-13.3,13.7C582.2,116.5,582.3,119.4,584,121.1L584,121.1z"/>
		</g>
		<g>
			<path class="st4" d="M617.1,121.2c-1.8,1.7-4.6,1.7-6.3-0.1l-13.3-13.7c-1.7-1.8-1.7-4.6,0.1-6.3l0,0c1.8-1.7,4.6-1.7,6.3,0.1
				l13.3,13.7C618.9,116.6,618.8,119.4,617.1,121.2L617.1,121.2z"/>
		</g>
	</g>
	<g>
		<g>
			<path class="st6" d="M920.4,299.7h7.8c1.5,0,2.9-0.4,4-1.5c0.1-0.1,0.1-0.1,0.2-0.2c0,0,0,0,0,0c0.1-0.1,0.2-0.3,0.3-0.5
				c2-2.7,2.1-6.8-0.1-9.5l-64.4-82.8c-0.2-0.2-0.3-0.4-0.5-0.6c-0.5-0.6-1.1-1-1.7-1.3c0,0,0,0,0,0c-0.3-0.2-0.6-0.3-0.9-0.4
				c-0.1,0-0.2-0.1-0.3-0.1c-0.2-0.1-0.5-0.1-0.7-0.1c-0.2,0-0.3,0-0.5-0.1c-0.1,0-0.3,0-0.5,0c-0.2,0-0.5,0.1-0.7,0.1
				c-0.1,0-0.1,0.1-0.3,0.1c-0.3,0.1-0.6,0.2-0.9,0.4c0,0,0,0,0,0c-0.6,0.3-1.2,0.7-1.7,1.3c-0.2,0.2-0.3,0.4-0.4,0.6l-65.5,82.7
				c-0.5,0.6-0.9,1.4-1.2,2.1c0,0,0,0,0,0c-0.1,0.4-0.2,0.7-0.3,1.1c0,0.1,0,0.2,0,0.3c0,0.3-0.1,0.6-0.1,0.9c0,0.2,0,0.3,0,0.5
				c0,0,0,0.1,0,0.1c0,0.1,0,0.2,0,0.3c0.2,3.7,2.7,6.5,5.9,6.5h9.7H920.4z"/>
			<g>
				<path class="st4" d="M873.9,214.6c-1.1,1.1-2.9,1.1-4-0.1l-8.5-8.7c-1.1-1.1-1.1-2.9,0.1-4l0,0c1.1-1.1,2.9-1.1,4,0l8.5,8.7
					C875,211.7,875,213.5,873.9,214.6L873.9,214.6z"/>
			</g>
			<g>
				<path class="st4" d="M852.9,214.7c1.1,1.1,2.9,1.1,4-0.1l8.4-8.7c1.1-1.1,1.1-2.9-0.1-4l0,0c-1.1-1.1-2.9-1.1-4,0.1l-8.4,8.7
					C851.7,211.8,851.8,213.6,852.9,214.7L852.9,214.7z"/>
			</g>
		</g>
		<path class="st6" d="M998.2,299.7h10c1.9,0,3.7-1.1,5-2.5c0.1-0.1,0.1-0.2,0.2-0.2c0,0,0,0,0,0c0.2-0.2,0.3-0.4,0.4-0.6
			c2.5-3.4,2.6-8.7-0.1-12.1l-81.8-105.4c-0.2-0.3-0.3-0.5-0.6-0.8c-0.6-0.8-1.4-1.3-2.2-1.7c0,0,0,0,0,0c-0.4-0.2-0.8-0.4-1.1-0.5
			c-0.1,0-0.2-0.1-0.3-0.1c-0.3-0.1-0.6-0.1-0.9-0.1c-0.2,0-0.4,0-0.6-0.1c-0.2,0-0.4,0-0.6,0.1c-0.3,0-0.6,0.1-0.9,0.1
			c-0.1,0-0.2,0.1-0.3,0.1c-0.4,0.1-0.7,0.3-1.2,0.4c0,0,0,0,0,0c-0.8,0.4-1.5,0.9-2.2,1.6c-0.2,0.3-0.4,0.5-0.5,0.8l-83.4,105.6
			c-0.6,0.8-1.1,1.7-1.5,2.7c0,0,0,0,0,0c-0.2,0.4-0.3,0.9-0.4,1.4c0,0.1-0.1,0.3,0,0.4c-0.1,0.4-0.1,0.7-0.1,1.1
			c-0.1,0.2,0,0.4-0.1,0.6c0,0.1,0,0.1,0,0.2c0,0.1,0,0.3,0,0.4c0.2,4.7,3.5,8.5,7.5,8.6h12.3H998.2z"/>
		<g>
			<path class="st4" d="M936.9,186.4c-1.1,1.1-2.9,1.1-4-0.1l-8.5-8.7c-1.1-1.1-1.1-2.9,0.1-4l0,0c1.1-1.1,2.9-1.1,4,0.1l8.5,8.7
				C938,183.5,938,185.3,936.9,186.4L936.9,186.4z"/>
		</g>
		<g>
			<path class="st4" d="M915.9,186.4c1.1,1.1,2.9,1.1,4-0.1l8.5-8.7c1.1-1.1,1.1-2.9-0.1-4l0,0c-1.1-1.1-2.9-1.1-4,0.1l-8.5,8.7
				C914.8,183.5,914.8,185.3,915.9,186.4L915.9,186.4z"/>
		</g>
	</g>
	<g>
		<g>
			<path class="st6" d="M128.4,299.7h7.8c1.5,0,2.9-0.4,4-1.5c0.1-0.1,0.1-0.1,0.2-0.2c0,0,0,0,0,0c0.1-0.1,0.2-0.3,0.3-0.5
				c2-2.7,2.1-6.8-0.1-9.5l-64.4-82.8c-0.2-0.2-0.3-0.4-0.5-0.6c-0.5-0.6-1.1-1-1.7-1.3c0,0,0,0,0,0c-0.3-0.2-0.6-0.3-0.9-0.4
				c-0.1,0-0.2-0.1-0.3-0.1c-0.2-0.1-0.5-0.1-0.7-0.1c-0.2,0-0.3,0-0.5-0.1c-0.1,0-0.3,0-0.5,0c-0.2,0-0.5,0.1-0.7,0.1
				c-0.1,0-0.1,0.1-0.3,0.1c-0.3,0.1-0.6,0.2-0.9,0.4c0,0,0,0,0,0c-0.6,0.3-1.2,0.7-1.7,1.3c-0.2,0.2-0.3,0.4-0.4,0.6L1.6,287.8
				c-0.5,0.6-0.9,1.4-1.2,2.1c0,0,0,0,0,0c-0.1,0.4-0.2,0.7-0.3,1.1c0,0.1,0,0.2,0,0.3c0,0.3-0.1,0.6-0.1,0.9c0,0.2,0,0.3,0,0.5
				c0,0,0,0.1,0,0.1c0,0.1,0,0.2,0,0.3c0.2,3.7,2.7,6.5,5.9,6.5h9.7H128.4z"/>
			<g>
				<path class="st4" d="M81.9,214.6c-1.1,1.1-2.9,1.1-4-0.1l-8.5-8.7c-1.1-1.1-1.1-2.9,0.1-4l0,0c1.1-1.1,2.9-1.1,4,0l8.5,8.7
					C83,211.7,83,213.5,81.9,214.6L81.9,214.6z"/>
			</g>
			<g>
				<path class="st4" d="M60.9,214.7c1.1,1.1,2.9,1.1,4-0.1l8.4-8.7c1.1-1.1,1.1-2.9-0.1-4l0,0c-1.1-1.1-2.9-1.1-4,0.1l-8.4,8.7
					C59.7,211.8,59.8,213.6,60.9,214.7L60.9,214.7z"/>
			</g>
		</g>
		<path class="st6" d="M206.2,299.7h10c1.9,0,3.7-1.1,5-2.5c0.1-0.1,0.1-0.2,0.2-0.2c0,0,0,0,0,0c0.2-0.2,0.3-0.4,0.4-0.6
			c2.5-3.4,2.6-8.7-0.1-12.1l-81.8-105.4c-0.2-0.3-0.3-0.5-0.6-0.8c-0.6-0.8-1.4-1.3-2.2-1.7c0,0,0,0,0,0c-0.4-0.2-0.8-0.4-1.1-0.5
			c-0.1,0-0.2-0.1-0.3-0.1c-0.3-0.1-0.6-0.1-0.9-0.1c-0.2,0-0.4,0-0.6-0.1c-0.2,0-0.4,0-0.6,0.1c-0.3,0-0.6,0.1-0.9,0.1
			c-0.1,0-0.2,0.1-0.3,0.1c-0.4,0.1-0.7,0.3-1.2,0.4c0,0,0,0,0,0c-0.8,0.4-1.5,0.9-2.2,1.6c-0.2,0.3-0.4,0.5-0.5,0.8L45.1,284.3
			c-0.6,0.8-1.1,1.7-1.5,2.7c0,0,0,0,0,0c-0.2,0.4-0.3,0.9-0.4,1.4c0,0.1-0.1,0.3,0,0.4c-0.1,0.4-0.1,0.7-0.1,1.1
			c-0.1,0.2,0,0.4-0.1,0.6c0,0.1,0,0.1,0,0.2c0,0.1,0,0.3,0,0.4c0.2,4.7,3.5,8.5,7.5,8.6h12.3H206.2z"/>
		<g>
			<path class="st4" d="M144.9,186.4c-1.1,1.1-2.9,1.1-4-0.1l-8.5-8.7c-1.1-1.1-1.1-2.9,0.1-4l0,0c1.1-1.1,2.9-1.1,4,0.1l8.5,8.7
				C146,183.5,146,185.3,144.9,186.4L144.9,186.4z"/>
		</g>
		<g>
			<path class="st4" d="M123.9,186.4c1.1,1.1,2.9,1.1,4-0.1l8.5-8.7c1.1-1.1,1.1-2.9-0.1-4l0,0c-1.1-1.1-2.9-1.1-4,0.1l-8.5,8.7
				C122.8,183.5,122.8,185.3,123.9,186.4L123.9,186.4z"/>
		</g>
	</g>
</g>
</svg>
