<?xml version="1.0" encoding="utf-8"?>
<!-- Generator: Adobe Illustrator 19.0.0, SVG Export Plug-In . SVG Version: 6.00 Build 0)  -->
<svg version="1.1" id="Ebene_1" xmlns="http://www.w3.org/2000/svg" xmlns:xlink="http://www.w3.org/1999/xlink" x="0px" y="0px"
	 viewBox="0 0 232 37" style="enable-background:new 0 0 232 37;" xml:space="preserve">
<style type="text/css">
	.st0{fill:#CCCCCC;}
	.st1{fill:#6F6F6D;}
	.st2{fill:#FFFFFF;}
</style>
<g id="XMLID_186_">
	<rect id="XMLID_25_" x="3.6" y="28" class="st0" width="215.4" height="9"/>
	<rect id="XMLID_24_" x="3.6" y="19" class="st1" width="215.4" height="9"/>
	<path id="XMLID_18_" class="st2" d="M224.3,5.3h-151c-2.2-2-5.5-4-9.1-4H12.4c-6.7,0-12.1,5.4-12.1,12c0,6.6,5.4,12,12.1,12h51.8
		c3.5,0,6.7-1,8.9-4H86c0.8,6,5.8,10.3,11.9,10.3c6,0,11-4.3,11.9-10.3h23.2c1.5,4,5.1,6.3,9.3,6.3c4.2,0,7.8-2.3,9.3-6.3h72.7
		c4.1,0,7.4-3.6,7.4-8C231.6,8.9,228.3,5.3,224.3,5.3z"/>
</g>
</svg>
