<?xml version="1.0" encoding="utf-8"?>
<!-- Generator: Adobe Illustrator 19.0.0, SVG Export Plug-In . SVG Version: 6.00 Build 0)  -->
<svg version="1.1" id="Ebene_1" xmlns="http://www.w3.org/2000/svg" xmlns:xlink="http://www.w3.org/1999/xlink" x="0px" y="0px"
	 viewBox="-43 388.1 758 32" style="enable-background:new -43 388.1 758 32;" xml:space="preserve">
<style type="text/css">
	.st0{fill:#CCCCCC;}
	.st1{fill:#6F6F6D;}
	.st2{fill:#FFFFFF;}
</style>
<g>
	<rect id="XMLID_23_" x="-33.3" y="411" class="st0" width="748.3" height="9"/>
	<rect id="XMLID_22_" x="-33.3" y="402" class="st1" width="748.3" height="9"/>
	<path id="XMLID_13_" class="st2" d="M715,388.3H505.2h-71.9h-469c-4.1,0-7.3,3.6-7.3,8s3.3,8,7.3,8h66.6c1.1,5,5,7.5,9.7,7.5
		c4.6,0,8.5-2.5,9.7-7.5h26.1c1.3,5,5.5,8.1,10.6,8.1s9.3-3.1,10.6-8.1h61c1.6,4,5,5.8,9.1,5.8c4,0,7.5-1.8,9.1-5.8H238
		c0.5,6,5.6,11.2,12,11.2c3.7,0,7.1-1.6,9.3-4.3c2,1.5,4.5,2.3,7.2,2.3c5.6,0,10.3-3.2,11.6-9.2h21.1c0.9,6,5.9,10.1,11.8,10.1
		c6,0,10.9-4.1,11.8-10.1h62.4c1.4,4,4.6,5.5,8.3,5.5c3.7,0,6.9-1.5,8.3-5.5h33.9c2.1,2,4.8,3,7.8,3H477c1.4,3,4.5,5.2,8.2,5.2
		c3.6,0,6.7-2.2,8.2-5.2h1.8c3,0,5.7-1,7.8-3h38.9c0.9,6,5.9,10.2,11.8,10.2c4.1,0,7.7-2,9.9-5.1c1.8,2.5,4.8,4.1,8.1,4.1
		c5.2,0,9.5-4.2,9.9-9.2H715V388.3z"/>
</g>
</svg>
