<?xml version="1.0" encoding="utf-8"?>
<!-- Generator: Adobe Illustrator 19.0.0, SVG Export Plug-In . SVG Version: 6.00 Build 0)  -->
<svg version="1.1" id="Ebene_1" xmlns="http://www.w3.org/2000/svg" xmlns:xlink="http://www.w3.org/1999/xlink" x="0px" y="0px"
	 viewBox="-435 388.1 448 32" style="enable-background:new -435 388.1 448 32;" xml:space="preserve">
<style type="text/css">
	.st0{fill:#CCCCCC;}
	.st1{fill:#6F6F6D;}
	.st2{fill:#FFFFFF;}
</style>
<rect id="XMLID_25_" x="-435" y="411.1" class="st0" width="435.4" height="9"/>
<rect id="XMLID_24_" x="-435" y="402.1" class="st1" width="435.4" height="9"/>
<path class="st2" d="M5.7,388.3h-142.9h-8.1h-115.2l-174.5,0.1v15.9h96.2c1.5,4,5.1,6.3,9.3,6.3s7.8-2.3,9.3-6.3h23.2
	c0.9,6,5.9,10.3,11.9,10.3c6.1,0,11.1-4.3,11.9-10.3h12.9c2.2,3,5.4,4,8.9,4h120.1c2,3.8,6,6.3,10.6,6.3c6,0,11-4.3,11.9-10.3h23.2
	c1.5,4,5.1,6.3,9.3,6.3s7.8-2.3,9.3-6.3H5.6c4.1,0,7.4-3.6,7.4-8C13,391.9,9.7,388.3,5.7,388.3z"/>
</svg>
