<?xml version="1.0" encoding="utf-8"?>
<!-- Generator: Adobe Illustrator 19.0.0, SVG Export Plug-In . SVG Version: 6.00 Build 0)  -->
<svg version="1.1" xmlns="http://www.w3.org/2000/svg" xmlns:xlink="http://www.w3.org/1999/xlink" x="0px" y="0px"
	 viewBox="-426 382 435 37" style="enable-background:new -426 382 435 37;" xml:space="preserve">
<style type="text/css">
	.st0{fill:#CCCCCC;}
	.st1{fill:#6F6F6D;}
	.st2{fill:#FFFFFF;}
	.st3{display:none;}
	.st4{display:inline;fill:#FFFFFF;}
</style>
<g id="Ebene_1">
	<rect id="XMLID_25_" x="-426" y="410.4" class="st0" width="422.2" height="9"/>
	<rect id="XMLID_24_" x="-426" y="401.4" class="st1" width="422.2" height="9"/>
	<path id="XMLID_18_" class="st2" d="M1.5,387.6h-151c-2.2-2-5.5-4-9.1-4h-102.1c-6.7,0-12.1,5.4-12.1,12s5.4,12,12.1,12h102.1
		c3.5,0,6.7-1,8.9-4h12.9c0.8,6,5.8,10.3,11.9,10.3c6,0,11-4.3,11.9-10.3h23.2c1.5,4,5.1,6.3,9.3,6.3c4.2,0,7.8-2.3,9.3-6.3H1.4
		c4.1,0,7.4-3.6,7.4-8C8.8,391.2,5.5,387.6,1.5,387.6z"/>
	<path id="XMLID_2_" class="st2" d="M-426.1,403.6h83.1c1.5,4,5.1,6.3,9.3,6.3c4.2,0,7.8-2.3,9.3-6.3h23.2c0.9,6,5.9,10.3,11.9,10.3
		c6.1,0,11.1-4.3,11.9-10.3h12.9c2.2,3,5.4,4,8.9,4h102.1c6.7,0,12.1-5.4,12.1-12s-5.4-12-12.1-12h-102.1c-3.6,0-6.9,2-9.1,4h-161.5
		L-426.1,403.6z"/>
</g>
<g id="Ebene_2" class="st3">
	<path id="XMLID_1_" class="st4" d="M-430.8,392.6c0,4.4,3.3,8,7.4,8h72.7c1.5,4,5.1,6.3,9.3,6.3c4.2,0,7.8-2.3,9.3-6.3h23.2
		c0.9,6,5.9,10.3,11.9,10.3c6.1,0,11.1-4.3,11.9-10.3h12.9c2.2,3,5.4,4,8.9,4h252.1c6.7,0,12.1-5.4,12.1-12s-5.4-12-12.1-12h-252.1
		c-3.6,0-6.9,2-9.1,4h-151C-427.5,384.6-430.8,388.2-430.8,392.6z"/>
</g>
</svg>
