<?xml version="1.0" encoding="utf-8"?>
<!-- Generator: Adobe Illustrator 19.0.0, SVG Export Plug-In . SVG Version: 6.00 Build 0)  -->
<svg version="1.1" id="Ebene_1" xmlns="http://www.w3.org/2000/svg" xmlns:xlink="http://www.w3.org/1999/xlink" x="0px" y="0px"
	 viewBox="0 0 187 126" style="enable-background:new 0 0 187 126;" xml:space="preserve">
<style type="text/css">
	.st0{fill:#CCCCCC;}
	.st1{fill:#6F6F6D;}
	.st2{fill:#FFFFFF;}
</style>
<rect id="XMLID_27_" x="6.1" y="22.9" class="st0" width="177" height="103.1"/>
<rect id="XMLID_26_" x="6.1" y="13.8" class="st1" width="177" height="9"/>
<path id="XMLID_29_" class="st2" d="M187,9.6c0-5.5-4.4-9.9-9.9-9.9h-42.2c-2.9,0-5.4,1-7.3,3H59.4c-1.8-2-4.4-3-7.2-3H9.9
	C4.4-0.3,0,4.2,0,9.7c0,5.5,4.4,10,9.9,10h42.2c3.6,0,6.7-2,8.4-5H84c1.2,4,4.6,6,8.5,6c3.9,0,7.2-2,8.5-6h25.5c1.7,3,4.9,5,8.4,5
	h25.9c1.8,4,6.1,7.2,11,7.2c5.8,0,10.7-4.2,11.8-9.7C185.7,15.3,187,12.6,187,9.6z"/>
<g id="XMLID_13_">
	<path id="XMLID_14_" d="M120.4,85.4v-4.4c2.2,0,3.6-0.2,4.4-0.7c1.3-0.8,2-2.2,2-4.1c0-1.4-0.5-2.6-1.4-3.5
		c-0.9-0.9-2.2-1.4-3.7-1.4c-1.4,0-2.5,0.3-3.3,1c-0.7,0.7-1.3,1.9-1.7,3.5h-5.1c0.5-3.2,1.6-5.5,3.2-7c1.6-1.5,3.9-2.2,6.9-2.2
		c3,0,5.4,0.9,7.2,2.6c1.9,1.7,2.8,4,2.8,6.7c0,3.1-1.2,5.5-3.7,7.2c2.8,1.6,4.2,4.3,4.2,8c0,3-1,5.5-3.1,7.4
		c-2.1,1.9-4.7,2.9-7.9,2.9c-4.1,0-7.1-1.5-9.1-4.5c-0.8-1.3-1.3-3-1.6-5.2h4.9c0.3,1.6,0.9,2.9,1.9,3.8s2.3,1.3,4,1.3
		c1.6,0,3-0.5,4.1-1.6c1.1-1.1,1.6-2.5,1.6-4.3c0-2.3-0.8-3.9-2.4-4.9C123.8,85.7,122.3,85.4,120.4,85.4z"/>
	<path id="XMLID_17_" d="M147.7,96.4h12.6v4.8h-22.7l11.7-14.2c1.2-1.4,2.1-2.6,2.9-3.7c0.8-1,1.4-1.9,1.8-2.6
		c0.8-1.4,1.2-2.6,1.2-3.7c0-1.6-0.6-2.9-1.7-4c-1.1-1.1-2.5-1.6-4.1-1.6c-3.4,0-5.4,2-5.9,6.1h-5.1c0.8-7.1,4.4-10.7,10.8-10.7
		c3.1,0,5.7,1,7.8,2.9c2.1,2,3.2,4.4,3.2,7.3c0,1.8-0.5,3.6-1.5,5.4c-0.5,0.9-1.2,2-2.2,3.3c-1,1.3-2.2,2.8-3.6,4.5L147.7,96.4z"/>
</g>
</svg>
