<?xml version="1.0" encoding="UTF-8" standalone="no"?>
<svg width="145px" height="143px" viewBox="0 0 145 143" version="1.1" xmlns="http://www.w3.org/2000/svg" xmlns:xlink="http://www.w3.org/1999/xlink" xmlns:sketch="http://www.bohemiancoding.com/sketch/ns">
    <!-- Generator: Sketch 3.4.3 (16618) - http://www.bohemiancoding.com/sketch -->
    <title>sled</title>
    <desc>Created with Sketch.</desc>
    <defs>
        <linearGradient x1="62.4910119%" y1="81.7114186%" x2="36.1942945%" y2="37.8758939%" id="linearGradient-1">
            <stop stop-color="#2C313B" stop-opacity="0" offset="0%"></stop>
            <stop stop-color="#000000" offset="100%"></stop>
        </linearGradient>
        <path id="path-2" d="M0,0.307660672 L74.3000523,0.307660672 L74.3000523,54.0484965 L0,54.0484965"></path>
        <path id="path-4" d="M0,0.307660672 L74.3000523,0.307660672 L74.3000523,54.0484965 L0,54.0484965 L0,0.307660672 Z"></path>
    </defs>
    <g id="v4" stroke="none" stroke-width="1" fill="none" fill-rule="evenodd" sketch:type="MSPage">
        <g id="Artboard-1" sketch:type="MSArtboardGroup" transform="translate(-972.000000, -154.000000)">
            <g id="sled" sketch:type="MSLayerGroup" transform="translate(972.000000, 154.000000)">
                <path d="M1.764805,50.2143764 L1.764805,37.391122 C1.764805,37.391122 11.1132623,27.3801864 19.928488,22.6731386 C28.7437138,17.9660908 73.1450161,20.7878833 73.1450161,20.7878833 L187.882816,142.089846 L92.3818536,142.089846 L1.764805,50.2143764 Z" id="Rectangle-5-Copy" opacity="0.15" fill="url(#linearGradient-1)" sketch:type="MSShapeGroup"></path>
                <g transform="translate(0.000000, 0.000000)">
                    <path d="M51.9447627,52.5143507 L54.2646904,52.5143507 L54.2646904,46.903701 L51.9447627,46.903701 L51.9447627,52.5143507 Z" id="Fill-1" fill="#E4BD21" sketch:type="MSShapeGroup"></path>
                    <g id="Group-45">
                        <path d="M57.7391773,35.000559 C52.3862973,44.0079489 40.1276826,46.6043555 30.3636138,40.8003785 C20.6016238,34.9964015 17.0281867,22.9872413 22.3852242,13.9798515 C27.7401829,4.97038289 39.9987977,2.37397627 49.7607877,8.18003206 C59.5227776,13.9860879 63.0962148,25.9931692 57.7391773,35.000559" id="Fill-2" fill="#B33F30" sketch:type="MSShapeGroup"></path>
                        <path d="M49.7609955,8.17920055 C43.2523093,4.31057547 35.6397864,4.17753302 29.7006882,7.18346094 C27.2996877,8.65940065 25.2416872,10.6903768 23.7304081,13.232735 C18.3733706,22.2401248 21.9468077,34.2472061 31.7087977,40.0532619 C38.217484,43.921887 45.8300068,44.0549295 51.7732626,41.0469228 C54.1701056,39.570983 56.2301848,37.5400069 57.7393851,34.9997275 C63.0964226,25.9923377 59.5229855,13.9852563 49.7609955,8.17920055" id="Fill-4" fill="#E54937" sketch:type="MSShapeGroup"></path>
                        <path d="M27.1177937,14.1679818 C27.1177937,14.1679818 24.5879083,14.3987273 23.6337445,15.5524549 C22.6795806,16.7061824 23.7896536,16.4692005 24.4008174,15.7624125 C25.0119811,15.0556244 26.0659268,14.5962122 27.1177937,14.1679818" id="Fill-6" fill="#B33F30" sketch:type="MSShapeGroup"></path>
                        <path d="M27.4425004,14.3008164 C27.4425004,14.3008164 25.8355971,14.9286105 25.4302333,15.8599077 C25.0248696,16.7912048 25.7046334,16.4274169 25.9707183,15.8515925 C26.2368032,15.2736893 26.837573,14.7789377 27.4425004,14.3008164" id="Fill-8" fill="#B33F30" sketch:type="MSShapeGroup"></path>
                        <path d="M17.0647734,9.00447951 L16.6219915,9.43478869 C16.5367611,9.5220978 16.5097369,9.64890389 16.5346823,9.79234029 C16.5367611,9.80273423 16.5388399,9.81104938 16.5388399,9.81728575 L16.5388399,9.82144332 C16.5429975,9.83807363 16.5513126,9.85678272 16.557549,9.87549182 C16.6469369,10.1914676 16.9566764,10.5136798 17.2809673,10.6009889 L27.1468967,13.3595411 C27.1697634,13.3678562 27.1926301,13.3761714 27.2154968,13.3803289 C27.2882543,13.3969592 27.3526968,13.3969592 27.4129816,13.3886441 L27.4150604,13.3886441 C27.4441635,13.3844865 27.4691089,13.3761714 27.4919756,13.3657774 C27.5002908,13.3616198 27.5065271,13.3616198 27.5106847,13.3574623 C27.5293938,13.3491471 27.5460241,13.3387532 27.5626544,13.3262804 C27.5730483,13.3200441 27.5834423,13.3096501 27.5917574,13.3034138 C27.6000726,13.2950986 27.6083878,13.2847047 27.6146241,13.2743107 C27.6270968,13.2576804 27.6395696,13.2431289 27.6478847,13.2244198 C27.6520423,13.2202622 27.6520423,13.2119471 27.6582787,13.2057107 C27.6686726,13.182844 27.674909,13.1558198 27.6811453,13.1267168 L27.6811453,13.1225592 C27.6915393,13.0664319 27.6915393,12.9999107 27.6811453,12.9292319 C27.674909,12.9042864 27.6665938,12.8834985 27.6582787,12.8585531 L25.1263145,2.93233881 C25.1055266,2.85750243 25.072266,2.77642969 25.0286114,2.7036721 L25.0265327,2.70159331 C25.0078236,2.66833269 24.9849569,2.63507208 24.964169,2.60181147 C24.9558538,2.59349631 24.9516963,2.58310237 24.9413023,2.57478722 C24.9225932,2.54984176 24.9018054,2.52697509 24.8810175,2.50618721 C24.8706235,2.49163569 24.8602296,2.47916296 24.8456781,2.46461144 C24.8415205,2.46253265 24.8415205,2.46045386 24.8373629,2.45629629 C24.8311265,2.44798113 24.8186538,2.43758719 24.8124175,2.42927204 C24.5213871,2.15487198 24.1534416,2.06964166 23.9767445,2.24425988 L23.432102,2.77642969 L17.0647734,9.00447951 Z" id="Fill-10" fill="#B33F30" sketch:type="MSShapeGroup"></path>
                        <path d="M27.8626236,14.2388685 C27.8626236,14.2388685 26.7276051,17.8663541 27.7711569,19.8495182 C28.8147086,21.8306035 29.1265269,20.1613365 28.5028904,18.9099059 C27.8771751,17.6584753 27.848072,15.9351598 27.8626236,14.2388685" id="Fill-12" fill="#B33F30" sketch:type="MSShapeGroup"></path>
                        <path d="M28.1611376,14.3313746 C28.1611376,14.3313746 28.2900224,16.4579751 29.2337923,17.2894904 C30.1775622,18.1210057 30.0091804,17.1834722 29.4271197,16.6533812 C28.8512953,16.1191326 28.4916649,15.2231748 28.1611376,14.3313746" id="Fill-14" fill="#B33F30" sketch:type="MSShapeGroup"></path>
                        <path d="M28.4696298,13.3050768 C28.4696298,13.3050768 30.3093574,11.0163309 32.0014911,10.7419308 C33.6957036,10.4654519 32.7602489,11.3967491 31.7063032,11.5900764 C30.6502787,11.7834037 29.5443633,12.5359251 28.4696298,13.3050768" id="Fill-16" fill="#B33F30" sketch:type="MSShapeGroup"></path>
                        <path d="M27.5927968,13.3021665 C27.601112,13.2938513 27.6094271,13.2855362 27.6156635,13.2730635 C27.6281362,13.2585119 27.6385302,13.2439604 27.6468453,13.2252513 C27.6510029,13.2210938 27.6510029,13.2106998 27.6572393,13.2065422 C27.6676332,13.1815968 27.6738696,13.1566513 27.6801059,13.1275483 L27.6821847,13.1233907 C27.6925787,13.0672634 27.6925787,13.0007422 27.6801059,12.9300634 C27.6738696,12.9051179 27.6655544,12.8822513 27.6572393,12.8593846 L25.1252751,2.93317033 C25.106566,2.85833395 25.0712266,2.7772612 25.0296508,2.70450361 L25.027572,2.70242482 C25.0088629,2.66708542 24.9839175,2.6359036 24.9631296,2.60264298 C24.9548145,2.59432783 24.9527357,2.58393389 24.9423417,2.57561874 C24.9236326,2.55067328 24.900766,2.5278066 24.8799781,2.50701872 C24.8695841,2.49038841 24.861269,2.47791568 24.8467175,2.46544295 C24.8425599,2.46336417 24.8425599,2.46128538 24.8384023,2.45504901 C24.8321659,2.44881265 24.8196932,2.43633992 24.8113781,2.43010355 C24.5203477,2.15570349 24.1544809,2.07047317 23.9777839,2.24509139 L23.4310626,2.77518241 L19.6580618,6.46711048 L27.5927968,13.3021665 Z" id="Fill-18" fill="#E54937" sketch:type="MSShapeGroup"></path>
                        <path d="M27.8526454,14.6571207 C27.5553786,14.6571207 27.276821,14.5199207 27.1479361,14.3785631 C27.071021,14.2954116 27.0772573,14.1623691 27.1604089,14.0854539 C27.2456392,14.00646 27.3766029,14.0126963 27.4555968,14.0958479 C27.5013302,14.1478176 27.6863423,14.2351267 27.8630393,14.2392843 C28.0210272,14.2351267 28.1603061,14.1644479 28.2767182,14.0251691 C28.6779243,13.5491265 28.3557122,13.2185992 28.2871121,13.1562356 C28.199803,13.0793204 28.1914879,12.9483567 28.268403,12.8631264 C28.3432394,12.7758173 28.4742031,12.7675021 28.5615122,12.8423385 C28.8130456,13.0606113 29.1456517,13.6447508 28.5968516,14.2954116 C28.4035243,14.5261571 28.1519909,14.6508844 27.8713545,14.6571207 L27.8526454,14.6571207 Z" id="Fill-20" fill="#FEFEFE" sketch:type="MSShapeGroup"></path>
                        <path d="M27.3065477,14.2652691 C26.9614688,14.2652691 26.6350991,14.1031236 26.4833475,13.9430569 C26.3939596,13.8432751 26.400196,13.6894448 26.4999778,13.5979781 C26.5976809,13.5065114 26.7515112,13.5127478 26.8429779,13.6125296 C26.8970264,13.6707357 27.1111416,13.7725963 27.3190204,13.7788327 C27.5040326,13.7746751 27.6661781,13.6894448 27.8033781,13.5293781 C28.2731843,12.9722628 27.892766,12.5856082 27.813772,12.5128506 C27.7139902,12.4234627 27.7035963,12.2717111 27.7929842,12.1698505 C27.8802933,12.0700687 28.0341236,12.0575959 28.1339054,12.144905 C28.4290934,12.400596 28.8178268,13.0824386 28.1754812,13.8432751 C27.9488933,14.1114388 27.6557841,14.2590328 27.3294144,14.2652691 L27.3065477,14.2652691 Z" id="Fill-22" fill="#FEFEFE" sketch:type="MSShapeGroup"></path>
                        <path d="M27.6333332,12.7346573 C27.6333332,12.7346573 25.3341933,10.9094811 25.0473205,9.21734744 C24.7625265,7.52729253 25.6979813,8.45443212 25.8996237,9.5083778 C26.0991874,10.5644023 26.860024,11.6640813 27.6333332,12.7346573" id="Fill-24" fill="#B33F30" sketch:type="MSShapeGroup"></path>
                        <path d="M26.6488191,13.7983733 C26.2413765,13.7983733 25.8505643,13.6092035 25.6738673,13.4158762 C25.5678491,13.2973853 25.5740855,13.1144519 25.6925764,13.0063549 C25.8110674,12.8982579 25.9940007,12.9065731 26.1000189,13.025064 C26.1644614,13.093664 26.4201523,13.2142337 26.6633706,13.2204701 C26.8837221,13.2163125 27.0770495,13.1165307 27.2391949,12.9252822 C27.7963102,12.2642275 27.3472919,11.8048153 27.2516677,11.7195849 C27.131098,11.6135667 27.1227828,11.4306334 27.2267222,11.3121424 C27.3306616,11.1936515 27.5115162,11.1791 27.6320859,11.2830394 C27.9813224,11.5865425 28.4407346,12.3951911 27.6819769,13.2973853 C27.4117344,13.6175187 27.0624979,13.7900581 26.6758433,13.7983733 L26.6488191,13.7983733 Z" id="Fill-26" fill="#FEFEFE" sketch:type="MSShapeGroup"></path>
                        <g id="Group-30">
                            <mask id="mask-3" sketch:name="Clip 29" fill="white">
                                <use xlink:href="#path-2"></use>
                            </mask>
                            <g id="Clip-29"></g>
                            <path d="M25.1362927,0.832346846 C25.8181352,1.52250457 25.8077413,2.63465632 25.1155048,3.31649889 L17.6339456,10.6816459 C16.9437879,11.3614097 15.8295573,11.3530946 15.1477148,10.6629368 C14.467951,9.96862154 14.4762661,8.85646978 15.1685027,8.176706 L22.6521406,0.811558962 C23.3422983,0.13179518 24.4565289,0.140110333 25.1362927,0.832346846" id="Fill-28" fill="#FEFEFE" sketch:type="MSShapeGroup" mask="url(#mask-3)"></path>
                        </g>
                        <path d="M47.495532,14.5261571 C47.495532,14.5261571 45.7930044,27.5019538 35.6693052,30.632609 C38.382124,34.3889795 45.5144467,39.0517017 49.3747567,37.5903135 C53.4138424,36.0603253 56.8625522,30.7448636 56.8895765,27.0487779 C56.9228371,22.1781769 51.1500419,15.4657694 47.495532,14.5261571" id="Fill-31" fill="#B33F30" sketch:type="MSShapeGroup"></path>
                        <path d="M36.4864769,30.96376 C36.4324284,30.96376 36.3846163,30.9201054 36.3804587,30.8639781 L36.3222527,29.529396 L37.6277317,30.2590507 L37.575762,28.7186686 L39.1410896,29.3464627 L39.0891199,27.8143957 L40.3883626,28.4900019 L40.2844232,26.7874742 L41.8144114,27.409032 L41.5815871,25.6129588 L43.2778784,25.9725892 L42.8392541,24.4467586 L44.3650847,24.6504798 L43.5107027,22.9687401 L45.2319394,23.0726795 L44.3900301,21.4117276 L46.0884002,21.1539579 L45.0510848,19.6489151 L46.8970489,19.2581029 L45.7745032,17.7696905 L47.583049,17.4079813 L46.2463881,15.9445143 L47.9551521,15.289696 C48.0071218,15.2709869 48.0674067,15.2959324 48.0902734,15.3499809 C48.1110612,15.4040294 48.084037,15.4643142 48.0299885,15.4851021 L46.6060185,16.0297447 L47.9842552,17.5410238 L46.1382911,17.9089693 L47.2629156,19.395303 L45.4003213,19.7881939 L46.4521882,21.309867 L44.706006,21.5738731 L45.5853334,23.303425 L43.8640967,23.1994856 L44.7309514,24.9082496 L43.1261268,24.6962132 L43.5751451,26.2469893 L41.8248054,25.8790437 L42.0659448,27.7354017 L40.5130899,27.1055289 L40.6191081,28.8454747 L39.3094715,28.1636321 L39.3614412,29.6582809 L37.7961136,29.0325656 L37.8480833,30.6228387 L36.5467618,29.893184 L36.5904163,30.8535842 C36.5924951,30.9117903 36.5467618,30.9616812 36.4906345,30.96376 L36.4864769,30.96376 Z" id="Fill-33" fill="#FDD204" sketch:type="MSShapeGroup"></path>
                        <path d="M46.1353808,38.5257683 L45.8214838,37.2493922 L44.9774957,38.1204046 L44.7613017,36.9521255 L43.6948833,37.6277317 L43.432956,36.4428224 L42.2501254,37.0893255 L42.2750709,35.8420526 L40.9924585,36.3659072 L41.046507,35.1768403 L39.8553613,35.5385495 L39.8304158,34.3869007 L38.7411307,34.6779311 L38.847149,33.6364581 L37.7807305,33.7403976 L37.8576457,32.6822943 L36.7330212,32.8964095 L37.088494,31.5618274 C37.1030455,31.5057001 37.1633304,31.4745183 37.2173789,31.4890698 C37.2735062,31.5036213 37.3067668,31.5597486 37.2922153,31.6158759 L37.019894,32.6282458 L38.0883912,32.4266033 L38.0073185,33.5075733 L39.082052,33.4036338 L38.9801914,34.3972947 L40.0299795,34.1145795 L40.0570038,35.257913 L41.2668586,34.8899675 L41.2169676,36.0478526 L42.4891861,35.5281555 L42.4642406,36.7338527 L43.5743136,36.1268466 L43.8341621,37.2930468 L44.9088957,36.6112042 L45.1084594,37.6859378 L45.9358171,36.8336346 L46.2497142,38.116247 L47.0833083,37.2805741 C47.1248841,37.2410771 47.1893265,37.2410771 47.2288235,37.2805741 C47.272478,37.3221498 47.272478,37.3886711 47.2288235,37.4302468 L46.1353808,38.5257683 Z" id="Fill-35" fill="#FDD204" sketch:type="MSShapeGroup"></path>
                        <path d="M49.2940997,38.3775507 L48.2235237,37.3880474 C48.1840267,37.3485504 48.1798691,37.284108 48.2193661,37.2404535 C48.2588631,37.1988777 48.3233055,37.1967989 48.3669601,37.2342171 L49.1776875,37.9846597 L49.4791118,36.7768837 L50.5517666,37.3152898 L50.518506,36.1511684 L51.7221244,36.5981079 L51.5828456,35.3757803 L52.6305549,35.7956956 L52.5286943,34.6087074 L53.5951127,34.8145075 L53.3893127,33.6462284 L54.6968705,33.7834285 L54.3621856,32.5070524 L55.5408586,32.1952342 L55.1604403,30.88144 L56.3287194,30.4365793 L55.7695253,29.2890881 L56.7569498,28.9149062 L56.0023496,27.9170878 L57.0334286,27.384918 L55.9815617,26.6718936 L57.1664711,25.7572267 L55.8298102,25.2208994 L56.7278467,23.8052445 L55.1375737,23.3208868 L55.763289,22.0736138 L54.3517917,21.6952744 L54.8257554,20.3752438 L53.4932521,20.4085044 L53.7343915,19.1321284 L52.4517791,19.2755647 L52.934058,18.0012675 L51.6514456,18.2361706 L51.8260639,17.013843 L50.5496878,17.1905401 L50.8552697,16.1719338 L49.6558089,16.5066187 L49.6225482,15.167879 L48.8762632,15.6563943 C48.8263723,15.6875761 48.7619299,15.6771822 48.730748,15.6272912 C48.6995662,15.5794791 48.7141177,15.5150367 48.7598511,15.4817761 L49.8241907,14.7874608 L49.8574513,16.2342974 L51.1629304,15.8705095 L50.842797,16.9390067 L52.0713609,16.768546 L51.8988215,17.9804796 L53.2604278,17.7289462 L52.767755,19.0302677 L53.9921613,18.8951465 L53.7447855,20.1923104 L55.1251009,20.156971 L54.6241129,21.551838 L56.066792,21.9384926 L55.4369192,23.1940807 L57.0500589,23.6846748 L56.1395496,25.1190387 L57.5822287,25.6969419 L56.3370345,26.6614997 L57.4408711,27.4098635 L56.3183254,27.9898454 L57.0895559,29.0105305 L56.0584769,29.4034215 L56.6135134,30.5509126 L55.4140525,31.0082461 L55.8007071,32.3407494 L54.6157978,32.6546464 L54.9733494,34.0224891 L53.6429249,33.8811315 L53.8508037,35.0785136 L52.7594398,34.8664772 L52.8675368,36.115829 L51.8302214,35.6979925 L51.9674215,36.9120049 L50.7347,36.4546715 L50.7721182,37.6562111 L49.6183907,37.0803868 L49.2940997,38.3775507 Z" id="Fill-37" fill="#FDD204" sketch:type="MSShapeGroup"></path>
                        <mask id="mask-5" sketch:name="Clip 40" fill="white">
                            <use xlink:href="#path-4"></use>
                        </mask>
                        <g id="Clip-40"></g>
                        <path d="M35.570147,52.5143507 L37.8900748,52.5143507 L37.8900748,46.903701 L35.570147,46.903701 L35.570147,52.5143507 Z" id="Fill-39" fill="#E4BD21" sketch:type="MSShapeGroup" mask="url(#mask-5)"></path>
                        <path d="M74.290282,24.1598858 C74.506476,18.746721 70.8062328,17.1959449 66.5488743,17.1959449 C62.2935946,17.1959449 57.2650056,20.2891819 53.3943018,26.868547 C49.5256767,33.4458332 47.7379187,34.9924518 42.5617358,34.9924518 C29.9871452,34.9924518 32.1386911,24.1619646 22.054489,24.1619646 L12.7664627,24.1619646 C9.2844923,24.1619646 10.3030986,25.974668 10.3030986,27.2801471 C10.3030986,30.1800568 12.6417354,30.3442811 16.5602514,30.3442811 C22.2498951,30.3442811 22.3455193,48.5357577 35.6934192,48.5357577 L52.8143198,48.5357577 C60.9403034,48.5357577 66.7442804,42.7317807 69.6462689,38.0877676 C72.3299846,33.7971485 74.0948759,28.9972262 74.290282,24.1598858" id="Fill-41" fill="#E54937" sketch:type="MSShapeGroup" mask="url(#mask-5)"></path>
                        <path d="M7.05852576,29.529396 C7.05852576,29.9825719 7.42855008,30.3505174 7.88172594,30.3505174 L22.1941836,30.3505174 C22.6473594,30.3505174 23.0173837,29.9825719 23.0173837,29.529396 L23.0173837,24.983086 C23.0173837,24.5278313 22.6473594,24.1619646 22.1941836,24.1619646 L7.88172594,24.1619646 C7.42855008,24.1619646 7.05852576,24.5278313 7.05852576,24.983086 L7.05852576,29.529396 Z" id="Fill-42" fill="#E54937" sketch:type="MSShapeGroup" mask="url(#mask-5)"></path>
                        <path d="M42.4792079,36.1372405 C46.4185118,36.1372405 49.6884458,35.5759676 53.0789496,30.0775725 C56.6045746,24.3588258 60.2507693,18.4488306 66.5494979,18.4488306 C67.2417344,18.4488306 67.8030073,17.8875578 67.8030073,17.1953213 C67.8030073,16.5051635 67.2417344,15.9438907 66.5494979,15.9438907 C58.8517448,15.9438907 54.6505136,22.75608 50.944034,28.7637783 C47.8799,33.7341612 45.4352449,33.6905066 41.0095046,33.6156703 C40.4544681,33.6052763 39.8786437,33.5948824 39.2799527,33.5948824 C36.1492975,33.5948824 33.3013575,30.3062392 31.0126115,27.6640993 C29.8048355,26.2692323 28.7633625,25.0656139 27.7530714,24.406638 C25.2252648,22.7540013 22.3773248,22.8309164 19.3630817,22.914068 C18.7082634,22.9306983 18.0409724,22.9494074 17.3632874,22.9494074 L7.76344288,22.9494074 C7.07120637,22.9494074 6.50993352,23.5106802 6.50993352,24.2029167 C6.50993352,24.8930744 7.07120637,25.4543473 7.76344288,25.4543473 L17.3632874,25.4543473 C18.063839,25.4543473 18.7539968,25.4356382 19.4316818,25.4169291 C22.159052,25.3441715 24.5101616,25.2776503 26.3852287,26.5041354 C27.1003319,26.969784 28.0794412,28.1048024 29.1188353,29.3042633 C31.7422662,32.3309791 35.0038851,36.0998223 39.2799527,36.0998223 C39.8620134,36.0998223 40.4253651,36.1102162 40.9637712,36.1185314 C41.4813895,36.1289253 41.9865351,36.1372405 42.4792079,36.1372405" id="Fill-43" fill="#FEFEFE" sketch:type="MSShapeGroup" mask="url(#mask-5)"></path>
                        <path d="M10.7371496,54.0484965 L64.186955,54.0484965 C64.9893673,54.0484965 65.6379493,53.3999145 65.6379493,52.5975022 C65.6379493,51.7971687 64.9893673,51.146508 64.186955,51.146508 L10.7371496,51.146508 C6.41742744,51.146508 2.90219638,47.6312769 2.90219638,43.3115548 C2.90219638,38.9918326 6.41742744,35.4766016 10.7371496,35.4766016 C13.5830108,35.4766016 16.2085205,37.0232201 17.5929935,39.5136085 C17.9817269,40.2141602 18.8652119,40.4656935 19.5636848,40.0769601 C20.2663153,39.6882267 20.5178487,38.8047417 20.1291152,38.10419 C18.2332603,34.6928984 14.6348777,32.5746131 10.7371496,32.5746131 C4.81676043,32.5746131 0.000207878833,37.3911656 0.000207878833,43.3115548 C0.000207878833,49.2319439 4.81676043,54.0484965 10.7371496,54.0484965" id="Fill-44" fill="#FDD204" sketch:type="MSShapeGroup" mask="url(#mask-5)"></path>
                    </g>
                </g>
            </g>
        </g>
    </g>
</svg>