<?xml version="1.0" encoding="UTF-8" standalone="no"?>
<svg width="115px" height="124px" viewBox="0 0 115 124" version="1.1" xmlns="http://www.w3.org/2000/svg" xmlns:xlink="http://www.w3.org/1999/xlink" xmlns:sketch="http://www.bohemiancoding.com/sketch/ns">
    <!-- Generator: Sketch 3.4.3 (16618) - http://www.bohemiancoding.com/sketch -->
    <title>snowman</title>
    <desc>Created with Sketch.</desc>
    <defs>
        <linearGradient x1="62.4910119%" y1="81.7114186%" x2="36.1942945%" y2="37.8758939%" id="linearGradient-1">
            <stop stop-color="#2C313B" stop-opacity="0" offset="0%"></stop>
            <stop stop-color="#000000" offset="100%"></stop>
        </linearGradient>
        <path id="path-2" d="M0,1.37823077 L81.9526923,1.37823077 L81.9526923,82 L0,82"></path>
        <path id="path-4" d="M0,1.37823077 L81.9526923,1.37823077 L81.9526923,82 L0,82"></path>
    </defs>
    <g id="v4" stroke="none" stroke-width="1" fill="none" fill-rule="evenodd" sketch:type="MSPage">
        <g id="Artboard-1" sketch:type="MSArtboardGroup" transform="translate(-1043.000000, -426.000000)">
            <g id="snowman" sketch:type="MSLayerGroup" transform="translate(1043.000000, 425.000000)">
                <path d="M17.0022011,68.2770081 L26.0563597,34.2045784 C26.0563597,34.2045784 34.6206582,18.6999604 42.6803639,14.3963361 C50.7400696,10.0927117 52.3314247,8.95385478 52.3314247,8.95385478 L141.558598,128.554013 L69.8412829,128.554014 L17.0022011,68.2770081 Z" id="Rectangle-5-Copy" opacity="0.15" fill="url(#linearGradient-1)" sketch:type="MSShapeGroup"></path>
                <g id="Snowman">
                    <path d="M67.6118385,55.3679769 C67.6118385,70.0775154 55.6871462,81.9990538 40.9776077,81.9990538 C26.2680692,81.9990538 14.3402231,70.0775154 14.3402231,55.3679769 C14.3402231,40.6584385 26.2680692,28.7337462 40.9776077,28.7337462 C55.6871462,28.7337462 67.6118385,40.6584385 67.6118385,55.3679769" id="Fill-1" fill="#E6E7E7" sketch:type="MSShapeGroup"></path>
                    <path d="M61.2057462,49.9395769 C61.2057462,43.5530385 59.0390538,37.6774231 55.4121308,32.9908077 C51.2490538,30.3005769 46.2975154,28.7331154 40.9769769,28.7331154 C26.2674385,28.7331154 14.3427462,40.6578077 14.3427462,55.3673462 C14.3427462,63.7281923 18.1935923,71.1870385 24.2205923,76.0691923 C27.1189769,77.0941923 30.2381308,77.6587308 33.4834385,77.6587308 C48.7922077,77.6587308 61.2057462,65.2483462 61.2057462,49.9395769" id="Fill-3" fill="#F0F1F1" sketch:type="MSShapeGroup"></path>
                    <path d="M57.4760077,26.4891538 C57.4760077,35.6037692 50.0897,42.9900769 40.9782385,42.9900769 C31.8636231,42.9900769 24.4741615,35.6037692 24.4741615,26.4891538 C24.4741615,17.3776923 31.8636231,9.98823077 40.9782385,9.98823077 C50.0897,9.98823077 57.4760077,17.3776923 57.4760077,26.4891538" id="Fill-5" fill="#D34B3A" sketch:type="MSShapeGroup"></path>
                    <path d="M57.4760077,43.8230077 C57.4760077,45.6806231 55.9684692,47.1881615 54.1140077,47.1881615 C52.2532385,47.1881615 50.7457,45.6806231 50.7457,43.8230077 L50.7457,28.6246231 C50.7457,26.7670077 52.2532385,25.2594692 54.1140077,25.2594692 C55.9684692,25.2594692 57.4760077,26.7670077 57.4760077,28.6246231 L57.4760077,43.8230077 Z" id="Fill-7" fill="#D34B3A" sketch:type="MSShapeGroup"></path>
                    <path d="M57.4760077,21.4966154 C57.4760077,30.6112308 50.0897,37.9975385 40.9782385,37.9975385 C31.8636231,37.9975385 24.4741615,30.6112308 24.4741615,21.4966154 C24.4741615,12.3851538 31.8636231,4.99569231 40.9782385,4.99569231 C50.0897,4.99569231 57.4760077,12.3851538 57.4760077,21.4966154" id="Fill-9" fill="#E6E7E7" sketch:type="MSShapeGroup"></path>
                    <path d="M55.1598231,17.1537692 C55.1598231,15.334 54.8885923,13.5836154 54.3997462,11.9246923 C51.4099,7.73638462 46.5182846,4.99569231 40.9769769,4.99569231 C31.8623615,4.99569231 24.4729,12.3851538 24.4729,21.4966154 C24.4729,27.0379231 27.2167462,31.9295385 31.4050538,34.9193846 C33.0639769,35.4082308 34.8175154,35.6826154 36.6341308,35.6826154 C46.8652077,35.6826154 55.1598231,27.3848462 55.1598231,17.1537692" id="Fill-11" fill="#F0F1F1" sketch:type="MSShapeGroup"></path>
                    <path d="M37.6134,17.4432923 C37.6134,18.5408308 36.7240154,19.4333692 35.6201692,19.4333692 C34.5226308,19.4333692 33.6300923,18.5408308 33.6300923,17.4432923 C33.6300923,16.3426 34.5226308,15.4532154 35.6201692,15.4532154 C36.7240154,15.4532154 37.6134,16.3426 37.6134,17.4432923" id="Fill-13" fill="#474D5B" sketch:type="MSShapeGroup"></path>
                    <path d="M48.3222846,17.4432923 C48.3222846,18.5408308 47.4297462,19.4333692 46.3259,19.4333692 C45.2315154,19.4333692 44.3389769,18.5408308 44.3389769,17.4432923 C44.3389769,16.3426 45.2315154,15.4532154 46.3259,15.4532154 C47.4297462,15.4532154 48.3222846,16.3426 48.3222846,17.4432923" id="Fill-15" fill="#474D5B" sketch:type="MSShapeGroup"></path>
                    <path d="M41.1400308,50.3306538 C39.6419538,50.3306538 38.4308769,49.1195769 38.4308769,47.6215 C38.4308769,46.1265769 39.6419538,44.9123462 41.1400308,44.9123462 C42.6381077,44.9123462 43.8460308,46.1265769 43.8460308,47.6215 C43.8460308,49.1195769 42.6381077,50.3306538 41.1400308,50.3306538" id="Fill-17" fill="#D1D2D4" sketch:type="MSShapeGroup"></path>
                    <path d="M41.1400308,59.0977154 C39.6419538,59.0977154 38.4308769,57.8834846 38.4308769,56.3885615 C38.4308769,54.8904846 39.6419538,53.6794077 41.1400308,53.6794077 C42.6381077,53.6794077 43.8460308,54.8904846 43.8460308,56.3885615 C43.8460308,57.8834846 42.6381077,59.0977154 41.1400308,59.0977154" id="Fill-19" fill="#D1D2D4" sketch:type="MSShapeGroup"></path>
                    <path d="M40.8136077,50.0783462 C39.3186846,50.0783462 38.1044538,48.8672692 38.1044538,47.3660385 C38.1044538,45.8742692 39.3186846,44.6600385 40.8136077,44.6600385 C42.3116846,44.6600385 43.5227615,45.8742692 43.5227615,47.3660385 C43.5227615,48.8672692 42.3116846,50.0783462 40.8136077,50.0783462" id="Fill-21" fill="#FEFEFE" sketch:type="MSShapeGroup"></path>
                    <path d="M40.8136077,58.8450923 C39.3186846,58.8450923 38.1044538,57.6308615 38.1044538,56.1359385 C38.1044538,54.6378615 39.3186846,53.4267846 40.8136077,53.4267846 C42.3116846,53.4267846 43.5227615,54.6378615 43.5227615,56.1359385 C43.5227615,57.6308615 42.3116846,58.8450923 40.8136077,58.8450923" id="Fill-23" fill="#FEFEFE" sketch:type="MSShapeGroup"></path>
                    <path d="M40.8413615,32.2793 C38.3939769,32.2793 36.1326692,31.1628385 34.6377462,29.2200692 C34.4926692,29.0276846 34.5273615,28.7564538 34.7197462,28.6082231 C34.9089769,28.4663 35.1833615,28.4978385 35.3252846,28.6902231 C36.6562077,30.4185308 38.6620538,31.4119923 40.8413615,31.4119923 C43.1562846,31.4119923 45.3135154,30.2608385 46.6097462,28.3401462 C46.7453615,28.1414538 47.0134385,28.0909923 47.2121308,28.2203 C47.4108231,28.3559154 47.4644385,28.6271462 47.3319769,28.8258385 C45.8717462,30.9862231 43.4464385,32.2793 40.8413615,32.2793" id="Fill-25" fill="#D1D2D4" sketch:type="MSShapeGroup"></path>
                    <g id="Group-29">
                        <mask id="mask-3" sketch:name="Clip 28" fill="white">
                            <use xlink:href="#path-2"></use>
                        </mask>
                        <g id="Clip-28"></g>
                        <path d="M42.3318692,6.79748462 L42.3034846,6.79748462 C42.0637923,6.78171538 41.8840231,6.57356154 41.8997923,6.33386923 L42.1994077,1.78602308 C42.2151769,1.54633077 42.4075615,1.3571 42.6630231,1.37917692 C42.9027154,1.3981 43.0824846,1.6031 43.0667154,1.84279231 L42.7671,6.39063846 C42.7513308,6.62086923 42.5589462,6.79748462 42.3318692,6.79748462" id="Fill-27" fill="#A87B4F" sketch:type="MSShapeGroup" mask="url(#mask-3)"></path>
                    </g>
                    <path d="M42.5075385,4.7109 C42.4255385,4.7109 42.3340769,4.68566923 42.2583846,4.63205385 C42.0628462,4.49328462 42.0186923,4.22205385 42.1543077,4.02651538 L43.7943077,1.70843846 C43.9362308,1.5129 44.2074615,1.46874615 44.403,1.60436154 C44.5985385,1.74628462 44.6458462,2.01436154 44.5070769,2.2099 L42.8639231,4.52797692 C42.7787692,4.64782308 42.6463077,4.7109 42.5075385,4.7109" id="Fill-30" fill="#A87B4F" sketch:type="MSShapeGroup"></path>
                    <path d="M40.6502385,6.78676154 C40.4357769,6.78676154 40.2465462,6.62276154 40.2213154,6.40199231 L39.6851615,1.87622308 C39.6599308,1.63968462 39.8270846,1.42206923 40.0636231,1.39368462 C40.2970077,1.35899231 40.5209308,1.53560769 40.5461615,1.7753 L41.0854692,6.30106923 C41.1107,6.54076154 40.9435462,6.75522308 40.7070077,6.78360769 C40.6849308,6.78360769 40.6691615,6.78676154 40.6502385,6.78676154" id="Fill-32" fill="#A87B4F" sketch:type="MSShapeGroup"></path>
                    <path d="M42.7106462,21.8599385 C42.7106462,22.8187077 41.9348,23.5977077 40.9728769,23.5977077 C40.0172615,23.5977077 39.2414154,22.8187077 39.2414154,21.8599385 C39.2414154,20.9011692 40.0172615,20.1253231 40.9728769,20.1253231 C41.9348,20.1253231 42.7106462,20.9011692 42.7106462,21.8599385" id="Fill-34" fill="#F0582F" sketch:type="MSShapeGroup"></path>
                    <path d="M39.3382385,22.4358308 L40.9750846,27.2706769 L42.6119308,22.4389846 L39.3382385,22.4358308 Z" id="Fill-36" fill="#F0582F" sketch:type="MSShapeGroup"></path>
                    <path d="M22.5001692,43.0175154 C22.5001692,43.9258231 21.7684769,44.6606692 20.8601692,44.6606692 C19.9518615,44.6606692 19.2170154,43.9258231 19.2170154,43.0175154 C19.2170154,42.1092077 19.9518615,41.3743615 20.8601692,41.3743615 C21.7684769,41.3743615 22.5001692,42.1092077 22.5001692,43.0175154" id="Fill-38" fill="#BBBDBF" sketch:type="MSShapeGroup"></path>
                    <path d="M62.6688154,43.0175154 C62.6688154,43.9258231 61.9339692,44.6606692 61.0256615,44.6606692 C60.1142,44.6606692 59.3825077,43.9258231 59.3825077,43.0175154 C59.3825077,42.1092077 60.1142,41.3743615 61.0256615,41.3743615 C61.9339692,41.3743615 62.6688154,42.1092077 62.6688154,43.0175154" id="Fill-40" fill="#BBBDBF" sketch:type="MSShapeGroup"></path>
                    <g id="Group-44">
                        <mask id="mask-5" sketch:name="Clip 43" fill="white">
                            <use xlink:href="#path-4"></use>
                        </mask>
                        <g id="Clip-43"></g>
                        <path d="M20.8248462,44.2941923 C20.6103846,44.2941923 20.3896154,44.2374231 20.1877692,44.1270385 L0.662307692,33.1011923 C0.0346923077,32.7479615 -0.186076923,31.9531923 0.170307692,31.3255769 C0.523538462,30.7011154 1.31515385,30.4803462 1.94592308,30.8304231 L21.4682308,41.8562692 C22.0958462,42.2095 22.3166154,43.0042692 21.9602308,43.6318846 C21.7205385,44.0545 21.2821538,44.2941923 20.8248462,44.2941923" id="Fill-42" fill="#A87B4F" sketch:type="MSShapeGroup" mask="url(#mask-5)"></path>
                    </g>
                    <path d="M6.71264615,36.1137462 C6.17333846,36.1137462 5.67187692,35.7794385 5.48264615,35.2401308 L3.17087692,28.5823615 C2.93118462,27.9011308 3.29072308,27.1599769 3.97195385,26.9234385 C4.65003077,26.6869 5.39433846,27.0464385 5.63087692,27.7245154 L7.9458,34.3822846 C8.18233846,35.0635154 7.82595385,35.8046692 7.14472308,36.0412077 C7.0028,36.0916692 6.85772308,36.1137462 6.71264615,36.1137462" id="Fill-45" fill="#A87B4F" sketch:type="MSShapeGroup"></path>
                    <path d="M61.1256385,44.2941923 C60.6746385,44.2941923 60.2299462,44.0545 59.9902538,43.6318846 C59.6338692,43.0042692 59.8546385,42.2095 60.4854077,41.8562692 L80.0045615,30.8304231 C80.6321769,30.4803462 81.4269462,30.6979615 81.7833308,31.3255769 C82.1365615,31.9531923 81.9189462,32.7479615 81.2881769,33.1011923 L61.7658692,44.1270385 C61.5640231,44.2374231 61.3401,44.2941923 61.1256385,44.2941923" id="Fill-47" fill="#A87B4F" sketch:type="MSShapeGroup"></path>
                    <path d="M75.2378385,36.1137462 C75.0959154,36.1137462 74.9476846,36.0916692 74.8089154,36.0412077 C74.1276846,35.8046692 73.7713,35.0635154 74.0046846,34.3822846 L76.3227615,27.7245154 C76.5593,27.0464385 77.2973,26.6837462 77.9816846,26.9234385 C78.6597615,27.1599769 79.0193,27.9011308 78.7827615,28.5823615 L76.4678385,35.2401308 C76.2817615,35.7794385 75.7771462,36.1137462 75.2378385,36.1137462" id="Fill-49" fill="#A87B4F" sketch:type="MSShapeGroup"></path>
                </g>
            </g>
        </g>
    </g>
</svg>