<?xml version="1.0" encoding="utf-8"?>
<!-- Generator: Adobe Illustrator 19.0.0, SVG Export Plug-In . SVG Version: 6.00 Build 0)  -->
<svg version="1.1" id="Ebene_1" xmlns="http://www.w3.org/2000/svg" xmlns:xlink="http://www.w3.org/1999/xlink" x="0px" y="0px"
	 viewBox="0 0 46 48" style="enable-background:new 0 0 46 48;" xml:space="preserve">
<style type="text/css">
	.st0{clip-path:url(#SVGID_2_);}
	.st1{clip-path:url(#SVGID_4_);fill:#FFFFFF;}
	.st2{clip-path:url(#SVGID_6_);}
	.st3{clip-path:url(#SVGID_8_);fill:#FFFFFF;}
	.st4{clip-path:url(#SVGID_10_);}
	.st5{clip-path:url(#SVGID_12_);fill:#FFFFFF;}
	.st6{clip-path:url(#SVGID_14_);}
	.st7{clip-path:url(#SVGID_16_);fill:#FFFFFF;}
	.st8{clip-path:url(#SVGID_18_);}
	.st9{clip-path:url(#SVGID_20_);fill:#FFFFFF;}
	.st10{clip-path:url(#SVGID_22_);}
	.st11{clip-path:url(#SVGID_24_);fill:#FFFFFF;}
	.st12{clip-path:url(#SVGID_26_);}
	.st13{clip-path:url(#SVGID_28_);fill:#FFFFFF;}
	.st14{clip-path:url(#SVGID_30_);}
	.st15{clip-path:url(#SVGID_32_);fill:#FFFFFF;}
	.st16{clip-path:url(#SVGID_34_);}
	.st17{clip-path:url(#SVGID_36_);fill:#FFFFFF;}
</style>
<g>
	<defs>
		<path id="SVGID_1_" d="M23,0c-0.3,0-0.5,0.1-0.7,0.3C22.1,0.5,22,0.7,22,1v46c0,0.4,0.2,0.7,0.5,0.9c0.3,0.2,0.7,0.2,1,0
			c0.3-0.2,0.5-0.5,0.5-0.9V1c0-0.3-0.1-0.5-0.3-0.7C23.5,0.1,23.3,0,23,0z"/>
	</defs>
	<clipPath id="SVGID_2_">
		<use xlink:href="#SVGID_1_"  style="overflow:visible;"/>
	</clipPath>
	<g class="st0">
		<defs>
			<rect id="SVGID_3_" x="-972" y="-547" width="1280" height="2100"/>
		</defs>
		<clipPath id="SVGID_4_">
			<use xlink:href="#SVGID_3_"  style="overflow:visible;"/>
		</clipPath>
		<rect x="17" y="-5" class="st1" width="12" height="58"/>
	</g>
</g>
<g>
	<defs>
		<path id="SVGID_5_" d="M16,1c-0.4,0-0.8,0.3-1,0.7c-0.1,0.4,0,0.9,0.4,1.1l7,5c0.3,0.2,0.8,0.2,1.2,0l7-5C30.9,2.6,31,2.3,31,1.9
			c0-0.4-0.3-0.7-0.6-0.8c-0.3-0.1-0.7-0.1-1,0.1L23,5.8l-6.4-4.6C16.4,1.1,16.2,1,16,1z"/>
	</defs>
	<clipPath id="SVGID_6_">
		<use xlink:href="#SVGID_5_"  style="overflow:visible;"/>
	</clipPath>
	<g class="st2">
		<defs>
			<rect id="SVGID_7_" x="-972" y="-547" width="1280" height="2100"/>
		</defs>
		<clipPath id="SVGID_8_">
			<use xlink:href="#SVGID_7_"  style="overflow:visible;"/>
		</clipPath>
		<rect x="10" y="-4" class="st3" width="26" height="17"/>
	</g>
</g>
<g>
	<defs>
		<path id="SVGID_9_" d="M23,40c-0.2,0-0.4,0.1-0.6,0.2l-7,5c-0.4,0.3-0.6,0.9-0.2,1.4c0.3,0.4,0.9,0.6,1.4,0.2l6.4-4.6l6.4,4.6
			c0.4,0.3,1.1,0.2,1.4-0.2s0.2-1.1-0.2-1.4l-7-5C23.4,40.1,23.2,40,23,40z"/>
	</defs>
	<clipPath id="SVGID_10_">
		<use xlink:href="#SVGID_9_"  style="overflow:visible;"/>
	</clipPath>
	<g class="st4">
		<defs>
			<rect id="SVGID_11_" x="-972" y="-547" width="1280" height="2100"/>
		</defs>
		<clipPath id="SVGID_12_">
			<use xlink:href="#SVGID_11_"  style="overflow:visible;"/>
		</clipPath>
		<rect x="10" y="35" class="st5" width="26" height="17"/>
	</g>
</g>
<g>
	<defs>
		<path id="SVGID_13_" d="M43,11c-0.2,0-0.4,0-0.5,0.2l-40,24C2.2,35.3,2,35.7,2,36c0,0.4,0.2,0.7,0.5,0.9c0.3,0.2,0.7,0.2,1,0
			l40-24c0.4-0.2,0.6-0.7,0.5-1.1C43.9,11.3,43.5,11,43,11z"/>
	</defs>
	<clipPath id="SVGID_14_">
		<use xlink:href="#SVGID_13_"  style="overflow:visible;"/>
	</clipPath>
	<g class="st6">
		<defs>
			<rect id="SVGID_15_" x="-972" y="-547" width="1280" height="2100"/>
		</defs>
		<clipPath id="SVGID_16_">
			<use xlink:href="#SVGID_15_"  style="overflow:visible;"/>
		</clipPath>
		<rect x="-3" y="6" class="st7" width="52" height="36"/>
	</g>
</g>
<g>
	<defs>
		<path id="SVGID_17_" d="M1,28c-0.5,0-0.9,0.3-1,0.8c-0.1,0.5,0.1,0.9,0.6,1.1l7.3,3.2l-0.8,7.7c0,0.4,0.1,0.7,0.4,0.9
			c0.3,0.2,0.7,0.2,1,0.1c0.3-0.1,0.5-0.5,0.6-0.8l0.8-8.5c0-0.4-0.2-0.8-0.6-1l-8-3.5C1.3,28,1.2,28,1,28L1,28z"/>
	</defs>
	<clipPath id="SVGID_18_">
		<use xlink:href="#SVGID_17_"  style="overflow:visible;"/>
	</clipPath>
	<g class="st8">
		<defs>
			<rect id="SVGID_19_" x="-972" y="-547" width="1280" height="2100"/>
		</defs>
		<clipPath id="SVGID_20_">
			<use xlink:href="#SVGID_19_"  style="overflow:visible;"/>
		</clipPath>
		<rect x="-5" y="23" class="st9" width="20" height="24"/>
	</g>
</g>
<g>
	<defs>
		<path id="SVGID_21_" d="M37.8,6c-0.5,0-0.9,0.4-1,0.9L36,15.4c0,0.4,0.2,0.8,0.6,1l8,3.5c0.3,0.2,0.7,0.1,1-0.1
			c0.3-0.2,0.4-0.6,0.4-0.9c0-0.4-0.3-0.7-0.6-0.8l-7.3-3.2l0.8-7.7c0-0.3-0.1-0.6-0.3-0.8C38.4,6.1,38.1,6,37.8,6z"/>
	</defs>
	<clipPath id="SVGID_22_">
		<use xlink:href="#SVGID_21_"  style="overflow:visible;"/>
	</clipPath>
	<g class="st10">
		<defs>
			<rect id="SVGID_23_" x="-972" y="-547" width="1280" height="2100"/>
		</defs>
		<clipPath id="SVGID_24_">
			<use xlink:href="#SVGID_23_"  style="overflow:visible;"/>
		</clipPath>
		<rect x="31" y="1" class="st11" width="20" height="24"/>
	</g>
</g>
<g>
	<defs>
		<path id="SVGID_25_" d="M3,11c-0.4,0-0.8,0.3-0.9,0.8c-0.1,0.4,0.1,0.9,0.5,1.1l40,24c0.3,0.2,0.7,0.2,1,0
			c0.3-0.2,0.5-0.5,0.5-0.9c0-0.4-0.2-0.7-0.5-0.9l-40-24C3.4,11,3.2,11,3,11z"/>
	</defs>
	<clipPath id="SVGID_26_">
		<use xlink:href="#SVGID_25_"  style="overflow:visible;"/>
	</clipPath>
	<g class="st12">
		<defs>
			<rect id="SVGID_27_" x="-972" y="-547" width="1280" height="2100"/>
		</defs>
		<clipPath id="SVGID_28_">
			<use xlink:href="#SVGID_27_"  style="overflow:visible;"/>
		</clipPath>
		<rect x="-3" y="6" class="st13" width="52" height="36"/>
	</g>
</g>
<g>
	<defs>
		<path id="SVGID_29_" d="M8.1,6C7.9,6,7.6,6.1,7.4,6.3C7.2,6.6,7.1,6.8,7.2,7.1l0.8,7.7l-7.3,3.2C0.3,18.2,0,18.5,0,18.9
			s0.1,0.7,0.4,0.9c0.3,0.2,0.7,0.2,1,0.1l8-3.5c0.4-0.2,0.6-0.6,0.6-1L9.1,6.9C9.1,6.4,8.7,6,8.1,6z"/>
	</defs>
	<clipPath id="SVGID_30_">
		<use xlink:href="#SVGID_29_"  style="overflow:visible;"/>
	</clipPath>
	<g class="st14">
		<defs>
			<rect id="SVGID_31_" x="-972" y="-547" width="1280" height="2100"/>
		</defs>
		<clipPath id="SVGID_32_">
			<use xlink:href="#SVGID_31_"  style="overflow:visible;"/>
		</clipPath>
		<rect x="-5" y="1" class="st15" width="20" height="24"/>
	</g>
</g>
<g>
	<defs>
		<path id="SVGID_33_" d="M44.9,28c-0.1,0-0.2,0-0.4,0.1l-8,3.5c-0.4,0.2-0.6,0.6-0.6,1l0.8,8.5c0,0.4,0.3,0.7,0.6,0.8
			c0.3,0.1,0.7,0.1,1-0.1c0.3-0.2,0.4-0.6,0.4-0.9l-0.8-7.7l7.3-3.2c0.4-0.2,0.7-0.7,0.6-1.2C45.9,28.3,45.4,28,44.9,28L44.9,28z"/>
	</defs>
	<clipPath id="SVGID_34_">
		<use xlink:href="#SVGID_33_"  style="overflow:visible;"/>
	</clipPath>
	<g class="st16">
		<defs>
			<rect id="SVGID_35_" x="-972" y="-547" width="1280" height="2100"/>
		</defs>
		<clipPath id="SVGID_36_">
			<use xlink:href="#SVGID_35_"  style="overflow:visible;"/>
		</clipPath>
		<rect x="31" y="23" class="st17" width="20" height="24"/>
	</g>
</g>
</svg>
