<?xml version="1.0" encoding="UTF-8" standalone="no"?>
<svg width="988px" height="793px" viewBox="0 0 988 793" version="1.1" xmlns="http://www.w3.org/2000/svg" xmlns:xlink="http://www.w3.org/1999/xlink" xmlns:sketch="http://www.bohemiancoding.com/sketch/ns">
    <!-- Generator: Sketch 3.4.3 (16618) - http://www.bohemiancoding.com/sketch -->
    <title>Group</title>
    <desc>Created with Sketch.</desc>
    <defs>
        <path id="path-1" d="M0,0.415153631 L71.3642705,0.415153631 L71.3642705,67.7019768 L0,67.7019768 L0,0.415153631 Z"></path>
    </defs>
    <g id="v4" stroke="none" stroke-width="1" fill="none" fill-rule="evenodd" sketch:type="MSPage">
        <g id="Artboard-1" sketch:type="MSArtboardGroup" transform="translate(-126.000000, -90.000000)">
            <g id="Group" sketch:type="MSLayerGroup" transform="translate(114.000000, 77.000000)">
                <path d="M24.6097792,177.894531 L24.6097792,43.5058594 L356.525398,40.4511719 L999.679664,805.828125 L554.1996,805.828125 L24.6097792,177.894531 Z" id="Rectangle-5" opacity="0.15" fill="#000000" sketch:type="MSShapeGroup"></path>
                <path d="M24.848485,177.526863 L24.6097792,122.759766 L308.402351,122.759766 L908.148964,805.873047 L554.497047,805.873047 L24.848485,177.526863 Z" id="Rectangle-5-Copy" opacity="0.15" fill="#000000" sketch:type="MSShapeGroup"></path>
                <path d="M146.154,25.02 L146.118,25.02 C145.733998,25.7520037 145.254003,26.3009982 144.678,26.667 C144.101997,27.0330018 143.400004,27.216 142.572,27.216 C141.875997,27.216 141.276003,27.0840013 140.772,26.82 C140.267997,26.5559987 139.854002,26.2020022 139.53,25.758 C139.205998,25.3139978 138.966001,24.8010029 138.81,24.219 C138.653999,23.6369971 138.576,23.0280032 138.576,22.392 C138.576,21.7079966 138.659999,21.069003 138.828,20.475 C138.996001,19.880997 139.250998,19.3680022 139.593,18.936 C139.935002,18.5039978 140.363997,18.1620013 140.88,17.91 C141.396003,17.6579987 142.001997,17.532 142.698,17.532 C143.070002,17.532 143.435998,17.5829995 143.796,17.685 C144.156002,17.7870005 144.488998,17.933999 144.795,18.126 C145.101002,18.318001 145.367999,18.5579986 145.596,18.846 C145.824001,19.1340014 145.997999,19.4579982 146.118,19.818 L146.154,19.818 L146.154,14.148 L146.838,14.148 L146.838,27 L146.154,27 L146.154,25.02 Z M142.716,26.622 C143.304003,26.622 143.810998,26.5020012 144.237,26.262 C144.663002,26.0219988 145.016999,25.704002 145.299,25.308 C145.581001,24.911998 145.790999,24.4590025 145.929,23.949 C146.067001,23.4389974 146.136,22.9200026 146.136,22.392 C146.136,21.8519973 146.067001,21.3270025 145.929,20.817 C145.790999,20.3069974 145.584001,19.851002 145.308,19.449 C145.031999,19.046998 144.675002,18.7260012 144.237,18.486 C143.798998,18.2459988 143.286003,18.126 142.698,18.126 C142.085997,18.126 141.564002,18.2429988 141.132,18.477 C140.699998,18.7110012 140.343001,19.025998 140.061,19.422 C139.778999,19.818002 139.575001,20.2739974 139.449,20.79 C139.322999,21.3060026 139.26,21.8399972 139.26,22.392 C139.26,22.9320027 139.328999,23.4569974 139.467,23.967 C139.605001,24.4770025 139.814999,24.929998 140.097,25.326 C140.379001,25.722002 140.735998,26.0369988 141.168,26.271 C141.600002,26.5050012 142.115997,26.622 142.716,26.622 L142.716,26.622 Z M156.072,21.87 C156.06,21.3899976 155.976001,20.9220023 155.82,20.466 C155.663999,20.0099977 155.442001,19.6110017 155.154,19.269 C154.865999,18.9269983 154.515002,18.651001 154.101,18.441 C153.686998,18.2309989 153.216003,18.126 152.688,18.126 C152.171997,18.126 151.713002,18.2339989 151.311,18.45 C150.908998,18.6660011 150.564001,18.9509982 150.276,19.305 C149.987999,19.6590018 149.760001,20.0609977 149.592,20.511 C149.423999,20.9610022 149.322,21.4139977 149.286,21.87 L156.072,21.87 Z M149.286,22.464 C149.274,23.0040027 149.336999,23.5259975 149.475,24.03 C149.613001,24.5340025 149.825999,24.9779981 150.114,25.362 C150.402001,25.7460019 150.758998,26.0519989 151.185,26.28 C151.611002,26.5080011 152.111997,26.622 152.688,26.622 C153.564004,26.622 154.292997,26.3790024 154.875,25.893 C155.457003,25.4069976 155.831999,24.7320043 156,23.868 L156.684,23.868 C156.503999,24.9600055 156.069003,25.7909971 155.379,26.361 C154.688997,26.9310028 153.792006,27.216 152.688,27.216 C152.015997,27.216 151.422003,27.0930012 150.906,26.847 C150.389997,26.6009988 149.961002,26.2650021 149.619,25.839 C149.276998,25.4129979 149.019001,24.9150028 148.845,24.345 C148.670999,23.7749971 148.59,23.1720032 148.602,22.536 C148.59,21.8999968 148.664999,21.282003 148.827,20.682 C148.989001,20.081997 149.240998,19.5480023 149.583,19.08 C149.925002,18.6119977 150.353997,18.2370014 150.87,17.955 C151.386003,17.6729986 151.991997,17.532 152.688,17.532 C153.408004,17.532 154.031997,17.6639987 154.56,17.928 C155.088003,18.1920013 155.519998,18.5489977 155.856,18.999 C156.192002,19.4490022 156.434999,19.973997 156.585,20.574 C156.735001,21.174003 156.792,21.8039967 156.756,22.464 L149.286,22.464 Z M158.682,23.922 C158.706,24.3540022 158.801999,24.7349983 158.97,25.065 C159.138001,25.3950016 159.356999,25.6769988 159.627,25.911 C159.897001,26.1450012 160.211998,26.3219994 160.572,26.442 C160.932002,26.5620006 161.321998,26.622 161.742,26.622 C162.042002,26.622 162.362998,26.5950003 162.705,26.541 C163.047002,26.4869997 163.364999,26.3880007 163.659,26.244 C163.953001,26.0999993 164.195999,25.8990013 164.388,25.641 C164.580001,25.3829987 164.676,25.056002 164.676,24.66 C164.676,24.263998 164.586001,23.9460012 164.406,23.706 C164.225999,23.4659988 163.986002,23.2740007 163.686,23.13 C163.385999,22.9859993 163.047002,22.8720004 162.669,22.788 C162.290998,22.7039996 161.904002,22.6200004 161.508,22.536 C161.111998,22.4519996 160.722002,22.3560005 160.338,22.248 C159.953998,22.1399995 159.612002,21.9930009 159.312,21.807 C159.011999,21.6209991 158.772001,21.3750015 158.592,21.069 C158.411999,20.7629985 158.322,20.3760023 158.322,19.908 C158.322,19.4519977 158.423999,19.0710015 158.628,18.765 C158.832001,18.4589985 159.092998,18.2160009 159.411,18.036 C159.729002,17.8559991 160.085998,17.7270004 160.482,17.649 C160.878002,17.5709996 161.273998,17.532 161.67,17.532 C162.162002,17.532 162.614998,17.5859995 163.029,17.694 C163.443002,17.8020005 163.802998,17.9759988 164.109,18.216 C164.415002,18.4560012 164.654999,18.7619981 164.829,19.134 C165.003001,19.5060019 165.09,19.9559974 165.09,20.484 L164.406,20.484 C164.406,20.0639979 164.334001,19.7040015 164.19,19.404 C164.045999,19.1039985 163.854001,18.8610009 163.614,18.675 C163.373999,18.4889991 163.086002,18.3510004 162.75,18.261 C162.413998,18.1709995 162.054002,18.126 161.67,18.126 C161.357998,18.126 161.043002,18.1559997 160.725,18.216 C160.406998,18.2760003 160.122001,18.3779993 159.87,18.522 C159.617999,18.6660007 159.411001,18.8519989 159.249,19.08 C159.086999,19.3080011 159.006,19.5839984 159.006,19.908 C159.006,20.2800019 159.095999,20.5799989 159.276,20.808 C159.456001,21.0360011 159.692999,21.2189993 159.987,21.357 C160.281001,21.4950007 160.610998,21.6059996 160.977,21.69 C161.343002,21.7740004 161.711998,21.8579996 162.084,21.942 C162.540002,22.0260004 162.968998,22.1249994 163.371,22.239 C163.773002,22.3530006 164.120999,22.508999 164.415,22.707 C164.709001,22.905001 164.939999,23.1599984 165.108,23.472 C165.276001,23.7840016 165.36,24.1799976 165.36,24.66 C165.36,25.1640025 165.246001,25.5779984 165.018,25.902 C164.789999,26.2260016 164.502002,26.486999 164.154,26.685 C163.805998,26.883001 163.419002,27.0209996 162.993,27.099 C162.566998,27.1770004 162.150002,27.216 161.742,27.216 C161.213997,27.216 160.725002,27.1470007 160.275,27.009 C159.824998,26.8709993 159.432002,26.6610014 159.096,26.379 C158.759998,26.0969986 158.496001,25.752002 158.304,25.344 C158.111999,24.935998 158.01,24.4620027 157.998,23.922 L158.682,23.922 Z M167.178,16.002 L167.178,14.148 L167.862,14.148 L167.862,16.002 L167.178,16.002 Z M167.178,27 L167.178,17.748 L167.862,17.748 L167.862,27 L167.178,27 Z M177.69,17.748 L177.69,26.514 C177.69,26.6340006 177.684,26.8199987 177.672,27.072 C177.66,27.3240013 177.618,27.6029985 177.546,27.909 C177.474,28.2150015 177.357001,28.5269984 177.195,28.845 C177.032999,29.1630016 176.805001,29.4509987 176.511,29.709 C176.216999,29.9670013 175.839002,30.1739992 175.377,30.33 C174.914998,30.4860008 174.354003,30.5520001 173.694,30.528 C173.201998,30.528 172.740002,30.4770005 172.308,30.375 C171.875998,30.2729995 171.501002,30.1110011 171.183,29.889 C170.864998,29.6669989 170.607001,29.3730018 170.409,29.007 C170.210999,28.6409982 170.1,28.1880027 170.076,27.648 L170.76,27.648 C170.796,28.056002 170.897999,28.4039986 171.066,28.692 C171.234001,28.9800014 171.452999,29.2169991 171.723,29.403 C171.993001,29.5890009 172.295998,29.7239996 172.632,29.808 C172.968002,29.8920004 173.327998,29.934 173.712,29.934 C174.252003,29.934 174.707998,29.8680007 175.08,29.736 C175.452002,29.6039993 175.760999,29.433001 176.007,29.223 C176.253001,29.0129989 176.441999,28.7820013 176.574,28.53 C176.706001,28.2779987 176.805,28.0320012 176.871,27.792 C176.937,27.5519988 176.976,27.333001 176.988,27.135 C177,26.936999 177.006,26.7840005 177.006,26.676 L177.006,24.552 L176.97,24.552 C176.645998,25.2360034 176.205003,25.7579982 175.647,26.118 C175.088997,26.4780018 174.414004,26.658 173.622,26.658 C172.937997,26.658 172.347002,26.5410012 171.849,26.307 C171.350998,26.0729988 170.937002,25.7490021 170.607,25.335 C170.276998,24.9209979 170.031001,24.4380028 169.869,23.886 C169.706999,23.3339972 169.626,22.7340032 169.626,22.086 C169.626,21.4739969 169.712999,20.8920028 169.887,20.34 C170.061001,19.7879972 170.315998,19.3050021 170.652,18.891 C170.988002,18.4769979 171.404998,18.1470012 171.903,17.901 C172.401002,17.6549988 172.973997,17.532 173.622,17.532 C173.982002,17.532 174.335998,17.5799995 174.684,17.676 C175.032002,17.7720005 175.352999,17.9099991 175.647,18.09 C175.941001,18.2700009 176.201999,18.4919987 176.43,18.756 C176.658001,19.0200013 176.837999,19.3259983 176.97,19.674 L177.006,19.674 L177.006,17.748 L177.69,17.748 Z M173.622,18.126 C173.057997,18.126 172.569002,18.2399989 172.155,18.468 C171.740998,18.6960011 171.399001,18.9959981 171.129,19.368 C170.858999,19.7400019 170.655001,20.1629976 170.517,20.637 C170.378999,21.1110024 170.31,21.5939975 170.31,22.086 C170.31,22.6260027 170.378999,23.1389976 170.517,23.625 C170.655001,24.1110024 170.864999,24.5339982 171.147,24.894 C171.429001,25.2540018 171.776998,25.5389989 172.191,25.749 C172.605002,25.959001 173.081997,26.064 173.622,26.064 C174.186003,26.064 174.677998,25.9560011 175.098,25.74 C175.518002,25.5239989 175.868999,25.2300019 176.151,24.858 C176.433001,24.4859981 176.642999,24.0630024 176.781,23.589 C176.919001,23.1149976 176.988,22.6140026 176.988,22.086 C176.988,21.5699974 176.919001,21.0720024 176.781,20.592 C176.642999,20.1119976 176.433001,19.6890018 176.151,19.323 C175.868999,18.9569982 175.518002,18.6660011 175.098,18.45 C174.677998,18.2339989 174.186003,18.126 173.622,18.126 L173.622,18.126 Z M179.706,17.748 L180.39,17.748 L180.39,19.728 L180.426,19.728 C180.546001,19.3799983 180.716999,19.0710013 180.939,18.801 C181.161001,18.5309986 181.418999,18.300001 181.713,18.108 C182.007001,17.915999 182.327998,17.7720005 182.676,17.676 C183.024002,17.5799995 183.377998,17.532 183.738,17.532 C184.278003,17.532 184.736998,17.5979993 185.115,17.73 C185.493002,17.8620007 185.801999,18.0359989 186.042,18.252 C186.282001,18.4680011 186.470999,18.7109986 186.609,18.981 C186.747001,19.2510013 186.846,19.5239986 186.906,19.8 C186.966,20.0760014 187.002,20.3429987 187.014,20.601 C187.026,20.8590013 187.032,21.083999 187.032,21.276 L187.032,27 L186.348,27 L186.348,21.15 C186.348,20.9099988 186.33,20.6190017 186.294,20.277 C186.258,19.9349983 186.153001,19.6050016 185.979,19.287 C185.804999,18.9689984 185.541002,18.6960011 185.187,18.468 C184.832998,18.2399989 184.344003,18.126 183.72,18.126 C183.203997,18.126 182.739002,18.221999 182.325,18.414 C181.910998,18.606001 181.560001,18.8729983 181.272,19.215 C180.983999,19.5570017 180.765001,19.9649976 180.615,20.439 C180.464999,20.9130024 180.39,21.4319972 180.39,21.996 L180.39,27 L179.706,27 L179.706,17.748 Z M195.87,25.29 C195.87,25.4220007 195.873,25.5539993 195.879,25.686 C195.885,25.8180007 195.906,25.9379995 195.942,26.046 C195.978,26.1540005 196.038,26.2409997 196.122,26.307 C196.206,26.3730003 196.325999,26.406 196.482,26.406 C196.602001,26.406 196.769999,26.3880002 196.986,26.352 L196.986,26.928 C196.89,26.9520001 196.797,26.9699999 196.707,26.982 C196.617,26.9940001 196.524,27 196.428,27 C196.151999,27 195.933001,26.9640004 195.771,26.892 C195.608999,26.8199996 195.486,26.7240006 195.402,26.604 C195.318,26.4839994 195.261,26.3430008 195.231,26.181 C195.201,26.0189992 195.186,25.842001 195.186,25.65 L195.186,25.164 L195.15,25.164 C195.041999,25.4400014 194.886001,25.7009988 194.682,25.947 C194.477999,26.1930012 194.229001,26.411999 193.935,26.604 C193.640999,26.796001 193.308002,26.9459995 192.936,27.054 C192.563998,27.1620005 192.156002,27.216 191.712,27.216 C191.279998,27.216 190.875002,27.1710004 190.497,27.081 C190.118998,26.9909995 189.789001,26.844001 189.507,26.64 C189.224999,26.435999 189.006001,26.1690016 188.85,25.839 C188.693999,25.5089983 188.616,25.0980025 188.616,24.606 C188.616,24.0659973 188.720999,23.6250017 188.931,23.283 C189.141001,22.9409983 189.410998,22.671001 189.741,22.473 C190.071002,22.274999 190.436998,22.1340004 190.839,22.05 C191.241002,21.9659996 191.633998,21.9060002 192.018,21.87 C192.786004,21.8219998 193.382998,21.7650003 193.809,21.699 C194.235002,21.6329997 194.549999,21.5310007 194.754,21.393 C194.958001,21.2549993 195.084,21.0750011 195.132,20.853 C195.18,20.6309989 195.204,20.3280019 195.204,19.944 C195.204,19.8359995 195.168,19.683001 195.096,19.485 C195.024,19.286999 194.895001,19.086001 194.709,18.882 C194.522999,18.677999 194.262002,18.5010007 193.926,18.351 C193.589998,18.2009992 193.158003,18.126 192.63,18.126 C191.801996,18.126 191.133003,18.3359979 190.623,18.756 C190.112997,19.1760021 189.834,19.787996 189.786,20.592 L189.102,20.592 C189.15,19.5719949 189.476997,18.8070025 190.083,18.297 C190.689003,17.7869974 191.537995,17.532 192.63,17.532 C193.038002,17.532 193.433998,17.5679996 193.818,17.64 C194.202002,17.7120004 194.546998,17.8379991 194.853,18.018 C195.159002,18.1980009 195.404999,18.4439984 195.591,18.756 C195.777001,19.0680016 195.87,19.4639976 195.87,19.944 L195.87,25.29 Z M195.186,21.744 C195.053999,21.9000008 194.868001,22.0169996 194.628,22.095 C194.387999,22.1730004 194.115002,22.2299998 193.809,22.266 C193.502998,22.3020002 193.182002,22.3319999 192.846,22.356 C192.509998,22.3800001 192.174002,22.4159998 191.838,22.464 C191.021996,22.5600005 190.395002,22.7669984 189.957,23.085 C189.518998,23.4030016 189.3,23.9099965 189.3,24.606 C189.3,25.1700028 189.500998,25.646998 189.903,26.037 C190.305002,26.4270019 190.913996,26.622 191.73,26.622 C192.510004,26.622 193.127998,26.4810014 193.584,26.199 C194.040002,25.9169986 194.387999,25.5930018 194.628,25.227 C194.868001,24.8609982 195.021,24.5070017 195.087,24.165 C195.153,23.8229983 195.186,23.5920006 195.186,23.472 L195.186,21.744 Z M197.04,18.342 L197.04,17.748 L198.696,17.748 L198.696,15.84 C198.696,15.5159984 198.749999,15.2370012 198.858,15.003 C198.966001,14.7689988 199.112999,14.5800007 199.299,14.436 C199.485001,14.2919993 199.700999,14.1840004 199.947,14.112 C200.193001,14.0399996 200.453999,14.004 200.73,14.004 C200.970001,14.004 201.239999,14.0339997 201.54,14.094 L201.54,14.688 C201.239999,14.6279997 200.970001,14.598 200.73,14.598 C200.345998,14.598 200.025001,14.6849991 199.767,14.859 C199.508999,15.0330009 199.38,15.3779974 199.38,15.894 L199.38,17.748 L201.306,17.748 L201.306,18.342 L199.38,18.342 L199.38,27 L198.696,27 L198.696,18.342 L197.04,18.342 Z M201.378,18.342 L201.378,17.748 L203.034,17.748 L203.034,15.84 C203.034,15.5159984 203.087999,15.2370012 203.196,15.003 C203.304001,14.7689988 203.450999,14.5800007 203.637,14.436 C203.823001,14.2919993 204.038999,14.1840004 204.285,14.112 C204.531001,14.0399996 204.791999,14.004 205.068,14.004 C205.308001,14.004 205.577999,14.0339997 205.878,14.094 L205.878,14.688 C205.577999,14.6279997 205.308001,14.598 205.068,14.598 C204.683998,14.598 204.363001,14.6849991 204.105,14.859 C203.846999,15.0330009 203.718,15.3779974 203.718,15.894 L203.718,17.748 L205.644,17.748 L205.644,18.342 L203.718,18.342 L203.718,27 L203.034,27 L203.034,18.342 L201.378,18.342 Z M213.546,25.29 C213.546,25.4220007 213.549,25.5539993 213.555,25.686 C213.561,25.8180007 213.582,25.9379995 213.618,26.046 C213.654,26.1540005 213.714,26.2409997 213.798,26.307 C213.882,26.3730003 214.001999,26.406 214.158,26.406 C214.278001,26.406 214.445999,26.3880002 214.662,26.352 L214.662,26.928 C214.566,26.9520001 214.473,26.9699999 214.383,26.982 C214.293,26.9940001 214.2,27 214.104,27 C213.827999,27 213.609001,26.9640004 213.447,26.892 C213.284999,26.8199996 213.162,26.7240006 213.078,26.604 C212.994,26.4839994 212.937,26.3430008 212.907,26.181 C212.877,26.0189992 212.862,25.842001 212.862,25.65 L212.862,25.164 L212.826,25.164 C212.717999,25.4400014 212.562001,25.7009988 212.358,25.947 C212.153999,26.1930012 211.905001,26.411999 211.611,26.604 C211.316999,26.796001 210.984002,26.9459995 210.612,27.054 C210.239998,27.1620005 209.832002,27.216 209.388,27.216 C208.955998,27.216 208.551002,27.1710004 208.173,27.081 C207.794998,26.9909995 207.465001,26.844001 207.183,26.64 C206.900999,26.435999 206.682001,26.1690016 206.526,25.839 C206.369999,25.5089983 206.292,25.0980025 206.292,24.606 C206.292,24.0659973 206.396999,23.6250017 206.607,23.283 C206.817001,22.9409983 207.086998,22.671001 207.417,22.473 C207.747002,22.274999 208.112998,22.1340004 208.515,22.05 C208.917002,21.9659996 209.309998,21.9060002 209.694,21.87 C210.462004,21.8219998 211.058998,21.7650003 211.485,21.699 C211.911002,21.6329997 212.225999,21.5310007 212.43,21.393 C212.634001,21.2549993 212.76,21.0750011 212.808,20.853 C212.856,20.6309989 212.88,20.3280019 212.88,19.944 C212.88,19.8359995 212.844,19.683001 212.772,19.485 C212.7,19.286999 212.571001,19.086001 212.385,18.882 C212.198999,18.677999 211.938002,18.5010007 211.602,18.351 C211.265998,18.2009992 210.834003,18.126 210.306,18.126 C209.477996,18.126 208.809003,18.3359979 208.299,18.756 C207.788997,19.1760021 207.51,19.787996 207.462,20.592 L206.778,20.592 C206.826,19.5719949 207.152997,18.8070025 207.759,18.297 C208.365003,17.7869974 209.213995,17.532 210.306,17.532 C210.714002,17.532 211.109998,17.5679996 211.494,17.64 C211.878002,17.7120004 212.222998,17.8379991 212.529,18.018 C212.835002,18.1980009 213.080999,18.4439984 213.267,18.756 C213.453001,19.0680016 213.546,19.4639976 213.546,19.944 L213.546,25.29 Z M212.862,21.744 C212.729999,21.9000008 212.544001,22.0169996 212.304,22.095 C212.063999,22.1730004 211.791002,22.2299998 211.485,22.266 C211.178998,22.3020002 210.858002,22.3319999 210.522,22.356 C210.185998,22.3800001 209.850002,22.4159998 209.514,22.464 C208.697996,22.5600005 208.071002,22.7669984 207.633,23.085 C207.194998,23.4030016 206.976,23.9099965 206.976,24.606 C206.976,25.1700028 207.176998,25.646998 207.579,26.037 C207.981002,26.4270019 208.589996,26.622 209.406,26.622 C210.186004,26.622 210.803998,26.4810014 211.26,26.199 C211.716002,25.9169986 212.063999,25.5930018 212.304,25.227 C212.544001,24.8609982 212.697,24.5070017 212.763,24.165 C212.829,23.8229983 212.862,23.5920006 212.862,23.472 L212.862,21.744 Z M215.886,16.002 L215.886,14.148 L216.57,14.148 L216.57,16.002 L215.886,16.002 Z M215.886,27 L215.886,17.748 L216.57,17.748 L216.57,27 L215.886,27 Z M219.432,19.8 L219.486,19.8 C219.57,19.4999985 219.725999,19.2180013 219.954,18.954 C220.182001,18.6899987 220.451998,18.462001 220.764,18.27 C221.076002,18.077999 221.426998,17.9310005 221.817,17.829 C222.207002,17.7269995 222.611998,17.6819999 223.032,17.694 L223.032,18.378 C222.671998,18.3299998 222.261002,18.3659994 221.799,18.486 C221.336998,18.6060006 220.896002,18.869998 220.476,19.278 C220.307999,19.4580009 220.161001,19.6319992 220.035,19.8 C219.908999,19.9680008 219.804,20.153999 219.72,20.358 C219.636,20.562001 219.57,20.7899987 219.522,21.042 C219.474,21.2940013 219.444,21.5939983 219.432,21.942 L219.432,27 L218.748,27 L218.748,17.748 L219.432,17.748 L219.432,19.8 Z M224.076,23.922 C224.1,24.3540022 224.195999,24.7349983 224.364,25.065 C224.532001,25.3950016 224.750999,25.6769988 225.021,25.911 C225.291001,26.1450012 225.605998,26.3219994 225.966,26.442 C226.326002,26.5620006 226.715998,26.622 227.136,26.622 C227.436002,26.622 227.756998,26.5950003 228.099,26.541 C228.441002,26.4869997 228.758999,26.3880007 229.053,26.244 C229.347001,26.0999993 229.589999,25.8990013 229.782,25.641 C229.974001,25.3829987 230.07,25.056002 230.07,24.66 C230.07,24.263998 229.980001,23.9460012 229.8,23.706 C229.619999,23.4659988 229.380002,23.2740007 229.08,23.13 C228.779999,22.9859993 228.441002,22.8720004 228.063,22.788 C227.684998,22.7039996 227.298002,22.6200004 226.902,22.536 C226.505998,22.4519996 226.116002,22.3560005 225.732,22.248 C225.347998,22.1399995 225.006002,21.9930009 224.706,21.807 C224.405999,21.6209991 224.166001,21.3750015 223.986,21.069 C223.805999,20.7629985 223.716,20.3760023 223.716,19.908 C223.716,19.4519977 223.817999,19.0710015 224.022,18.765 C224.226001,18.4589985 224.486998,18.2160009 224.805,18.036 C225.123002,17.8559991 225.479998,17.7270004 225.876,17.649 C226.272002,17.5709996 226.667998,17.532 227.064,17.532 C227.556002,17.532 228.008998,17.5859995 228.423,17.694 C228.837002,17.8020005 229.196998,17.9759988 229.503,18.216 C229.809002,18.4560012 230.048999,18.7619981 230.223,19.134 C230.397001,19.5060019 230.484,19.9559974 230.484,20.484 L229.8,20.484 C229.8,20.0639979 229.728001,19.7040015 229.584,19.404 C229.439999,19.1039985 229.248001,18.8610009 229.008,18.675 C228.767999,18.4889991 228.480002,18.3510004 228.144,18.261 C227.807998,18.1709995 227.448002,18.126 227.064,18.126 C226.751998,18.126 226.437002,18.1559997 226.119,18.216 C225.800998,18.2760003 225.516001,18.3779993 225.264,18.522 C225.011999,18.6660007 224.805001,18.8519989 224.643,19.08 C224.480999,19.3080011 224.4,19.5839984 224.4,19.908 C224.4,20.2800019 224.489999,20.5799989 224.67,20.808 C224.850001,21.0360011 225.086999,21.2189993 225.381,21.357 C225.675001,21.4950007 226.004998,21.6059996 226.371,21.69 C226.737002,21.7740004 227.105998,21.8579996 227.478,21.942 C227.934002,22.0260004 228.362998,22.1249994 228.765,22.239 C229.167002,22.3530006 229.514999,22.508999 229.809,22.707 C230.103001,22.905001 230.333999,23.1599984 230.502,23.472 C230.670001,23.7840016 230.754,24.1799976 230.754,24.66 C230.754,25.1640025 230.640001,25.5779984 230.412,25.902 C230.183999,26.2260016 229.896002,26.486999 229.548,26.685 C229.199998,26.883001 228.813002,27.0209996 228.387,27.099 C227.960998,27.1770004 227.544002,27.216 227.136,27.216 C226.607997,27.216 226.119002,27.1470007 225.669,27.009 C225.218998,26.8709993 224.826002,26.6610014 224.49,26.379 C224.153998,26.0969986 223.890001,25.752002 223.698,25.344 C223.505999,24.935998 223.404,24.4620027 223.392,23.922 L224.076,23.922 Z M238.26,19.872 L238.296,19.872 C238.368,19.6439989 238.487999,19.3920014 238.656,19.116 C238.824001,18.8399986 239.045999,18.5850012 239.322,18.351 C239.598001,18.1169988 239.930998,17.9220008 240.321,17.766 C240.711002,17.6099992 241.157997,17.532 241.662,17.532 C242.370004,17.532 242.984997,17.6639987 243.507,17.928 C244.029003,18.1920013 244.460998,18.5459978 244.803,18.99 C245.145002,19.4340022 245.399999,19.9499971 245.568,20.538 C245.736001,21.1260029 245.82,21.7439968 245.82,22.392 C245.82,23.1000035 245.736001,23.7479971 245.568,24.336 C245.399999,24.9240029 245.145002,25.4309979 244.803,25.857 C244.460998,26.2830021 244.029003,26.6159988 243.507,26.856 C242.984997,27.0960012 242.370004,27.216 241.662,27.216 C240.893996,27.216 240.210003,27.0480017 239.61,26.712 C239.009997,26.3759983 238.572001,25.8300038 238.296,25.074 L238.26,25.074 L238.26,30.312 L237.576,30.312 L237.576,17.748 L238.26,17.748 L238.26,19.872 Z M241.662,26.622 C242.262003,26.622 242.780998,26.5080011 243.219,26.28 C243.657002,26.0519989 244.016999,25.7460019 244.299,25.362 C244.581001,24.9779981 244.790999,24.5310025 244.929,24.021 C245.067001,23.5109974 245.136,22.9680029 245.136,22.392 C245.136,21.8639974 245.070001,21.3450025 244.938,20.835 C244.805999,20.3249974 244.602001,19.869002 244.326,19.467 C244.049999,19.064998 243.693002,18.7410012 243.255,18.495 C242.816998,18.2489988 242.286003,18.126 241.662,18.126 C241.049997,18.126 240.528002,18.2459988 240.096,18.486 C239.663998,18.7260012 239.313001,19.043998 239.043,19.44 C238.772999,19.836002 238.578001,20.2889974 238.458,20.799 C238.337999,21.3090025 238.278,21.8399972 238.278,22.392 C238.278,22.9440028 238.331999,23.4749974 238.44,23.985 C238.548001,24.4950025 238.730999,24.944998 238.989,25.335 C239.247001,25.7250019 239.594998,26.0369988 240.033,26.271 C240.471002,26.5050012 241.013997,26.622 241.662,26.622 L241.662,26.622 Z M248.106,19.8 L248.16,19.8 C248.244,19.4999985 248.399999,19.2180013 248.628,18.954 C248.856001,18.6899987 249.125998,18.462001 249.438,18.27 C249.750002,18.077999 250.100998,17.9310005 250.491,17.829 C250.881002,17.7269995 251.285998,17.6819999 251.706,17.694 L251.706,18.378 C251.345998,18.3299998 250.935002,18.3659994 250.473,18.486 C250.010998,18.6060006 249.570002,18.869998 249.15,19.278 C248.981999,19.4580009 248.835001,19.6319992 248.709,19.8 C248.582999,19.9680008 248.478,20.153999 248.394,20.358 C248.31,20.562001 248.244,20.7899987 248.196,21.042 C248.148,21.2940013 248.118,21.5939983 248.106,21.942 L248.106,27 L247.422,27 L247.422,17.748 L248.106,17.748 L248.106,19.8 Z M259.482,21.87 C259.47,21.3899976 259.386001,20.9220023 259.23,20.466 C259.073999,20.0099977 258.852001,19.6110017 258.564,19.269 C258.275999,18.9269983 257.925002,18.651001 257.511,18.441 C257.096998,18.2309989 256.626003,18.126 256.098,18.126 C255.581997,18.126 255.123002,18.2339989 254.721,18.45 C254.318998,18.6660011 253.974001,18.9509982 253.686,19.305 C253.397999,19.6590018 253.170001,20.0609977 253.002,20.511 C252.833999,20.9610022 252.732,21.4139977 252.696,21.87 L259.482,21.87 Z M252.696,22.464 C252.684,23.0040027 252.746999,23.5259975 252.885,24.03 C253.023001,24.5340025 253.235999,24.9779981 253.524,25.362 C253.812001,25.7460019 254.168998,26.0519989 254.595,26.28 C255.021002,26.5080011 255.521997,26.622 256.098,26.622 C256.974004,26.622 257.702997,26.3790024 258.285,25.893 C258.867003,25.4069976 259.241999,24.7320043 259.41,23.868 L260.094,23.868 C259.913999,24.9600055 259.479003,25.7909971 258.789,26.361 C258.098997,26.9310028 257.202006,27.216 256.098,27.216 C255.425997,27.216 254.832003,27.0930012 254.316,26.847 C253.799997,26.6009988 253.371002,26.2650021 253.029,25.839 C252.686998,25.4129979 252.429001,24.9150028 252.255,24.345 C252.080999,23.7749971 252,23.1720032 252.012,22.536 C252,21.8999968 252.074999,21.282003 252.237,20.682 C252.399001,20.081997 252.650998,19.5480023 252.993,19.08 C253.335002,18.6119977 253.763997,18.2370014 254.28,17.955 C254.796003,17.6729986 255.401997,17.532 256.098,17.532 C256.818004,17.532 257.441997,17.6639987 257.97,17.928 C258.498003,18.1920013 258.929998,18.5489977 259.266,18.999 C259.602002,19.4490022 259.844999,19.973997 259.995,20.574 C260.145001,21.174003 260.202,21.8039967 260.166,22.464 L252.696,22.464 Z M262.092,23.922 C262.116,24.3540022 262.211999,24.7349983 262.38,25.065 C262.548001,25.3950016 262.766999,25.6769988 263.037,25.911 C263.307001,26.1450012 263.621998,26.3219994 263.982,26.442 C264.342002,26.5620006 264.731998,26.622 265.152,26.622 C265.452002,26.622 265.772998,26.5950003 266.115,26.541 C266.457002,26.4869997 266.774999,26.3880007 267.069,26.244 C267.363001,26.0999993 267.605999,25.8990013 267.798,25.641 C267.990001,25.3829987 268.086,25.056002 268.086,24.66 C268.086,24.263998 267.996001,23.9460012 267.816,23.706 C267.635999,23.4659988 267.396002,23.2740007 267.096,23.13 C266.795998,22.9859993 266.457002,22.8720004 266.079,22.788 C265.700998,22.7039996 265.314002,22.6200004 264.918,22.536 C264.521998,22.4519996 264.132002,22.3560005 263.748,22.248 C263.363998,22.1399995 263.022001,21.9930009 262.722,21.807 C262.421998,21.6209991 262.182001,21.3750015 262.002,21.069 C261.821999,20.7629985 261.732,20.3760023 261.732,19.908 C261.732,19.4519977 261.833999,19.0710015 262.038,18.765 C262.242001,18.4589985 262.502998,18.2160009 262.821,18.036 C263.139002,17.8559991 263.495998,17.7270004 263.892,17.649 C264.288002,17.5709996 264.683998,17.532 265.08,17.532 C265.572002,17.532 266.024998,17.5859995 266.439,17.694 C266.853002,17.8020005 267.212998,17.9759988 267.519,18.216 C267.825002,18.4560012 268.064999,18.7619981 268.239,19.134 C268.413001,19.5060019 268.5,19.9559974 268.5,20.484 L267.816,20.484 C267.816,20.0639979 267.744001,19.7040015 267.6,19.404 C267.455999,19.1039985 267.264001,18.8610009 267.024,18.675 C266.783999,18.4889991 266.496002,18.3510004 266.16,18.261 C265.823998,18.1709995 265.464002,18.126 265.08,18.126 C264.767998,18.126 264.453002,18.1559997 264.135,18.216 C263.816998,18.2760003 263.532001,18.3779993 263.28,18.522 C263.027999,18.6660007 262.821001,18.8519989 262.659,19.08 C262.496999,19.3080011 262.416,19.5839984 262.416,19.908 C262.416,20.2800019 262.505999,20.5799989 262.686,20.808 C262.866001,21.0360011 263.102999,21.2189993 263.397,21.357 C263.691001,21.4950007 264.020998,21.6059996 264.387,21.69 C264.753002,21.7740004 265.121998,21.8579996 265.494,21.942 C265.950002,22.0260004 266.378998,22.1249994 266.781,22.239 C267.183002,22.3530006 267.530999,22.508999 267.825,22.707 C268.119001,22.905001 268.349999,23.1599984 268.518,23.472 C268.686001,23.7840016 268.77,24.1799976 268.77,24.66 C268.77,25.1640025 268.656001,25.5779984 268.428,25.902 C268.199999,26.2260016 267.912002,26.486999 267.564,26.685 C267.215998,26.883001 266.829002,27.0209996 266.403,27.099 C265.976998,27.1770004 265.560002,27.216 265.152,27.216 C264.623997,27.216 264.135002,27.1470007 263.685,27.009 C263.234998,26.8709993 262.842002,26.6610014 262.506,26.379 C262.169998,26.0969986 261.906001,25.752002 261.714,25.344 C261.521999,24.935998 261.42,24.4620027 261.408,23.922 L262.092,23.922 Z M277.482,21.87 C277.47,21.3899976 277.386001,20.9220023 277.23,20.466 C277.073999,20.0099977 276.852001,19.6110017 276.564,19.269 C276.275999,18.9269983 275.925002,18.651001 275.511,18.441 C275.096998,18.2309989 274.626003,18.126 274.098,18.126 C273.581997,18.126 273.123002,18.2339989 272.721,18.45 C272.318998,18.6660011 271.974001,18.9509982 271.686,19.305 C271.397999,19.6590018 271.170001,20.0609977 271.002,20.511 C270.833999,20.9610022 270.732,21.4139977 270.696,21.87 L277.482,21.87 Z M270.696,22.464 C270.684,23.0040027 270.746999,23.5259975 270.885,24.03 C271.023001,24.5340025 271.235999,24.9779981 271.524,25.362 C271.812001,25.7460019 272.168998,26.0519989 272.595,26.28 C273.021002,26.5080011 273.521997,26.622 274.098,26.622 C274.974004,26.622 275.702997,26.3790024 276.285,25.893 C276.867003,25.4069976 277.241999,24.7320043 277.41,23.868 L278.094,23.868 C277.913999,24.9600055 277.479003,25.7909971 276.789,26.361 C276.098997,26.9310028 275.202006,27.216 274.098,27.216 C273.425997,27.216 272.832003,27.0930012 272.316,26.847 C271.799997,26.6009988 271.371002,26.2650021 271.029,25.839 C270.686998,25.4129979 270.429001,24.9150028 270.255,24.345 C270.080999,23.7749971 270,23.1720032 270.012,22.536 C270,21.8999968 270.074999,21.282003 270.237,20.682 C270.399001,20.081997 270.650998,19.5480023 270.993,19.08 C271.335002,18.6119977 271.763997,18.2370014 272.28,17.955 C272.796003,17.6729986 273.401997,17.532 274.098,17.532 C274.818004,17.532 275.441997,17.6639987 275.97,17.928 C276.498003,18.1920013 276.929998,18.5489977 277.266,18.999 C277.602002,19.4490022 277.844999,19.973997 277.995,20.574 C278.145001,21.174003 278.202,21.8039967 278.166,22.464 L270.696,22.464 Z M279.768,17.748 L280.452,17.748 L280.452,19.728 L280.488,19.728 C280.608001,19.3799983 280.778999,19.0710013 281.001,18.801 C281.223001,18.5309986 281.480999,18.300001 281.775,18.108 C282.069001,17.915999 282.389998,17.7720005 282.738,17.676 C283.086002,17.5799995 283.439998,17.532 283.8,17.532 C284.340003,17.532 284.798998,17.5979993 285.177,17.73 C285.555002,17.8620007 285.863999,18.0359989 286.104,18.252 C286.344001,18.4680011 286.532999,18.7109986 286.671,18.981 C286.809001,19.2510013 286.908,19.5239986 286.968,19.8 C287.028,20.0760014 287.064,20.3429987 287.076,20.601 C287.088,20.8590013 287.094,21.083999 287.094,21.276 L287.094,27 L286.41,27 L286.41,21.15 C286.41,20.9099988 286.392,20.6190017 286.356,20.277 C286.32,19.9349983 286.215001,19.6050016 286.041,19.287 C285.866999,18.9689984 285.603002,18.6960011 285.249,18.468 C284.894998,18.2399989 284.406003,18.126 283.782,18.126 C283.265997,18.126 282.801002,18.221999 282.387,18.414 C281.972998,18.606001 281.622001,18.8729983 281.334,19.215 C281.045999,19.5570017 280.827001,19.9649976 280.677,20.439 C280.526999,20.9130024 280.452,21.4319972 280.452,21.996 L280.452,27 L279.768,27 L279.768,17.748 Z M292.512,18.342 L290.496,18.342 L290.496,24.804 C290.496,25.1760019 290.538,25.4699989 290.622,25.686 C290.706,25.9020011 290.834999,26.0639995 291.009,26.172 C291.183001,26.2800005 291.392999,26.3489998 291.639,26.379 C291.885001,26.4090001 292.169998,26.4180001 292.494,26.406 L292.494,27 C292.145998,27.0240001 291.807002,27.0210001 291.477,26.991 C291.146998,26.9609998 290.856001,26.8710007 290.604,26.721 C290.351999,26.5709992 290.151001,26.3460015 290.001,26.046 C289.850999,25.7459985 289.788,25.3320026 289.812,24.804 L289.812,18.342 L288.102,18.342 L288.102,17.748 L289.812,17.748 L289.812,14.868 L290.496,14.868 L290.496,17.748 L292.512,17.748 L292.512,18.342 Z M294.096,23.922 C294.12,24.3540022 294.215999,24.7349983 294.384,25.065 C294.552001,25.3950016 294.770999,25.6769988 295.041,25.911 C295.311001,26.1450012 295.625998,26.3219994 295.986,26.442 C296.346002,26.5620006 296.735998,26.622 297.156,26.622 C297.456001,26.622 297.776998,26.5950003 298.119,26.541 C298.461002,26.4869997 298.778999,26.3880007 299.073,26.244 C299.367001,26.0999993 299.609999,25.8990013 299.802,25.641 C299.994001,25.3829987 300.09,25.056002 300.09,24.66 C300.09,24.263998 300.000001,23.9460012 299.82,23.706 C299.639999,23.4659988 299.400002,23.2740007 299.1,23.13 C298.799999,22.9859993 298.461002,22.8720004 298.083,22.788 C297.704998,22.7039996 297.318002,22.6200004 296.922,22.536 C296.525998,22.4519996 296.136002,22.3560005 295.752,22.248 C295.367998,22.1399995 295.026002,21.9930009 294.726,21.807 C294.425998,21.6209991 294.186001,21.3750015 294.006,21.069 C293.825999,20.7629985 293.736,20.3760023 293.736,19.908 C293.736,19.4519977 293.837999,19.0710015 294.042,18.765 C294.246001,18.4589985 294.506998,18.2160009 294.825,18.036 C295.143002,17.8559991 295.499998,17.7270004 295.896,17.649 C296.292002,17.5709996 296.687998,17.532 297.084,17.532 C297.576002,17.532 298.028998,17.5859995 298.443,17.694 C298.857002,17.8020005 299.216998,17.9759988 299.523,18.216 C299.829002,18.4560012 300.068999,18.7619981 300.243,19.134 C300.417001,19.5060019 300.504,19.9559974 300.504,20.484 L299.82,20.484 C299.82,20.0639979 299.748001,19.7040015 299.604,19.404 C299.459999,19.1039985 299.268001,18.8610009 299.028,18.675 C298.787999,18.4889991 298.500002,18.3510004 298.164,18.261 C297.827998,18.1709995 297.468002,18.126 297.084,18.126 C296.771998,18.126 296.457002,18.1559997 296.139,18.216 C295.820998,18.2760003 295.536001,18.3779993 295.284,18.522 C295.031999,18.6660007 294.825001,18.8519989 294.663,19.08 C294.500999,19.3080011 294.42,19.5839984 294.42,19.908 C294.42,20.2800019 294.509999,20.5799989 294.69,20.808 C294.870001,21.0360011 295.106999,21.2189993 295.401,21.357 C295.695001,21.4950007 296.024998,21.6059996 296.391,21.69 C296.757002,21.7740004 297.125998,21.8579996 297.498,21.942 C297.954002,22.0260004 298.382998,22.1249994 298.785,22.239 C299.187002,22.3530006 299.534999,22.508999 299.829,22.707 C300.123001,22.905001 300.353999,23.1599984 300.522,23.472 C300.690001,23.7840016 300.774,24.1799976 300.774,24.66 C300.774,25.1640025 300.660001,25.5779984 300.432,25.902 C300.203999,26.2260016 299.916002,26.486999 299.568,26.685 C299.219998,26.883001 298.833002,27.0209996 298.407,27.099 C297.980998,27.1770004 297.564002,27.216 297.156,27.216 C296.627997,27.216 296.139002,27.1470007 295.689,27.009 C295.238998,26.8709993 294.846002,26.6610014 294.51,26.379 C294.173998,26.0969986 293.910001,25.752002 293.718,25.344 C293.525999,24.935998 293.424,24.4620027 293.412,23.922 L294.096,23.922 Z M314.256,25.29 C314.256,25.4220007 314.259,25.5539993 314.265,25.686 C314.271,25.8180007 314.292,25.9379995 314.328,26.046 C314.364,26.1540005 314.424,26.2409997 314.508,26.307 C314.592,26.3730003 314.711999,26.406 314.868,26.406 C314.988001,26.406 315.155999,26.3880002 315.372,26.352 L315.372,26.928 C315.276,26.9520001 315.183,26.9699999 315.093,26.982 C315.003,26.9940001 314.91,27 314.814,27 C314.537999,27 314.319001,26.9640004 314.157,26.892 C313.994999,26.8199996 313.872,26.7240006 313.788,26.604 C313.704,26.4839994 313.647,26.3430008 313.617,26.181 C313.587,26.0189992 313.572,25.842001 313.572,25.65 L313.572,25.164 L313.536,25.164 C313.427999,25.4400014 313.272001,25.7009988 313.068,25.947 C312.863999,26.1930012 312.615001,26.411999 312.321,26.604 C312.026999,26.796001 311.694002,26.9459995 311.322,27.054 C310.949998,27.1620005 310.542002,27.216 310.098,27.216 C309.665998,27.216 309.261002,27.1710004 308.883,27.081 C308.504998,26.9909995 308.175001,26.844001 307.893,26.64 C307.610999,26.435999 307.392001,26.1690016 307.236,25.839 C307.079999,25.5089983 307.002,25.0980025 307.002,24.606 C307.002,24.0659973 307.106999,23.6250017 307.317,23.283 C307.527001,22.9409983 307.796998,22.671001 308.127,22.473 C308.457002,22.274999 308.822998,22.1340004 309.225,22.05 C309.627002,21.9659996 310.019998,21.9060002 310.404,21.87 C311.172004,21.8219998 311.768998,21.7650003 312.195,21.699 C312.621002,21.6329997 312.935999,21.5310007 313.14,21.393 C313.344001,21.2549993 313.47,21.0750011 313.518,20.853 C313.566,20.6309989 313.59,20.3280019 313.59,19.944 C313.59,19.8359995 313.554,19.683001 313.482,19.485 C313.41,19.286999 313.281001,19.086001 313.095,18.882 C312.908999,18.677999 312.648002,18.5010007 312.312,18.351 C311.975998,18.2009992 311.544003,18.126 311.016,18.126 C310.187996,18.126 309.519003,18.3359979 309.009,18.756 C308.498997,19.1760021 308.22,19.787996 308.172,20.592 L307.488,20.592 C307.536,19.5719949 307.862997,18.8070025 308.469,18.297 C309.075003,17.7869974 309.923995,17.532 311.016,17.532 C311.424002,17.532 311.819998,17.5679996 312.204,17.64 C312.588002,17.7120004 312.932998,17.8379991 313.239,18.018 C313.545002,18.1980009 313.790999,18.4439984 313.977,18.756 C314.163001,19.0680016 314.256,19.4639976 314.256,19.944 L314.256,25.29 Z M313.572,21.744 C313.439999,21.9000008 313.254001,22.0169996 313.014,22.095 C312.773999,22.1730004 312.501002,22.2299998 312.195,22.266 C311.888998,22.3020002 311.568002,22.3319999 311.232,22.356 C310.895998,22.3800001 310.560002,22.4159998 310.224,22.464 C309.407996,22.5600005 308.781002,22.7669984 308.343,23.085 C307.904998,23.4030016 307.686,23.9099965 307.686,24.606 C307.686,25.1700028 307.886998,25.646998 308.289,26.037 C308.691002,26.4270019 309.299996,26.622 310.116,26.622 C310.896004,26.622 311.513998,26.4810014 311.97,26.199 C312.426002,25.9169986 312.773999,25.5930018 313.014,25.227 C313.254001,24.8609982 313.407,24.5070017 313.473,24.165 C313.539,23.8229983 313.572,23.5920006 313.572,23.472 L313.572,21.744 Z M322.284,14.148 L322.284,27 L321.6,27 L321.6,14.148 L322.284,14.148 Z M324.714,22.374 C324.714,22.9260028 324.791999,23.4569974 324.948,23.967 C325.104001,24.4770025 325.331998,24.929998 325.632,25.326 C325.932001,25.722002 326.303998,26.0369988 326.748,26.271 C327.192002,26.5050012 327.701997,26.622 328.278,26.622 C328.854003,26.622 329.363998,26.5050012 329.808,26.271 C330.252002,26.0369988 330.623998,25.722002 330.924,25.326 C331.224001,24.929998 331.451999,24.4770025 331.608,23.967 C331.764001,23.4569974 331.842,22.9260028 331.842,22.374 C331.842,21.8219972 331.764001,21.2910025 331.608,20.781 C331.451999,20.2709974 331.224001,19.818002 330.924,19.422 C330.623998,19.025998 330.252002,18.7110012 329.808,18.477 C329.363998,18.2429988 328.854003,18.126 328.278,18.126 C327.701997,18.126 327.192002,18.2429988 326.748,18.477 C326.303998,18.7110012 325.932001,19.025998 325.632,19.422 C325.331998,19.818002 325.104001,20.2709974 324.948,20.781 C324.791999,21.2910025 324.714,21.8219972 324.714,22.374 L324.714,22.374 Z M324.03,22.374 C324.03,21.7139967 324.122999,21.0930029 324.309,20.511 C324.495001,19.9289971 324.767998,19.4160022 325.128,18.972 C325.488002,18.5279978 325.931997,18.1770013 326.46,17.919 C326.988003,17.6609987 327.593997,17.532 328.278,17.532 C328.962003,17.532 329.567997,17.6609987 330.096,17.919 C330.624003,18.1770013 331.067998,18.5279978 331.428,18.972 C331.788002,19.4160022 332.060999,19.9289971 332.247,20.511 C332.433001,21.0930029 332.526,21.7139967 332.526,22.374 C332.526,23.0340033 332.433001,23.6579971 332.247,24.246 C332.060999,24.8340029 331.788002,25.3469978 331.428,25.785 C331.067998,26.2230022 330.624003,26.5709987 330.096,26.829 C329.567997,27.0870013 328.962003,27.216 328.278,27.216 C327.593997,27.216 326.988003,27.0870013 326.46,26.829 C325.931997,26.5709987 325.488002,26.2230022 325.128,25.785 C324.767998,25.3469978 324.495001,24.8340029 324.309,24.246 C324.122999,23.6579971 324.03,23.0340033 324.03,22.374 L324.03,22.374 Z M336.432,26.208 L336.468,26.208 L338.988,17.748 L339.906,17.748 L342.444,26.208 L342.48,26.208 L345.072,17.748 L345.828,17.748 L342.858,27 L342.012,27 L339.474,18.612 L339.438,18.612 L336.882,27 L336.018,27 L333.084,17.748 L333.822,17.748 L336.432,26.208 Z M347.034,22.446 L347.034,21.762 L350.886,21.762 L350.886,22.446 L347.034,22.446 Z M357.276,17.748 L357.96,17.748 L357.96,27 L357.276,27 L357.276,17.748 Z M357.276,14.148 L357.96,14.148 L357.96,16.002 L357.276,16.002 L357.276,14.148 Z M352.128,17.748 L353.784,17.748 L353.784,15.84 C353.784,15.5159984 353.837999,15.2370012 353.946,15.003 C354.054001,14.7689988 354.200999,14.5800007 354.387,14.436 C354.573001,14.2919993 354.788999,14.1840004 355.035,14.112 C355.281001,14.0399996 355.541999,14.004 355.818,14.004 C356.058001,14.004 356.327999,14.0339997 356.628,14.094 L356.628,14.688 C356.327999,14.6279997 356.058001,14.598 355.818,14.598 C355.433998,14.598 355.113001,14.6849991 354.855,14.859 C354.596999,15.0330009 354.468,15.3779974 354.468,15.894 L354.468,17.748 L356.394,17.748 L356.394,18.342 L354.468,18.342 L354.468,27 L353.784,27 L353.784,18.342 L352.128,18.342 L352.128,17.748 Z" id="designaffairs-presen" fill="#FFFFFF" sketch:type="MSShapeGroup"></path>
                <path d="M83.336,75.996 L83.336,108.196 L79.84,108.196 L79.84,94.212 L79.656,94.212 C78.8586627,96.604012 77.6626746,98.7659903 76.068,100.698 C74.4733254,102.63001 72.5873442,104.255327 70.41,105.574 C68.2326558,106.892673 65.8100133,107.919996 63.142,108.656 C60.4739867,109.392004 57.6986811,109.76 54.816,109.76 C49.8479752,109.76 45.4473525,108.870676 41.614,107.092 C37.7806475,105.313324 34.5453465,102.890682 31.908,99.824 C29.2706535,96.757318 27.2773401,93.1540207 25.928,89.014 C24.5786599,84.8739793 23.904,80.4426903 23.904,75.72 C23.904,71.0586434 24.5939931,66.6273543 25.974,62.426 C27.3540069,58.2246457 29.3626535,54.5293493 32,51.34 C34.6373465,48.1506507 37.8726475,45.620676 41.706,43.75 C45.5393525,41.879324 49.9399752,40.944 54.908,40.944 C58.2813502,40.944 61.501318,41.4346618 64.568,42.416 C67.634682,43.3973382 70.3793212,44.8386572 72.802,46.74 C75.2246788,48.6413428 77.2639917,50.9413198 78.92,53.64 C80.5760083,56.3386802 81.6799972,59.4053162 82.232,62.84 L78.368,62.84 C76.834659,57.1359715 74.0593534,52.6433497 70.042,49.362 C66.0246466,46.0806503 61.0106967,44.44 55,44.44 C50.5839779,44.44 46.6893502,45.2986581 43.316,47.016 C39.9426498,48.7333419 37.1213447,51.0333189 34.852,53.916 C32.5826553,56.7986811 30.8653392,60.1259811 29.7,63.898 C28.5346608,67.6700189 27.952,71.6106461 27.952,75.72 C27.952,79.8906875 28.5193277,83.8313148 29.654,87.542 C30.7886723,91.2526852 32.4753221,94.4879862 34.714,97.248 C36.9526779,100.008014 39.7586498,102.200659 43.132,103.826 C46.5053502,105.451341 50.4613106,106.264 55,106.264 C58.925353,106.264 62.4519844,105.620006 65.58,104.332 C68.7080156,103.043994 71.3606558,101.234678 73.538,98.904 C75.7153442,96.5733217 77.3559945,93.7673497 78.46,90.486 C79.5640055,87.2046503 80.0240009,83.5400202 79.84,79.492 L55.644,79.492 L55.644,75.996 L83.336,75.996 Z M94.468,42.508 L98.516,42.508 L98.516,108.196 L94.468,108.196 L94.468,42.508 Z M114.156,75.812 L114.156,108.196 L110.108,108.196 L110.108,42.508 L151.324,42.508 L151.324,46.004 L114.156,46.004 L114.156,72.316 L147.644,72.316 L147.644,75.812 L114.156,75.812 Z M157.948,84.92 L157.948,81.424 L177.636,81.424 L177.636,84.92 L157.948,84.92 Z M189.78,42.508 L195.576,42.508 L221.244,103.688 L221.428,103.688 L246.82,42.508 L252.616,42.508 L252.616,108.196 L248.568,108.196 L248.568,47.476 L248.384,47.476 L223.36,108.196 L219.312,108.196 L194.012,47.476 L193.828,47.476 L193.828,108.196 L189.78,108.196 L189.78,42.508 Z M300.18,83.632 L286.104,46.464 L285.92,46.464 L271.292,83.632 L300.18,83.632 Z M288.128,42.508 L314.072,108.196 L309.748,108.196 L301.468,87.128 L270.004,87.128 L261.632,108.196 L257.308,108.196 L283.712,42.508 L288.128,42.508 Z M361.636,61.276 C361.513333,58.4546526 360.915339,56.0013438 359.842,53.916 C358.768661,51.8306562 357.312009,50.0826737 355.472,48.672 C353.631991,47.2613263 351.439346,46.2033369 348.894,45.498 C346.348654,44.7926631 343.573348,44.44 340.568,44.44 C338.727991,44.44 336.750011,44.6546645 334.634,45.084 C332.517989,45.5133355 330.555342,46.2646613 328.746,47.338 C326.936658,48.4113387 325.449339,49.8526576 324.284,51.662 C323.118661,53.4713424 322.536,55.7253198 322.536,58.424 C322.536,61.0613465 323.179994,63.2079917 324.468,64.864 C325.756006,66.5200083 327.442656,67.8539949 329.528,68.866 C331.613344,69.8780051 334.00532,70.6906636 336.704,71.304 C339.40268,71.9173364 342.131986,72.4999972 344.892,73.052 C347.713347,73.6040028 350.457987,74.2633295 353.126,75.03 C355.794013,75.7966705 358.185989,76.8393267 360.302,78.158 C362.418011,79.4766733 364.119994,81.1786562 365.408,83.264 C366.696006,85.3493438 367.34,88.0173171 367.34,91.268 C367.34,94.7026838 366.604007,97.5853217 365.132,99.916 C363.659993,102.246678 361.804678,104.147993 359.566,105.62 C357.327322,107.092007 354.843347,108.149997 352.114,108.794 C349.384653,109.438003 346.762679,109.76 344.248,109.76 C340.383981,109.76 336.76535,109.346004 333.392,108.518 C330.01865,107.689996 327.074679,106.340676 324.56,104.47 C322.045321,102.599324 320.067341,100.192015 318.626,97.248 C317.184659,94.3039853 316.494666,90.7160212 316.556,86.484 L320.604,86.484 C320.419999,90.1026848 320.925994,93.1539876 322.122,95.638 C323.318006,98.1220124 325.019989,100.161325 327.228,101.756 C329.436011,103.350675 332.011985,104.500663 334.956,105.206 C337.900015,105.911337 340.997317,106.264 344.248,106.264 C346.210676,106.264 348.311322,106.018669 350.55,105.528 C352.788678,105.037331 354.843324,104.209339 356.714,103.044 C358.584676,101.878661 360.14866,100.345343 361.406,98.444 C362.66334,96.5426572 363.292,94.1506811 363.292,91.268 C363.292,88.5079862 362.648006,86.2540087 361.36,84.506 C360.071994,82.7579913 358.370011,81.3473387 356.254,80.274 C354.137989,79.2006613 351.746013,78.3420032 349.078,77.698 C346.409987,77.0539968 343.665347,76.4560028 340.844,75.904 C338.083986,75.3519972 335.35468,74.7080037 332.656,73.972 C329.95732,73.2359963 327.565344,72.2393396 325.48,70.982 C323.394656,69.7246604 321.708006,68.0993433 320.42,66.106 C319.131994,64.1126567 318.488,61.5520156 318.488,58.424 C318.488,55.2959844 319.147327,52.6126779 320.466,50.374 C321.784673,48.1353221 323.501989,46.3260069 325.618,44.946 C327.734011,43.5659931 330.110653,42.5540032 332.748,41.91 C335.385347,41.2659968 337.991987,40.944 340.568,40.944 C344.002684,40.944 347.207318,41.3273295 350.182,42.094 C353.156682,42.8606705 355.763322,44.0566585 358.002,45.682 C360.240678,47.3073415 362.03466,49.4079871 363.384,51.984 C364.73334,54.5600129 365.499999,57.6573152 365.684,61.276 L361.636,61.276 Z M69.168,141.276 C69.0453327,138.454653 68.4473387,136.001344 67.374,133.916 C66.3006613,131.830656 64.8440092,130.082674 63.004,128.672 C61.1639908,127.261326 58.9713461,126.203337 56.426,125.498 C53.8806539,124.792663 51.1053484,124.44 48.1,124.44 C46.2599908,124.44 44.2820106,124.654665 42.166,125.084 C40.0499894,125.513335 38.0873424,126.264661 36.278,127.338 C34.4686576,128.411339 32.9813392,129.852658 31.816,131.662 C30.6506608,133.471342 30.068,135.72532 30.068,138.424 C30.068,141.061347 30.7119936,143.207992 32,144.864 C33.2880064,146.520008 34.9746562,147.853995 37.06,148.866 C39.1453438,149.878005 41.5373198,150.690664 44.236,151.304 C46.9346802,151.917336 49.6639862,152.499997 52.424,153.052 C55.2453474,153.604003 57.9899867,154.26333 60.658,155.03 C63.3260133,155.796671 65.7179894,156.839327 67.834,158.158 C69.9500106,159.476673 71.6519936,161.178656 72.94,163.264 C74.2280064,165.349344 74.872,168.017317 74.872,171.268 C74.872,174.702684 74.1360074,177.585322 72.664,179.916 C71.1919926,182.246678 69.3366779,184.147993 67.098,185.62 C64.8593221,187.092007 62.375347,188.149997 59.646,188.794 C56.916653,189.438003 54.2946792,189.76 51.78,189.76 C47.9159807,189.76 44.2973502,189.346004 40.924,188.518 C37.5506498,187.689996 34.6066792,186.340676 32.092,184.47 C29.5773208,182.599324 27.5993405,180.192015 26.158,177.248 C24.7166595,174.303985 24.0266664,170.716021 24.088,166.484 L28.136,166.484 C27.9519991,170.102685 28.457994,173.153988 29.654,175.638 C30.850006,178.122012 32.551989,180.161325 34.76,181.756 C36.968011,183.350675 39.5439853,184.500663 42.488,185.206 C45.4320147,185.911337 48.5293171,186.264 51.78,186.264 C53.7426765,186.264 55.8433221,186.018669 58.082,185.528 C60.3206779,185.037331 62.375324,184.209339 64.246,183.044 C66.116676,181.878661 67.6806604,180.345343 68.938,178.444 C70.1953396,176.542657 70.824,174.150681 70.824,171.268 C70.824,168.507986 70.1800064,166.254009 68.892,164.506 C67.6039936,162.757991 65.9020106,161.347339 63.786,160.274 C61.6699894,159.200661 59.2780133,158.342003 56.61,157.698 C53.9419867,157.053997 51.1973474,156.456003 48.376,155.904 C45.6159862,155.351997 42.8866802,154.708004 40.188,153.972 C37.4893198,153.235996 35.0973438,152.23934 33.012,150.982 C30.9266562,149.72466 29.2400064,148.099343 27.952,146.106 C26.6639936,144.112657 26.02,141.552016 26.02,138.424 C26.02,135.295984 26.6793267,132.612678 27.998,130.374 C29.3166733,128.135322 31.0339894,126.326007 33.15,124.946 C35.2660106,123.565993 37.6426535,122.554003 40.28,121.91 C42.9173465,121.265997 45.5239871,120.944 48.1,120.944 C51.5346838,120.944 54.7393185,121.32733 57.714,122.094 C60.6886815,122.860671 63.2953221,124.056659 65.534,125.682 C67.7726779,127.307341 69.5666599,129.407987 70.916,131.984 C72.2653401,134.560013 73.0319991,137.657315 73.216,141.276 L69.168,141.276 Z M77.172,126.004 L77.172,122.508 L127.496,122.508 L127.496,126.004 L104.312,126.004 L104.312,188.196 L100.264,188.196 L100.264,126.004 L77.172,126.004 Z M133.108,155.352 C133.108,159.584021 133.721327,163.570648 134.948,167.312 C136.174673,171.053352 137.953322,174.319319 140.284,177.11 C142.614678,179.900681 145.46665,182.123992 148.84,183.78 C152.21335,185.436008 156.046645,186.264 160.34,186.264 C164.633355,186.264 168.451317,185.436008 171.794,183.78 C175.136683,182.123992 177.973322,179.900681 180.304,177.11 C182.634678,174.319319 184.413327,171.053352 185.64,167.312 C186.866673,163.570648 187.48,159.584021 187.48,155.352 C187.48,151.119979 186.866673,147.133352 185.64,143.392 C184.413327,139.650648 182.634678,136.384681 180.304,133.594 C177.973322,130.803319 175.136683,128.580008 171.794,126.924 C168.451317,125.267992 164.633355,124.44 160.34,124.44 C156.046645,124.44 152.21335,125.267992 148.84,126.924 C145.46665,128.580008 142.614678,130.803319 140.284,133.594 C137.953322,136.384681 136.174673,139.650648 134.948,143.392 C133.721327,147.133352 133.108,151.119979 133.108,155.352 L133.108,155.352 Z M191.528,155.352 C191.528,160.136024 190.822674,164.628646 189.412,168.83 C188.001326,173.031354 185.962013,176.680651 183.294,179.778 C180.625987,182.875349 177.360019,185.313324 173.496,187.092 C169.631981,188.870676 165.246691,189.76 160.34,189.76 C155.433309,189.76 151.032686,188.870676 147.138,187.092 C143.243314,185.313324 139.962013,182.875349 137.294,179.778 C134.625987,176.680651 132.586674,173.031354 131.176,168.83 C129.765326,164.628646 129.06,160.136024 129.06,155.352 C129.06,150.567976 129.765326,146.075354 131.176,141.874 C132.586674,137.672646 134.625987,134.023349 137.294,130.926 C139.962013,127.828651 143.243314,125.390676 147.138,123.612 C151.032686,121.833324 155.433309,120.944 160.34,120.944 C165.246691,120.944 169.631981,121.833324 173.496,123.612 C177.360019,125.390676 180.625987,127.828651 183.294,130.926 C185.962013,134.023349 188.001326,137.672646 189.412,141.874 C190.822674,146.075354 191.528,150.567976 191.528,155.352 L191.528,155.352 Z M200.176,122.508 L227.592,122.508 C230.474681,122.508 233.173321,122.79933 235.688,123.382 C238.202679,123.96467 240.410657,124.915327 242.312,126.234 C244.213343,127.552673 245.700661,129.285323 246.774,131.432 C247.847339,133.578677 248.384,136.246651 248.384,139.436 C248.384,143.852022 247.142012,147.577985 244.658,150.614 C242.173988,153.650015 238.724022,155.535996 234.308,156.272 L234.308,156.456 C236.761346,156.762668 238.769992,157.345329 240.334,158.204 C241.898008,159.062671 243.155329,160.12066 244.106,161.378 C245.056671,162.63534 245.746665,164.045992 246.176,165.61 C246.605335,167.174008 246.911999,168.814658 247.096,170.532 C247.280001,172.249342 247.372,173.966658 247.372,175.684 C247.372,177.401342 247.402666,179.041992 247.464,180.606 C247.525334,182.170008 247.678665,183.611327 247.924,184.93 C248.169335,186.248673 248.62933,187.337329 249.304,188.196 L244.796,188.196 C244.182664,187.091994 243.784001,185.804007 243.6,184.332 C243.415999,182.859993 243.308667,181.311341 243.278,179.686 C243.247333,178.060659 243.247333,176.404675 243.278,174.718 C243.308667,173.031325 243.232001,171.390675 243.048,169.796 C242.863999,168.201325 242.48067,166.714007 241.898,165.334 C241.31533,163.953993 240.456672,162.742672 239.322,161.7 C238.187328,160.657328 236.669343,159.829336 234.768,159.216 C232.866657,158.602664 230.474681,158.296 227.592,158.296 L204.224,158.296 L204.224,188.196 L200.176,188.196 L200.176,122.508 Z M227.592,154.8 C229.984012,154.8 232.207323,154.50867 234.262,153.926 C236.316677,153.34333 238.079993,152.438673 239.552,151.212 C241.024007,149.985327 242.189329,148.421343 243.048,146.52 C243.906671,144.618657 244.336,142.349347 244.336,139.712 C244.336,137.258654 243.876005,135.158009 242.956,133.41 C242.035995,131.661991 240.809341,130.236006 239.276,129.132 C237.742659,128.027994 235.96401,127.230669 233.94,126.74 C231.91599,126.249331 229.800011,126.004 227.592,126.004 L204.224,126.004 L204.224,154.8 L227.592,154.8 Z M302.572,122.508 L307.08,122.508 L280.676,160.688 L280.676,188.196 L276.628,188.196 L276.628,160.688 L250.408,122.508 L255.008,122.508 L278.744,157.284 L302.572,122.508 Z" id="GIF-MAS" fill="#FFFFFF" sketch:type="MSShapeGroup"></path>
                <g id="santa-hat" transform="translate(44.477047, 43.246839) scale(-1, 1) rotate(18.000000) translate(-44.477047, -43.246839) translate(8.709965, 9.395851)">
                    <path d="M5.09578728,34.3624577 C5.09578728,34.3624577 39.3657615,3.3536749 40.4988115,2.22062484 C41.6318616,1.08757477 42.2667273,0.415664589 42.7610795,0.415664589 C43.2567091,0.415664589 43.753616,1.08757477 44.53155,1.93704297 C45.3107615,2.78651117 62.2311461,19.1410094 62.5134506,19.3530571 C62.7983098,19.5663822 63.4344529,20.8399458 63.7193122,21.689414 C64.0016167,22.5388822 68.0369099,34.3624577 68.0369099,34.3624577 L5.09578728,34.3624577 Z" id="Fill-1" fill="#D0021B" sketch:type="MSShapeGroup"></path>
                    <path d="M42.6929943,0.426650193 L48.2011249,34.3619467 L54.9266138,34.3619467 L42.7351484,0.420263214 C42.721097,0.420263214 42.7070456,0.425372797 42.6929943,0.426650193" id="Fill-3" fill="#000000" sketch:type="MSShapeGroup"></path>
                    <g id="Group-7">
                        <mask id="mask-2" sketch:name="Clip 6" fill="white">
                            <use xlink:href="#path-1"></use>
                        </mask>
                        <g id="Clip-6"></g>
                        <path d="M71.364526,47.3397769 C71.364526,50.8858277 68.4891081,53.7612456 64.9405026,53.7612456 L35.2397731,52.7546577 L6.4230015,53.7612456 C2.8756734,53.7612456 0.000255479158,50.8858277 0.000255479158,47.3397769 L0.000255479158,39.2270363 C0.000255479158,35.6797082 2.8756734,32.8055677 6.4230015,32.8055677 L36.123731,31.7989798 L64.9405026,32.8055677 C68.4891081,32.8055677 71.364526,35.6797082 71.364526,39.2270363 L71.364526,47.3397769 Z" id="Fill-5" fill="#FFFFFF" sketch:type="MSShapeGroup" mask="url(#mask-2)"></path>
                    </g>
                    <path d="M62.6185802,64.9173817 L62.6185802,19.46253 C62.5802584,19.4165437 62.5444913,19.3769444 62.5138338,19.3526739 C62.2302519,19.1406262 45.3098673,2.78740535 44.5319333,1.93793715 C43.7527218,1.08846895 43.2570923,0.415281371 42.7614627,0.415281371 C42.7295278,0.415281371 42.6950381,0.426777933 42.6618258,0.431887516 L62.6185802,64.9173817 Z" id="Fill-8" fill="#B80117" sketch:type="MSShapeGroup"></path>
                    <path d="M67.6009348,62.7196222 C67.6009348,65.4711328 65.3706017,67.7014658 62.6190912,67.7014658 C59.8675807,67.7014658 57.6359702,65.4711328 57.6359702,62.7196222 C57.6359702,59.9681117 59.8675807,57.7377787 62.6190912,57.7377787 C65.3706017,57.7377787 67.6009348,59.9681117 67.6009348,62.7196222" id="Fill-10" fill="#FFFFFF" sketch:type="MSShapeGroup"></path>
                </g>
            </g>
        </g>
    </g>
</svg>