<?xml version="1.0" encoding="UTF-8" standalone="no"?>
<svg width="889px" height="766px" viewBox="0 0 889 766" version="1.1" xmlns="http://www.w3.org/2000/svg" xmlns:xlink="http://www.w3.org/1999/xlink" xmlns:sketch="http://www.bohemiancoding.com/sketch/ns">
    <!-- Generator: Sketch 3.4.3 (16618) - http://www.bohemiancoding.com/sketch -->
    <title>text_section_03</title>
    <desc>Created with Sketch.</desc>
    <defs></defs>
    <g id="v4" stroke="none" stroke-width="1" fill="none" fill-rule="evenodd" sketch:type="MSPage">
        <g id="Artboard-1" sketch:type="MSArtboardGroup" transform="translate(-152.000000, -1829.000000)">
            <g id="text_section_03" sketch:type="MSLayerGroup" transform="translate(152.000000, 1829.000000)">
                <path d="M0,55.0273438 L0,0 L244.915619,0 L888.069885,765.376953 L591.05426,765.376953 L0,55.0273438 Z" id="-" opacity="0.15" fill="#000000" sketch:type="MSShapeGroup" transform="translate(444.034943, 382.688477) scale(-1, 1) translate(-444.034943, -382.688477) "></path>
                <path d="M239,54.4921875 L239,45.5273438 L281.164062,45.5273438 L887.792969,765.376953 L830.05426,764.841797 L239,54.4921875 Z" id="-" opacity="0.15" fill="#000000" sketch:type="MSShapeGroup" transform="translate(563.396484, 405.452148) scale(-1, 1) translate(-563.396484, -405.452148) "></path>
                <path d="M627.276,34.496 C627.276,36.704011 627.587997,38.8279898 628.212,40.868 C628.836003,42.9080102 629.747994,44.7199921 630.948,46.304 C632.148006,47.8880079 633.635991,49.1479953 635.412,50.084 C637.188009,51.0200047 639.227988,51.488 641.532,51.488 C643.836012,51.488 645.875991,51.0200047 647.652,50.084 C649.428009,49.1479953 650.915994,47.8880079 652.116,46.304 C653.316006,44.7199921 654.227997,42.9080102 654.852,40.868 C655.476003,38.8279898 655.788,36.704011 655.788,34.496 C655.788,32.287989 655.476003,30.1640102 654.852,28.124 C654.227997,26.0839898 653.316006,24.2720079 652.116,22.688 C650.915994,21.1039921 649.428009,19.8440047 647.652,18.908 C645.875991,17.9719953 643.836012,17.504 641.532,17.504 C639.227988,17.504 637.188009,17.9719953 635.412,18.908 C633.635991,19.8440047 632.148006,21.1039921 630.948,22.688 C629.747994,24.2720079 628.836003,26.0839898 628.212,28.124 C627.587997,30.1640102 627.276,32.287989 627.276,34.496 L627.276,34.496 Z M624.54,34.496 C624.54,31.8559868 624.911996,29.3720116 625.656,27.044 C626.400004,24.7159884 627.491993,22.6640089 628.932,20.888 C630.372007,19.1119911 632.147989,17.7080052 634.26,16.676 C636.372011,15.6439948 638.795986,15.128 641.532,15.128 C644.268014,15.128 646.691989,15.6439948 648.804,16.676 C650.916011,17.7080052 652.691993,19.1119911 654.132,20.888 C655.572007,22.6640089 656.663996,24.7159884 657.408,27.044 C658.152004,29.3720116 658.524,31.8559868 658.524,34.496 C658.524,37.1360132 658.152004,39.6319882 657.408,41.984 C656.663996,44.3360118 655.572007,46.3879912 654.132,48.14 C652.691993,49.8920088 650.916011,51.2839948 648.804,52.316 C646.691989,53.3480052 644.268014,53.864 641.532,53.864 C638.795986,53.864 636.372011,53.3480052 634.26,52.316 C632.147989,51.2839948 630.372007,49.8920088 628.932,48.14 C627.491993,46.3879912 626.400004,44.3360118 625.656,41.984 C624.911996,39.6319882 624.54,37.1360132 624.54,34.496 L624.54,34.496 Z M667.668,1.592 L667.668,23.912 L667.812,23.912 C668.292002,22.519993 668.975996,21.2840054 669.864,20.204 C670.752004,19.1239946 671.783994,18.2000038 672.96,17.432 C674.136006,16.6639962 675.419993,16.0880019 676.812,15.704 C678.204007,15.3199981 679.619993,15.128 681.06,15.128 C683.220011,15.128 685.055992,15.3919974 686.568,15.92 C688.080008,16.4480026 689.315995,17.1439957 690.276,18.008 C691.236005,18.8720043 691.991997,19.8439946 692.544,20.924 C693.096003,22.0040054 693.491999,23.0959945 693.732,24.2 C693.972001,25.3040055 694.116,26.3719948 694.164,27.404 C694.212,28.4360052 694.236,29.3359962 694.236,30.104 L694.236,53 L691.5,53 L691.5,29.6 C691.5,28.6399952 691.428001,27.4760068 691.284,26.108 C691.139999,24.7399932 690.720003,23.4200064 690.024,22.148 C689.327997,20.8759936 688.272007,19.7840046 686.856,18.872 C685.439993,17.9599954 683.484012,17.504 680.988,17.504 C678.92399,17.504 677.064008,17.8879962 675.408,18.656 C673.751992,19.4240038 672.348006,20.4919932 671.196,21.86 C670.043994,23.2280068 669.168003,24.8599905 668.568,26.756 C667.967997,28.6520095 667.668,30.7279887 667.668,32.984 L667.668,53 L664.932,53 L664.932,1.592 L667.668,1.592 Z M731.532,49.832 L731.676,49.832 L741.756,15.992 L745.428,15.992 L755.58,49.832 L755.724,49.832 L766.092,15.992 L769.116,15.992 L757.236,53 L753.852,53 L743.7,19.448 L743.556,19.448 L733.332,53 L729.876,53 L718.14,15.992 L721.092,15.992 L731.532,49.832 Z M800.292,46.16 C800.292,46.6880026 800.304,47.2159974 800.328,47.744 C800.352,48.2720026 800.435999,48.7519978 800.58,49.184 C800.724001,49.6160022 800.963998,49.9639987 801.3,50.228 C801.636002,50.4920013 802.115997,50.624 802.74,50.624 C803.220002,50.624 803.891996,50.5520007 804.756,50.408 L804.756,52.712 C804.371998,52.8080005 804.000002,52.8799998 803.64,52.928 C803.279998,52.9760002 802.908002,53 802.524,53 C801.419994,53 800.544003,52.8560014 799.896,52.568 C799.247997,52.2799986 798.756002,51.8960024 798.42,51.416 C798.083998,50.9359976 797.856001,50.3720032 797.736,49.724 C797.615999,49.0759968 797.556,48.3680038 797.556,47.6 L797.556,45.656 L797.412,45.656 C796.979998,46.7600055 796.356004,47.8039951 795.54,48.788 C794.723996,49.7720049 793.728006,50.6479962 792.552,51.416 C791.375994,52.1840038 790.044007,52.7839978 788.556,53.216 C787.067993,53.6480022 785.436009,53.864 783.66,53.864 C781.931991,53.864 780.312008,53.6840018 778.8,53.324 C777.287992,52.9639982 775.968006,52.3760041 774.84,51.56 C773.711994,50.7439959 772.836003,49.6760066 772.212,48.356 C771.587997,47.0359934 771.276,45.3920098 771.276,43.424 C771.276,41.2639892 771.695996,39.5000068 772.536,38.132 C773.376004,36.7639932 774.455993,35.684004 775.776,34.892 C777.096007,34.099996 778.559992,33.5360017 780.168,33.2 C781.776008,32.8639983 783.347992,32.6240007 784.884,32.48 C787.956015,32.287999 790.343991,32.0600013 792.048,31.796 C793.752009,31.5319987 795.011996,31.1240028 795.828,30.572 C796.644004,30.0199972 797.147999,29.3000044 797.34,28.412 C797.532001,27.5239956 797.628,26.3120077 797.628,24.776 C797.628,24.3439978 797.484001,23.732004 797.196,22.94 C796.907999,22.147996 796.392004,21.3440041 795.648,20.528 C794.903996,19.7119959 793.860007,19.004003 792.516,18.404 C791.171993,17.803997 789.444011,17.504 787.332,17.504 C784.019983,17.504 781.34401,18.3439916 779.304,20.024 C777.26399,21.7040084 776.148001,24.1519839 775.956,27.368 L773.22,27.368 C773.412001,23.2879796 774.719988,20.2280102 777.144,18.188 C779.568012,16.1479898 782.963978,15.128 787.332,15.128 C788.964008,15.128 790.547992,15.2719986 792.084,15.56 C793.620008,15.8480014 794.999994,16.3519964 796.224,17.072 C797.448006,17.7920036 798.431996,18.7759938 799.176,20.024 C799.920004,21.2720062 800.292,22.8559904 800.292,24.776 L800.292,46.16 Z M797.556,31.976 C797.027997,32.6000031 796.284005,33.0679984 795.324,33.38 C794.363995,33.6920016 793.272006,33.9199993 792.048,34.064 C790.823994,34.2080007 789.540007,34.3279995 788.196,34.424 C786.851993,34.5200005 785.508007,34.663999 784.164,34.856 C780.899984,35.2400019 778.392009,36.0679936 776.64,37.34 C774.887991,38.6120064 774.012,40.6399861 774.012,43.424 C774.012,45.6800113 774.815992,47.5879922 776.424,49.148 C778.032008,50.7080078 780.467984,51.488 783.732,51.488 C786.852016,51.488 789.323991,50.9240056 791.148,49.796 C792.972009,48.6679944 794.363995,47.3720073 795.324,45.908 C796.284005,44.4439927 796.895999,43.0280068 797.16,41.66 C797.424001,40.2919932 797.556,39.3680024 797.556,38.888 L797.556,31.976 Z M809.652,9.008 L809.652,1.592 L812.388,1.592 L812.388,9.008 L809.652,9.008 Z M809.652,53 L809.652,15.992 L812.388,15.992 L812.388,53 L809.652,53 Z M834.708,18.368 L826.644,18.368 L826.644,44.216 C826.644,45.7040074 826.811998,46.8799957 827.148,47.744 C827.484002,48.6080043 827.999997,49.2559978 828.696,49.688 C829.392003,50.1200022 830.231995,50.3959994 831.216,50.516 C832.200005,50.6360006 833.339994,50.6720002 834.636,50.624 L834.636,53 C833.243993,53.0960005 831.888007,53.0840006 830.568,52.964 C829.247993,52.8439994 828.084005,52.484003 827.076,51.884 C826.067995,51.283997 825.264003,50.384006 824.664,49.184 C824.063997,47.983994 823.812,46.3280106 823.908,44.216 L823.908,18.368 L817.068,18.368 L817.068,15.992 L823.908,15.992 L823.908,4.472 L826.644,4.472 L826.644,15.992 L834.708,15.992 L834.708,18.368 Z M843.852,53 L843.852,45.584 L847.524,45.584 L847.524,53 L843.852,53 Z M863.868,53 L863.868,45.584 L867.54,45.584 L867.54,53 L863.868,53 Z M883.884,53 L883.884,45.584 L887.556,45.584 L887.556,53 L883.884,53 Z" id="oh-wait..." fill="#FFFFFF" sketch:type="MSShapeGroup"></path>
            </g>
        </g>
    </g>
</svg>