<?xml version="1.0" encoding="UTF-8" standalone="no"?>
<svg width="643px" height="389px" viewBox="0 0 643 389" version="1.1" xmlns="http://www.w3.org/2000/svg" xmlns:xlink="http://www.w3.org/1999/xlink" xmlns:sketch="http://www.bohemiancoding.com/sketch/ns">
    <!-- Generator: Sketch 3.4.2 (15857) - http://www.bohemiancoding.com/sketch -->
    <title>Group</title>
    <desc>Created with Sketch.</desc>
    <defs>
        <path id="path-1" d="M0,0.346289404 L59.5266158,0.346289404 L59.5266158,56.4718105 L0,56.4718105 L0,0.346289404 Z"></path>
    </defs>
    <g id="v4" stroke="none" stroke-width="1" fill="none" fill-rule="evenodd" sketch:type="MSPage">
        <g id="Artboard-1" sketch:type="MSArtboardGroup" transform="translate(-461.000000, -311.000000)">
            <g id="Group" sketch:type="MSLayerGroup" transform="translate(451.000000, 302.000000)">
                <path d="M17.848485,172.526863 L14.8554688,40.4511719 L348.480065,36 L653,398 L207.519935,398 L17.848485,172.526863 Z" id="Rectangle-5" opacity="0.15" fill="#000000" sketch:type="MSShapeGroup"></path>
                <path d="M17.848485,172.526863 L17.6097792,117.759766 L301.402351,117.759766 L561.171852,398 L207.519935,398 L17.848485,172.526863 Z" id="Rectangle-5-Copy" opacity="0.15" fill="#000000" sketch:type="MSShapeGroup"></path>
                <path d="M139.154,20.02 L139.118,20.02 C138.733998,20.7520037 138.254003,21.3009982 137.678,21.667 C137.101997,22.0330018 136.400004,22.216 135.572,22.216 C134.875997,22.216 134.276003,22.0840013 133.772,21.82 C133.267997,21.5559987 132.854002,21.2020022 132.53,20.758 C132.205998,20.3139978 131.966001,19.8010029 131.81,19.219 C131.653999,18.6369971 131.576,18.0280032 131.576,17.392 C131.576,16.7079966 131.659999,16.069003 131.828,15.475 C131.996001,14.880997 132.250998,14.3680022 132.593,13.936 C132.935002,13.5039978 133.363997,13.1620013 133.88,12.91 C134.396003,12.6579987 135.001997,12.532 135.698,12.532 C136.070002,12.532 136.435998,12.5829995 136.796,12.685 C137.156002,12.7870005 137.488998,12.933999 137.795,13.126 C138.101002,13.318001 138.367999,13.5579986 138.596,13.846 C138.824001,14.1340014 138.997999,14.4579982 139.118,14.818 L139.154,14.818 L139.154,9.148 L139.838,9.148 L139.838,22 L139.154,22 L139.154,20.02 Z M135.716,21.622 C136.304003,21.622 136.810998,21.5020012 137.237,21.262 C137.663002,21.0219988 138.016999,20.704002 138.299,20.308 C138.581001,19.911998 138.790999,19.4590026 138.929,18.949 C139.067001,18.4389975 139.136,17.9200026 139.136,17.392 C139.136,16.8519973 139.067001,16.3270026 138.929,15.817 C138.790999,15.3069975 138.584001,14.851002 138.308,14.449 C138.031999,14.046998 137.675002,13.7260012 137.237,13.486 C136.798998,13.2459988 136.286003,13.126 135.698,13.126 C135.085997,13.126 134.564002,13.2429988 134.132,13.477 C133.699998,13.7110012 133.343001,14.025998 133.061,14.422 C132.778999,14.818002 132.575001,15.2739974 132.449,15.79 C132.322999,16.3060026 132.26,16.8399972 132.26,17.392 C132.26,17.9320027 132.328999,18.4569975 132.467,18.967 C132.605001,19.4770026 132.814999,19.929998 133.097,20.326 C133.379001,20.722002 133.735998,21.0369988 134.168,21.271 C134.600002,21.5050012 135.115997,21.622 135.716,21.622 L135.716,21.622 Z M149.072,16.87 C149.06,16.3899976 148.976001,15.9220023 148.82,15.466 C148.663999,15.0099977 148.442001,14.6110017 148.154,14.269 C147.865999,13.9269983 147.515002,13.6510011 147.101,13.441 C146.686998,13.230999 146.216003,13.126 145.688,13.126 C145.171997,13.126 144.713002,13.2339989 144.311,13.45 C143.908998,13.6660011 143.564001,13.9509982 143.276,14.305 C142.987999,14.6590018 142.760001,15.0609978 142.592,15.511 C142.423999,15.9610023 142.322,16.4139977 142.286,16.87 L149.072,16.87 Z M142.286,17.464 C142.274,18.0040027 142.336999,18.5259975 142.475,19.03 C142.613001,19.5340025 142.825999,19.9779981 143.114,20.362 C143.402001,20.7460019 143.758998,21.0519989 144.185,21.28 C144.611002,21.5080011 145.111997,21.622 145.688,21.622 C146.564004,21.622 147.292997,21.3790024 147.875,20.893 C148.457003,20.4069976 148.831999,19.7320043 149,18.868 L149.684,18.868 C149.503999,19.9600055 149.069003,20.7909972 148.379,21.361 C147.688997,21.9310029 146.792006,22.216 145.688,22.216 C145.015997,22.216 144.422003,22.0930012 143.906,21.847 C143.389997,21.6009988 142.961002,21.2650021 142.619,20.839 C142.276998,20.4129979 142.019001,19.9150029 141.845,19.345 C141.670999,18.7749972 141.59,18.1720032 141.602,17.536 C141.59,16.8999968 141.664999,16.282003 141.827,15.682 C141.989001,15.081997 142.240998,14.5480023 142.583,14.08 C142.925002,13.6119977 143.353997,13.2370014 143.87,12.955 C144.386003,12.6729986 144.991997,12.532 145.688,12.532 C146.408004,12.532 147.031997,12.6639987 147.56,12.928 C148.088003,13.1920013 148.519998,13.5489978 148.856,13.999 C149.192002,14.4490023 149.434999,14.973997 149.585,15.574 C149.735001,16.174003 149.792,16.8039967 149.756,17.464 L142.286,17.464 Z M151.682,18.922 C151.706,19.3540022 151.801999,19.7349984 151.97,20.065 C152.138001,20.3950017 152.356999,20.6769988 152.627,20.911 C152.897001,21.1450012 153.211998,21.3219994 153.572,21.442 C153.932002,21.5620006 154.321998,21.622 154.742,21.622 C155.042002,21.622 155.362998,21.5950003 155.705,21.541 C156.047002,21.4869997 156.364999,21.3880007 156.659,21.244 C156.953001,21.0999993 157.195999,20.8990013 157.388,20.641 C157.580001,20.3829987 157.676,20.056002 157.676,19.66 C157.676,19.263998 157.586001,18.9460012 157.406,18.706 C157.225999,18.4659988 156.986002,18.2740007 156.686,18.13 C156.385999,17.9859993 156.047002,17.8720004 155.669,17.788 C155.290998,17.7039996 154.904002,17.6200004 154.508,17.536 C154.111998,17.4519996 153.722002,17.3560005 153.338,17.248 C152.953998,17.1399995 152.612002,16.9930009 152.312,16.807 C152.011999,16.6209991 151.772001,16.3750015 151.592,16.069 C151.411999,15.7629985 151.322,15.3760023 151.322,14.908 C151.322,14.4519977 151.423999,14.0710015 151.628,13.765 C151.832001,13.4589985 152.092998,13.2160009 152.411,13.036 C152.729002,12.8559991 153.085998,12.7270004 153.482,12.649 C153.878002,12.5709996 154.273998,12.532 154.67,12.532 C155.162002,12.532 155.614998,12.5859995 156.029,12.694 C156.443002,12.8020005 156.802998,12.9759988 157.109,13.216 C157.415002,13.4560012 157.654999,13.7619981 157.829,14.134 C158.003001,14.5060019 158.09,14.9559974 158.09,15.484 L157.406,15.484 C157.406,15.0639979 157.334001,14.7040015 157.19,14.404 C157.045999,14.1039985 156.854001,13.8610009 156.614,13.675 C156.373999,13.4889991 156.086002,13.3510005 155.75,13.261 C155.413998,13.1709996 155.054002,13.126 154.67,13.126 C154.357998,13.126 154.043002,13.1559997 153.725,13.216 C153.406998,13.2760003 153.122001,13.3779993 152.87,13.522 C152.617999,13.6660007 152.411001,13.8519989 152.249,14.08 C152.086999,14.3080011 152.006,14.5839984 152.006,14.908 C152.006,15.2800019 152.095999,15.5799989 152.276,15.808 C152.456001,16.0360011 152.692999,16.2189993 152.987,16.357 C153.281001,16.4950007 153.610998,16.6059996 153.977,16.69 C154.343002,16.7740004 154.711998,16.8579996 155.084,16.942 C155.540002,17.0260004 155.968998,17.1249994 156.371,17.239 C156.773002,17.3530006 157.120999,17.508999 157.415,17.707 C157.709001,17.905001 157.939999,18.1599984 158.108,18.472 C158.276001,18.7840016 158.36,19.1799976 158.36,19.66 C158.36,20.1640025 158.246001,20.5779984 158.018,20.902 C157.789999,21.2260016 157.502002,21.486999 157.154,21.685 C156.805998,21.883001 156.419002,22.0209996 155.993,22.099 C155.566998,22.1770004 155.150002,22.216 154.742,22.216 C154.213997,22.216 153.725002,22.1470007 153.275,22.009 C152.824998,21.8709993 152.432002,21.6610014 152.096,21.379 C151.759998,21.0969986 151.496001,20.752002 151.304,20.344 C151.111999,19.935998 151.01,19.4620027 150.998,18.922 L151.682,18.922 Z M160.178,11.002 L160.178,9.148 L160.862,9.148 L160.862,11.002 L160.178,11.002 Z M160.178,22 L160.178,12.748 L160.862,12.748 L160.862,22 L160.178,22 Z M170.69,12.748 L170.69,21.514 C170.69,21.6340006 170.684,21.8199987 170.672,22.072 C170.66,22.3240013 170.618,22.6029985 170.546,22.909 C170.474,23.2150015 170.357001,23.5269984 170.195,23.845 C170.032999,24.1630016 169.805001,24.4509987 169.511,24.709 C169.216999,24.9670013 168.839002,25.1739992 168.377,25.33 C167.914998,25.4860008 167.354003,25.5520001 166.694,25.528 C166.201998,25.528 165.740002,25.4770005 165.308,25.375 C164.875998,25.2729995 164.501002,25.1110011 164.183,24.889 C163.864998,24.6669989 163.607001,24.3730018 163.409,24.007 C163.210999,23.6409982 163.1,23.1880027 163.076,22.648 L163.76,22.648 C163.796,23.056002 163.897999,23.4039986 164.066,23.692 C164.234001,23.9800014 164.452999,24.2169991 164.723,24.403 C164.993001,24.5890009 165.295998,24.7239996 165.632,24.808 C165.968002,24.8920004 166.327998,24.934 166.712,24.934 C167.252003,24.934 167.707998,24.8680007 168.08,24.736 C168.452002,24.6039993 168.760999,24.4330011 169.007,24.223 C169.253001,24.012999 169.441999,23.7820013 169.574,23.53 C169.706001,23.2779987 169.805,23.0320012 169.871,22.792 C169.937,22.5519988 169.976,22.333001 169.988,22.135 C170,21.936999 170.006,21.7840005 170.006,21.676 L170.006,19.552 L169.97,19.552 C169.645998,20.2360034 169.205003,20.7579982 168.647,21.118 C168.088997,21.4780018 167.414004,21.658 166.622,21.658 C165.937997,21.658 165.347002,21.5410012 164.849,21.307 C164.350998,21.0729988 163.937002,20.7490021 163.607,20.335 C163.276998,19.9209979 163.031001,19.4380028 162.869,18.886 C162.706999,18.3339972 162.626,17.7340032 162.626,17.086 C162.626,16.4739969 162.712999,15.8920028 162.887,15.34 C163.061001,14.7879972 163.315998,14.3050021 163.652,13.891 C163.988002,13.4769979 164.404998,13.1470012 164.903,12.901 C165.401002,12.6549988 165.973997,12.532 166.622,12.532 C166.982002,12.532 167.335998,12.5799995 167.684,12.676 C168.032002,12.7720005 168.352999,12.9099991 168.647,13.09 C168.941001,13.2700009 169.201999,13.4919987 169.43,13.756 C169.658001,14.0200013 169.837999,14.3259983 169.97,14.674 L170.006,14.674 L170.006,12.748 L170.69,12.748 Z M166.622,13.126 C166.057997,13.126 165.569002,13.2399989 165.155,13.468 C164.740998,13.6960011 164.399001,13.9959981 164.129,14.368 C163.858999,14.7400019 163.655001,15.1629976 163.517,15.637 C163.378999,16.1110024 163.31,16.5939975 163.31,17.086 C163.31,17.6260027 163.378999,18.1389976 163.517,18.625 C163.655001,19.1110024 163.864999,19.5339982 164.147,19.894 C164.429001,20.2540018 164.776998,20.538999 165.191,20.749 C165.605002,20.9590011 166.081997,21.064 166.622,21.064 C167.186003,21.064 167.677998,20.9560011 168.098,20.74 C168.518002,20.5239989 168.868999,20.2300019 169.151,19.858 C169.433001,19.4859981 169.642999,19.0630024 169.781,18.589 C169.919001,18.1149976 169.988,17.6140026 169.988,17.086 C169.988,16.5699974 169.919001,16.0720024 169.781,15.592 C169.642999,15.1119976 169.433001,14.6890018 169.151,14.323 C168.868999,13.9569982 168.518002,13.6660011 168.098,13.45 C167.677998,13.2339989 167.186003,13.126 166.622,13.126 L166.622,13.126 Z M172.706,12.748 L173.39,12.748 L173.39,14.728 L173.426,14.728 C173.546001,14.3799983 173.716999,14.0710014 173.939,13.801 C174.161001,13.5309987 174.418999,13.300001 174.713,13.108 C175.007001,12.915999 175.327998,12.7720005 175.676,12.676 C176.024002,12.5799995 176.377998,12.532 176.738,12.532 C177.278003,12.532 177.736998,12.5979993 178.115,12.73 C178.493002,12.8620007 178.801999,13.0359989 179.042,13.252 C179.282001,13.4680011 179.470999,13.7109987 179.609,13.981 C179.747001,14.2510014 179.846,14.5239986 179.906,14.8 C179.966,15.0760014 180.002,15.3429987 180.014,15.601 C180.026,15.8590013 180.032,16.083999 180.032,16.276 L180.032,22 L179.348,22 L179.348,16.15 C179.348,15.9099988 179.33,15.6190017 179.294,15.277 C179.258,14.9349983 179.153001,14.6050016 178.979,14.287 C178.804999,13.9689984 178.541002,13.6960011 178.187,13.468 C177.832998,13.2399989 177.344003,13.126 176.72,13.126 C176.203997,13.126 175.739002,13.221999 175.325,13.414 C174.910998,13.606001 174.560001,13.8729983 174.272,14.215 C173.983999,14.5570017 173.765001,14.9649976 173.615,15.439 C173.464999,15.9130024 173.39,16.4319972 173.39,16.996 L173.39,22 L172.706,22 L172.706,12.748 Z M188.87,20.29 C188.87,20.4220007 188.873,20.5539993 188.879,20.686 C188.885,20.8180007 188.906,20.9379995 188.942,21.046 C188.978,21.1540005 189.038,21.2409997 189.122,21.307 C189.206,21.3730003 189.325999,21.406 189.482,21.406 C189.602001,21.406 189.769999,21.3880002 189.986,21.352 L189.986,21.928 C189.89,21.9520001 189.797,21.9699999 189.707,21.982 C189.617,21.9940001 189.524,22 189.428,22 C189.151999,22 188.933001,21.9640004 188.771,21.892 C188.608999,21.8199996 188.486,21.7240006 188.402,21.604 C188.318,21.4839994 188.261,21.3430008 188.231,21.181 C188.201,21.0189992 188.186,20.842001 188.186,20.65 L188.186,20.164 L188.15,20.164 C188.041999,20.4400014 187.886001,20.7009988 187.682,20.947 C187.477999,21.1930012 187.229001,21.411999 186.935,21.604 C186.640999,21.796001 186.308002,21.9459995 185.936,22.054 C185.563998,22.1620005 185.156002,22.216 184.712,22.216 C184.279998,22.216 183.875002,22.1710005 183.497,22.081 C183.118998,21.9909996 182.789001,21.844001 182.507,21.64 C182.224999,21.435999 182.006001,21.1690017 181.85,20.839 C181.693999,20.5089984 181.616,20.0980025 181.616,19.606 C181.616,19.0659973 181.720999,18.6250017 181.931,18.283 C182.141001,17.9409983 182.410998,17.671001 182.741,17.473 C183.071002,17.274999 183.436998,17.1340004 183.839,17.05 C184.241002,16.9659996 184.633998,16.9060002 185.018,16.87 C185.786004,16.8219998 186.382998,16.7650003 186.809,16.699 C187.235002,16.6329997 187.549999,16.5310007 187.754,16.393 C187.958001,16.2549993 188.084,16.0750011 188.132,15.853 C188.18,15.6309989 188.204,15.3280019 188.204,14.944 C188.204,14.8359995 188.168,14.683001 188.096,14.485 C188.024,14.286999 187.895001,14.086001 187.709,13.882 C187.522999,13.677999 187.262002,13.5010008 186.926,13.351 C186.589998,13.2009993 186.158003,13.126 185.63,13.126 C184.801996,13.126 184.133003,13.3359979 183.623,13.756 C183.112997,14.1760021 182.834,14.787996 182.786,15.592 L182.102,15.592 C182.15,14.5719949 182.476997,13.8070026 183.083,13.297 C183.689003,12.7869975 184.537995,12.532 185.63,12.532 C186.038002,12.532 186.433998,12.5679996 186.818,12.64 C187.202002,12.7120004 187.546998,12.8379991 187.853,13.018 C188.159002,13.1980009 188.404999,13.4439984 188.591,13.756 C188.777001,14.0680016 188.87,14.4639976 188.87,14.944 L188.87,20.29 Z M188.186,16.744 C188.053999,16.9000008 187.868001,17.0169996 187.628,17.095 C187.387999,17.1730004 187.115002,17.2299998 186.809,17.266 C186.502998,17.3020002 186.182002,17.3319999 185.846,17.356 C185.509998,17.3800001 185.174002,17.4159998 184.838,17.464 C184.021996,17.5600005 183.395002,17.7669984 182.957,18.085 C182.518998,18.4030016 182.3,18.9099965 182.3,19.606 C182.3,20.1700028 182.500998,20.6469981 182.903,21.037 C183.305002,21.427002 183.913996,21.622 184.73,21.622 C185.510004,21.622 186.127998,21.4810014 186.584,21.199 C187.040002,20.9169986 187.387999,20.5930018 187.628,20.227 C187.868001,19.8609982 188.021,19.5070017 188.087,19.165 C188.153,18.8229983 188.186,18.5920006 188.186,18.472 L188.186,16.744 Z M190.04,13.342 L190.04,12.748 L191.696,12.748 L191.696,10.84 C191.696,10.5159984 191.749999,10.2370012 191.858,10.003 C191.966001,9.76899883 192.112999,9.58000072 192.299,9.436 C192.485001,9.29199928 192.700999,9.18400036 192.947,9.112 C193.193001,9.03999964 193.453999,9.004 193.73,9.004 C193.970001,9.004 194.239999,9.0339997 194.54,9.094 L194.54,9.688 C194.239999,9.6279997 193.970001,9.598 193.73,9.598 C193.345998,9.598 193.025001,9.68499913 192.767,9.859 C192.508999,10.0330009 192.38,10.3779974 192.38,10.894 L192.38,12.748 L194.306,12.748 L194.306,13.342 L192.38,13.342 L192.38,22 L191.696,22 L191.696,13.342 L190.04,13.342 Z M194.378,13.342 L194.378,12.748 L196.034,12.748 L196.034,10.84 C196.034,10.5159984 196.087999,10.2370012 196.196,10.003 C196.304001,9.76899883 196.450999,9.58000072 196.637,9.436 C196.823001,9.29199928 197.038999,9.18400036 197.285,9.112 C197.531001,9.03999964 197.791999,9.004 198.068,9.004 C198.308001,9.004 198.577999,9.0339997 198.878,9.094 L198.878,9.688 C198.577999,9.6279997 198.308001,9.598 198.068,9.598 C197.683998,9.598 197.363001,9.68499913 197.105,9.859 C196.846999,10.0330009 196.718,10.3779974 196.718,10.894 L196.718,12.748 L198.644,12.748 L198.644,13.342 L196.718,13.342 L196.718,22 L196.034,22 L196.034,13.342 L194.378,13.342 Z M206.546,20.29 C206.546,20.4220007 206.549,20.5539993 206.555,20.686 C206.561,20.8180007 206.582,20.9379995 206.618,21.046 C206.654,21.1540005 206.714,21.2409997 206.798,21.307 C206.882,21.3730003 207.001999,21.406 207.158,21.406 C207.278001,21.406 207.445999,21.3880002 207.662,21.352 L207.662,21.928 C207.566,21.9520001 207.473,21.9699999 207.383,21.982 C207.293,21.9940001 207.2,22 207.104,22 C206.827999,22 206.609001,21.9640004 206.447,21.892 C206.284999,21.8199996 206.162,21.7240006 206.078,21.604 C205.994,21.4839994 205.937,21.3430008 205.907,21.181 C205.877,21.0189992 205.862,20.842001 205.862,20.65 L205.862,20.164 L205.826,20.164 C205.717999,20.4400014 205.562001,20.7009988 205.358,20.947 C205.153999,21.1930012 204.905001,21.411999 204.611,21.604 C204.316999,21.796001 203.984002,21.9459995 203.612,22.054 C203.239998,22.1620005 202.832002,22.216 202.388,22.216 C201.955998,22.216 201.551002,22.1710005 201.173,22.081 C200.794998,21.9909996 200.465001,21.844001 200.183,21.64 C199.900999,21.435999 199.682001,21.1690017 199.526,20.839 C199.369999,20.5089984 199.292,20.0980025 199.292,19.606 C199.292,19.0659973 199.396999,18.6250017 199.607,18.283 C199.817001,17.9409983 200.086998,17.671001 200.417,17.473 C200.747002,17.274999 201.112998,17.1340004 201.515,17.05 C201.917002,16.9659996 202.309998,16.9060002 202.694,16.87 C203.462004,16.8219998 204.058998,16.7650003 204.485,16.699 C204.911002,16.6329997 205.225999,16.5310007 205.43,16.393 C205.634001,16.2549993 205.76,16.0750011 205.808,15.853 C205.856,15.6309989 205.88,15.3280019 205.88,14.944 C205.88,14.8359995 205.844,14.683001 205.772,14.485 C205.7,14.286999 205.571001,14.086001 205.385,13.882 C205.198999,13.677999 204.938002,13.5010008 204.602,13.351 C204.265998,13.2009993 203.834003,13.126 203.306,13.126 C202.477996,13.126 201.809003,13.3359979 201.299,13.756 C200.788997,14.1760021 200.51,14.787996 200.462,15.592 L199.778,15.592 C199.826,14.5719949 200.152997,13.8070026 200.759,13.297 C201.365003,12.7869975 202.213995,12.532 203.306,12.532 C203.714002,12.532 204.109998,12.5679996 204.494,12.64 C204.878002,12.7120004 205.222998,12.8379991 205.529,13.018 C205.835002,13.1980009 206.080999,13.4439984 206.267,13.756 C206.453001,14.0680016 206.546,14.4639976 206.546,14.944 L206.546,20.29 Z M205.862,16.744 C205.729999,16.9000008 205.544001,17.0169996 205.304,17.095 C205.063999,17.1730004 204.791002,17.2299998 204.485,17.266 C204.178998,17.3020002 203.858002,17.3319999 203.522,17.356 C203.185998,17.3800001 202.850002,17.4159998 202.514,17.464 C201.697996,17.5600005 201.071002,17.7669984 200.633,18.085 C200.194998,18.4030016 199.976,18.9099965 199.976,19.606 C199.976,20.1700028 200.176998,20.6469981 200.579,21.037 C200.981002,21.427002 201.589996,21.622 202.406,21.622 C203.186004,21.622 203.803998,21.4810014 204.26,21.199 C204.716002,20.9169986 205.063999,20.5930018 205.304,20.227 C205.544001,19.8609982 205.697,19.5070017 205.763,19.165 C205.829,18.8229983 205.862,18.5920006 205.862,18.472 L205.862,16.744 Z M208.886,11.002 L208.886,9.148 L209.57,9.148 L209.57,11.002 L208.886,11.002 Z M208.886,22 L208.886,12.748 L209.57,12.748 L209.57,22 L208.886,22 Z M212.432,14.8 L212.486,14.8 C212.57,14.4999985 212.725999,14.2180013 212.954,13.954 C213.182001,13.6899987 213.451998,13.462001 213.764,13.27 C214.076002,13.077999 214.426998,12.9310005 214.817,12.829 C215.207002,12.7269995 215.611998,12.6819999 216.032,12.694 L216.032,13.378 C215.671998,13.3299998 215.261002,13.3659994 214.799,13.486 C214.336998,13.6060006 213.896002,13.869998 213.476,14.278 C213.307999,14.4580009 213.161001,14.6319992 213.035,14.8 C212.908999,14.9680008 212.804,15.153999 212.72,15.358 C212.636,15.562001 212.57,15.7899987 212.522,16.042 C212.474,16.2940013 212.444,16.5939983 212.432,16.942 L212.432,22 L211.748,22 L211.748,12.748 L212.432,12.748 L212.432,14.8 Z M217.076,18.922 C217.1,19.3540022 217.195999,19.7349984 217.364,20.065 C217.532001,20.3950017 217.750999,20.6769988 218.021,20.911 C218.291001,21.1450012 218.605998,21.3219994 218.966,21.442 C219.326002,21.5620006 219.715998,21.622 220.136,21.622 C220.436002,21.622 220.756998,21.5950003 221.099,21.541 C221.441002,21.4869997 221.758999,21.3880007 222.053,21.244 C222.347001,21.0999993 222.589999,20.8990013 222.782,20.641 C222.974001,20.3829987 223.07,20.056002 223.07,19.66 C223.07,19.263998 222.980001,18.9460012 222.8,18.706 C222.619999,18.4659988 222.380002,18.2740007 222.08,18.13 C221.779999,17.9859993 221.441002,17.8720004 221.063,17.788 C220.684998,17.7039996 220.298002,17.6200004 219.902,17.536 C219.505998,17.4519996 219.116002,17.3560005 218.732,17.248 C218.347998,17.1399995 218.006002,16.9930009 217.706,16.807 C217.405999,16.6209991 217.166001,16.3750015 216.986,16.069 C216.805999,15.7629985 216.716,15.3760023 216.716,14.908 C216.716,14.4519977 216.817999,14.0710015 217.022,13.765 C217.226001,13.4589985 217.486998,13.2160009 217.805,13.036 C218.123002,12.8559991 218.479998,12.7270004 218.876,12.649 C219.272002,12.5709996 219.667998,12.532 220.064,12.532 C220.556002,12.532 221.008998,12.5859995 221.423,12.694 C221.837002,12.8020005 222.196998,12.9759988 222.503,13.216 C222.809002,13.4560012 223.048999,13.7619981 223.223,14.134 C223.397001,14.5060019 223.484,14.9559974 223.484,15.484 L222.8,15.484 C222.8,15.0639979 222.728001,14.7040015 222.584,14.404 C222.439999,14.1039985 222.248001,13.8610009 222.008,13.675 C221.767999,13.4889991 221.480002,13.3510005 221.144,13.261 C220.807998,13.1709996 220.448002,13.126 220.064,13.126 C219.751998,13.126 219.437002,13.1559997 219.119,13.216 C218.800998,13.2760003 218.516001,13.3779993 218.264,13.522 C218.011999,13.6660007 217.805001,13.8519989 217.643,14.08 C217.480999,14.3080011 217.4,14.5839984 217.4,14.908 C217.4,15.2800019 217.489999,15.5799989 217.67,15.808 C217.850001,16.0360011 218.086999,16.2189993 218.381,16.357 C218.675001,16.4950007 219.004998,16.6059996 219.371,16.69 C219.737002,16.7740004 220.105998,16.8579996 220.478,16.942 C220.934002,17.0260004 221.362998,17.1249994 221.765,17.239 C222.167002,17.3530006 222.514999,17.508999 222.809,17.707 C223.103001,17.905001 223.333999,18.1599984 223.502,18.472 C223.670001,18.7840016 223.754,19.1799976 223.754,19.66 C223.754,20.1640025 223.640001,20.5779984 223.412,20.902 C223.183999,21.2260016 222.896002,21.486999 222.548,21.685 C222.199998,21.883001 221.813002,22.0209996 221.387,22.099 C220.960998,22.1770004 220.544002,22.216 220.136,22.216 C219.607997,22.216 219.119002,22.1470007 218.669,22.009 C218.218998,21.8709993 217.826002,21.6610014 217.49,21.379 C217.153998,21.0969986 216.890001,20.752002 216.698,20.344 C216.505999,19.935998 216.404,19.4620027 216.392,18.922 L217.076,18.922 Z M231.26,14.872 L231.296,14.872 C231.368,14.6439989 231.487999,14.3920014 231.656,14.116 C231.824001,13.8399986 232.045999,13.5850012 232.322,13.351 C232.598001,13.1169988 232.930998,12.9220008 233.321,12.766 C233.711002,12.6099992 234.157997,12.532 234.662,12.532 C235.370004,12.532 235.984997,12.6639987 236.507,12.928 C237.029003,13.1920013 237.460998,13.5459978 237.803,13.99 C238.145002,14.4340022 238.399999,14.9499971 238.568,15.538 C238.736001,16.1260029 238.82,16.7439968 238.82,17.392 C238.82,18.1000035 238.736001,18.7479971 238.568,19.336 C238.399999,19.9240029 238.145002,20.4309979 237.803,20.857 C237.460998,21.2830021 237.029003,21.6159988 236.507,21.856 C235.984997,22.0960012 235.370004,22.216 234.662,22.216 C233.893996,22.216 233.210003,22.0480017 232.61,21.712 C232.009997,21.3759983 231.572001,20.8300038 231.296,20.074 L231.26,20.074 L231.26,25.312 L230.576,25.312 L230.576,12.748 L231.26,12.748 L231.26,14.872 Z M234.662,21.622 C235.262003,21.622 235.780998,21.5080011 236.219,21.28 C236.657002,21.0519989 237.016999,20.7460019 237.299,20.362 C237.581001,19.9779981 237.790999,19.5310026 237.929,19.021 C238.067001,18.5109975 238.136,17.9680029 238.136,17.392 C238.136,16.8639974 238.070001,16.3450026 237.938,15.835 C237.805999,15.3249975 237.602001,14.869002 237.326,14.467 C237.049999,14.064998 236.693002,13.7410012 236.255,13.495 C235.816998,13.2489988 235.286003,13.126 234.662,13.126 C234.049997,13.126 233.528002,13.2459988 233.096,13.486 C232.663998,13.7260012 232.313001,14.043998 232.043,14.44 C231.772999,14.836002 231.578001,15.2889975 231.458,15.799 C231.337999,16.3090026 231.278,16.8399972 231.278,17.392 C231.278,17.9440028 231.331999,18.4749975 231.44,18.985 C231.548001,19.4950026 231.730999,19.9449981 231.989,20.335 C232.247001,20.725002 232.594998,21.0369988 233.033,21.271 C233.471002,21.5050012 234.013997,21.622 234.662,21.622 L234.662,21.622 Z M241.106,14.8 L241.16,14.8 C241.244,14.4999985 241.399999,14.2180013 241.628,13.954 C241.856001,13.6899987 242.125998,13.462001 242.438,13.27 C242.750002,13.077999 243.100998,12.9310005 243.491,12.829 C243.881002,12.7269995 244.285998,12.6819999 244.706,12.694 L244.706,13.378 C244.345998,13.3299998 243.935002,13.3659994 243.473,13.486 C243.010998,13.6060006 242.570002,13.869998 242.15,14.278 C241.981999,14.4580009 241.835001,14.6319992 241.709,14.8 C241.582999,14.9680008 241.478,15.153999 241.394,15.358 C241.31,15.562001 241.244,15.7899987 241.196,16.042 C241.148,16.2940013 241.118,16.5939983 241.106,16.942 L241.106,22 L240.422,22 L240.422,12.748 L241.106,12.748 L241.106,14.8 Z M252.482,16.87 C252.47,16.3899976 252.386001,15.9220023 252.23,15.466 C252.073999,15.0099977 251.852001,14.6110017 251.564,14.269 C251.275999,13.9269983 250.925002,13.6510011 250.511,13.441 C250.096998,13.230999 249.626003,13.126 249.098,13.126 C248.581997,13.126 248.123002,13.2339989 247.721,13.45 C247.318998,13.6660011 246.974001,13.9509982 246.686,14.305 C246.397999,14.6590018 246.170001,15.0609978 246.002,15.511 C245.833999,15.9610023 245.732,16.4139977 245.696,16.87 L252.482,16.87 Z M245.696,17.464 C245.684,18.0040027 245.746999,18.5259975 245.885,19.03 C246.023001,19.5340025 246.235999,19.9779981 246.524,20.362 C246.812001,20.7460019 247.168998,21.0519989 247.595,21.28 C248.021002,21.5080011 248.521997,21.622 249.098,21.622 C249.974004,21.622 250.702997,21.3790024 251.285,20.893 C251.867003,20.4069976 252.241999,19.7320043 252.41,18.868 L253.094,18.868 C252.913999,19.9600055 252.479003,20.7909972 251.789,21.361 C251.098997,21.9310029 250.202006,22.216 249.098,22.216 C248.425997,22.216 247.832003,22.0930012 247.316,21.847 C246.799997,21.6009988 246.371002,21.2650021 246.029,20.839 C245.686998,20.4129979 245.429001,19.9150029 245.255,19.345 C245.080999,18.7749972 245,18.1720032 245.012,17.536 C245,16.8999968 245.074999,16.282003 245.237,15.682 C245.399001,15.081997 245.650998,14.5480023 245.993,14.08 C246.335002,13.6119977 246.763997,13.2370014 247.28,12.955 C247.796003,12.6729986 248.401997,12.532 249.098,12.532 C249.818004,12.532 250.441997,12.6639987 250.97,12.928 C251.498003,13.1920013 251.929998,13.5489978 252.266,13.999 C252.602002,14.4490023 252.844999,14.973997 252.995,15.574 C253.145001,16.174003 253.202,16.8039967 253.166,17.464 L245.696,17.464 Z M255.092,18.922 C255.116,19.3540022 255.211999,19.7349984 255.38,20.065 C255.548001,20.3950017 255.766999,20.6769988 256.037,20.911 C256.307001,21.1450012 256.621998,21.3219994 256.982,21.442 C257.342002,21.5620006 257.731998,21.622 258.152,21.622 C258.452002,21.622 258.772998,21.5950003 259.115,21.541 C259.457002,21.4869997 259.774999,21.3880007 260.069,21.244 C260.363001,21.0999993 260.605999,20.8990013 260.798,20.641 C260.990001,20.3829987 261.086,20.056002 261.086,19.66 C261.086,19.263998 260.996001,18.9460012 260.816,18.706 C260.635999,18.4659988 260.396002,18.2740007 260.096,18.13 C259.795998,17.9859993 259.457002,17.8720004 259.079,17.788 C258.700998,17.7039996 258.314002,17.6200004 257.918,17.536 C257.521998,17.4519996 257.132002,17.3560005 256.748,17.248 C256.363998,17.1399995 256.022001,16.9930009 255.722,16.807 C255.421999,16.6209991 255.182001,16.3750015 255.002,16.069 C254.821999,15.7629985 254.732,15.3760023 254.732,14.908 C254.732,14.4519977 254.833999,14.0710015 255.038,13.765 C255.242001,13.4589985 255.502998,13.2160009 255.821,13.036 C256.139002,12.8559991 256.495998,12.7270004 256.892,12.649 C257.288002,12.5709996 257.683998,12.532 258.08,12.532 C258.572002,12.532 259.024998,12.5859995 259.439,12.694 C259.853002,12.8020005 260.212998,12.9759988 260.519,13.216 C260.825002,13.4560012 261.064999,13.7619981 261.239,14.134 C261.413001,14.5060019 261.5,14.9559974 261.5,15.484 L260.816,15.484 C260.816,15.0639979 260.744001,14.7040015 260.6,14.404 C260.455999,14.1039985 260.264001,13.8610009 260.024,13.675 C259.783999,13.4889991 259.496002,13.3510005 259.16,13.261 C258.823998,13.1709996 258.464002,13.126 258.08,13.126 C257.767998,13.126 257.453002,13.1559997 257.135,13.216 C256.816998,13.2760003 256.532001,13.3779993 256.28,13.522 C256.027999,13.6660007 255.821001,13.8519989 255.659,14.08 C255.496999,14.3080011 255.416,14.5839984 255.416,14.908 C255.416,15.2800019 255.505999,15.5799989 255.686,15.808 C255.866001,16.0360011 256.102999,16.2189993 256.397,16.357 C256.691001,16.4950007 257.020998,16.6059996 257.387,16.69 C257.753002,16.7740004 258.121998,16.8579996 258.494,16.942 C258.950002,17.0260004 259.378998,17.1249994 259.781,17.239 C260.183002,17.3530006 260.530999,17.508999 260.825,17.707 C261.119001,17.905001 261.349999,18.1599984 261.518,18.472 C261.686001,18.7840016 261.77,19.1799976 261.77,19.66 C261.77,20.1640025 261.656001,20.5779984 261.428,20.902 C261.199999,21.2260016 260.912002,21.486999 260.564,21.685 C260.215998,21.883001 259.829002,22.0209996 259.403,22.099 C258.976998,22.1770004 258.560002,22.216 258.152,22.216 C257.623997,22.216 257.135002,22.1470007 256.685,22.009 C256.234998,21.8709993 255.842002,21.6610014 255.506,21.379 C255.169998,21.0969986 254.906001,20.752002 254.714,20.344 C254.521999,19.935998 254.42,19.4620027 254.408,18.922 L255.092,18.922 Z M270.482,16.87 C270.47,16.3899976 270.386001,15.9220023 270.23,15.466 C270.073999,15.0099977 269.852001,14.6110017 269.564,14.269 C269.275999,13.9269983 268.925002,13.6510011 268.511,13.441 C268.096998,13.230999 267.626003,13.126 267.098,13.126 C266.581997,13.126 266.123002,13.2339989 265.721,13.45 C265.318998,13.6660011 264.974001,13.9509982 264.686,14.305 C264.397999,14.6590018 264.170001,15.0609978 264.002,15.511 C263.833999,15.9610023 263.732,16.4139977 263.696,16.87 L270.482,16.87 Z M263.696,17.464 C263.684,18.0040027 263.746999,18.5259975 263.885,19.03 C264.023001,19.5340025 264.235999,19.9779981 264.524,20.362 C264.812001,20.7460019 265.168998,21.0519989 265.595,21.28 C266.021002,21.5080011 266.521997,21.622 267.098,21.622 C267.974004,21.622 268.702997,21.3790024 269.285,20.893 C269.867003,20.4069976 270.241999,19.7320043 270.41,18.868 L271.094,18.868 C270.913999,19.9600055 270.479003,20.7909972 269.789,21.361 C269.098997,21.9310029 268.202006,22.216 267.098,22.216 C266.425997,22.216 265.832003,22.0930012 265.316,21.847 C264.799997,21.6009988 264.371002,21.2650021 264.029,20.839 C263.686998,20.4129979 263.429001,19.9150029 263.255,19.345 C263.080999,18.7749972 263,18.1720032 263.012,17.536 C263,16.8999968 263.074999,16.282003 263.237,15.682 C263.399001,15.081997 263.650998,14.5480023 263.993,14.08 C264.335002,13.6119977 264.763997,13.2370014 265.28,12.955 C265.796003,12.6729986 266.401997,12.532 267.098,12.532 C267.818004,12.532 268.441997,12.6639987 268.97,12.928 C269.498003,13.1920013 269.929998,13.5489978 270.266,13.999 C270.602002,14.4490023 270.844999,14.973997 270.995,15.574 C271.145001,16.174003 271.202,16.8039967 271.166,17.464 L263.696,17.464 Z M272.768,12.748 L273.452,12.748 L273.452,14.728 L273.488,14.728 C273.608001,14.3799983 273.778999,14.0710014 274.001,13.801 C274.223001,13.5309987 274.480999,13.300001 274.775,13.108 C275.069001,12.915999 275.389998,12.7720005 275.738,12.676 C276.086002,12.5799995 276.439998,12.532 276.8,12.532 C277.340003,12.532 277.798998,12.5979993 278.177,12.73 C278.555002,12.8620007 278.863999,13.0359989 279.104,13.252 C279.344001,13.4680011 279.532999,13.7109987 279.671,13.981 C279.809001,14.2510014 279.908,14.5239986 279.968,14.8 C280.028,15.0760014 280.064,15.3429987 280.076,15.601 C280.088,15.8590013 280.094,16.083999 280.094,16.276 L280.094,22 L279.41,22 L279.41,16.15 C279.41,15.9099988 279.392,15.6190017 279.356,15.277 C279.32,14.9349983 279.215001,14.6050016 279.041,14.287 C278.866999,13.9689984 278.603002,13.6960011 278.249,13.468 C277.894998,13.2399989 277.406003,13.126 276.782,13.126 C276.265997,13.126 275.801002,13.221999 275.387,13.414 C274.972998,13.606001 274.622001,13.8729983 274.334,14.215 C274.045999,14.5570017 273.827001,14.9649976 273.677,15.439 C273.526999,15.9130024 273.452,16.4319972 273.452,16.996 L273.452,22 L272.768,22 L272.768,12.748 Z M285.512,13.342 L283.496,13.342 L283.496,19.804 C283.496,20.1760019 283.538,20.4699989 283.622,20.686 C283.706,20.9020011 283.834999,21.0639995 284.009,21.172 C284.183001,21.2800005 284.392999,21.3489999 284.639,21.379 C284.885001,21.4090002 285.169998,21.4180001 285.494,21.406 L285.494,22 C285.145998,22.0240001 284.807002,22.0210002 284.477,21.991 C284.146998,21.9609999 283.856001,21.8710008 283.604,21.721 C283.351999,21.5709993 283.151001,21.3460015 283.001,21.046 C282.850999,20.7459985 282.788,20.3320026 282.812,19.804 L282.812,13.342 L281.102,13.342 L281.102,12.748 L282.812,12.748 L282.812,9.868 L283.496,9.868 L283.496,12.748 L285.512,12.748 L285.512,13.342 Z M287.096,18.922 C287.12,19.3540022 287.215999,19.7349984 287.384,20.065 C287.552001,20.3950017 287.770999,20.6769988 288.041,20.911 C288.311001,21.1450012 288.625998,21.3219994 288.986,21.442 C289.346002,21.5620006 289.735998,21.622 290.156,21.622 C290.456001,21.622 290.776998,21.5950003 291.119,21.541 C291.461002,21.4869997 291.778999,21.3880007 292.073,21.244 C292.367001,21.0999993 292.609999,20.8990013 292.802,20.641 C292.994001,20.3829987 293.09,20.056002 293.09,19.66 C293.09,19.263998 293.000001,18.9460012 292.82,18.706 C292.639999,18.4659988 292.400002,18.2740007 292.1,18.13 C291.799999,17.9859993 291.461002,17.8720004 291.083,17.788 C290.704998,17.7039996 290.318002,17.6200004 289.922,17.536 C289.525998,17.4519996 289.136002,17.3560005 288.752,17.248 C288.367998,17.1399995 288.026002,16.9930009 287.726,16.807 C287.425998,16.6209991 287.186001,16.3750015 287.006,16.069 C286.825999,15.7629985 286.736,15.3760023 286.736,14.908 C286.736,14.4519977 286.837999,14.0710015 287.042,13.765 C287.246001,13.4589985 287.506998,13.2160009 287.825,13.036 C288.143002,12.8559991 288.499998,12.7270004 288.896,12.649 C289.292002,12.5709996 289.687998,12.532 290.084,12.532 C290.576002,12.532 291.028998,12.5859995 291.443,12.694 C291.857002,12.8020005 292.216998,12.9759988 292.523,13.216 C292.829002,13.4560012 293.068999,13.7619981 293.243,14.134 C293.417001,14.5060019 293.504,14.9559974 293.504,15.484 L292.82,15.484 C292.82,15.0639979 292.748001,14.7040015 292.604,14.404 C292.459999,14.1039985 292.268001,13.8610009 292.028,13.675 C291.787999,13.4889991 291.500002,13.3510005 291.164,13.261 C290.827998,13.1709996 290.468002,13.126 290.084,13.126 C289.771998,13.126 289.457002,13.1559997 289.139,13.216 C288.820998,13.2760003 288.536001,13.3779993 288.284,13.522 C288.031999,13.6660007 287.825001,13.8519989 287.663,14.08 C287.500999,14.3080011 287.42,14.5839984 287.42,14.908 C287.42,15.2800019 287.509999,15.5799989 287.69,15.808 C287.870001,16.0360011 288.106999,16.2189993 288.401,16.357 C288.695001,16.4950007 289.024998,16.6059996 289.391,16.69 C289.757002,16.7740004 290.125998,16.8579996 290.498,16.942 C290.954002,17.0260004 291.382998,17.1249994 291.785,17.239 C292.187002,17.3530006 292.534999,17.508999 292.829,17.707 C293.123001,17.905001 293.353999,18.1599984 293.522,18.472 C293.690001,18.7840016 293.774,19.1799976 293.774,19.66 C293.774,20.1640025 293.660001,20.5779984 293.432,20.902 C293.203999,21.2260016 292.916002,21.486999 292.568,21.685 C292.219998,21.883001 291.833002,22.0209996 291.407,22.099 C290.980998,22.1770004 290.564002,22.216 290.156,22.216 C289.627997,22.216 289.139002,22.1470007 288.689,22.009 C288.238998,21.8709993 287.846002,21.6610014 287.51,21.379 C287.173998,21.0969986 286.910001,20.752002 286.718,20.344 C286.525999,19.935998 286.424,19.4620027 286.412,18.922 L287.096,18.922 Z M307.256,20.29 C307.256,20.4220007 307.259,20.5539993 307.265,20.686 C307.271,20.8180007 307.292,20.9379995 307.328,21.046 C307.364,21.1540005 307.424,21.2409997 307.508,21.307 C307.592,21.3730003 307.711999,21.406 307.868,21.406 C307.988001,21.406 308.155999,21.3880002 308.372,21.352 L308.372,21.928 C308.276,21.9520001 308.183,21.9699999 308.093,21.982 C308.003,21.9940001 307.91,22 307.814,22 C307.537999,22 307.319001,21.9640004 307.157,21.892 C306.994999,21.8199996 306.872,21.7240006 306.788,21.604 C306.704,21.4839994 306.647,21.3430008 306.617,21.181 C306.587,21.0189992 306.572,20.842001 306.572,20.65 L306.572,20.164 L306.536,20.164 C306.427999,20.4400014 306.272001,20.7009988 306.068,20.947 C305.863999,21.1930012 305.615001,21.411999 305.321,21.604 C305.026999,21.796001 304.694002,21.9459995 304.322,22.054 C303.949998,22.1620005 303.542002,22.216 303.098,22.216 C302.665998,22.216 302.261002,22.1710005 301.883,22.081 C301.504998,21.9909996 301.175001,21.844001 300.893,21.64 C300.610999,21.435999 300.392001,21.1690017 300.236,20.839 C300.079999,20.5089984 300.002,20.0980025 300.002,19.606 C300.002,19.0659973 300.106999,18.6250017 300.317,18.283 C300.527001,17.9409983 300.796998,17.671001 301.127,17.473 C301.457002,17.274999 301.822998,17.1340004 302.225,17.05 C302.627002,16.9659996 303.019998,16.9060002 303.404,16.87 C304.172004,16.8219998 304.768998,16.7650003 305.195,16.699 C305.621002,16.6329997 305.935999,16.5310007 306.14,16.393 C306.344001,16.2549993 306.47,16.0750011 306.518,15.853 C306.566,15.6309989 306.59,15.3280019 306.59,14.944 C306.59,14.8359995 306.554,14.683001 306.482,14.485 C306.41,14.286999 306.281001,14.086001 306.095,13.882 C305.908999,13.677999 305.648002,13.5010008 305.312,13.351 C304.975998,13.2009993 304.544003,13.126 304.016,13.126 C303.187996,13.126 302.519003,13.3359979 302.009,13.756 C301.498997,14.1760021 301.22,14.787996 301.172,15.592 L300.488,15.592 C300.536,14.5719949 300.862997,13.8070026 301.469,13.297 C302.075003,12.7869975 302.923995,12.532 304.016,12.532 C304.424002,12.532 304.819998,12.5679996 305.204,12.64 C305.588002,12.7120004 305.932998,12.8379991 306.239,13.018 C306.545002,13.1980009 306.790999,13.4439984 306.977,13.756 C307.163001,14.0680016 307.256,14.4639976 307.256,14.944 L307.256,20.29 Z M306.572,16.744 C306.439999,16.9000008 306.254001,17.0169996 306.014,17.095 C305.773999,17.1730004 305.501002,17.2299998 305.195,17.266 C304.888998,17.3020002 304.568002,17.3319999 304.232,17.356 C303.895998,17.3800001 303.560002,17.4159998 303.224,17.464 C302.407996,17.5600005 301.781002,17.7669984 301.343,18.085 C300.904998,18.4030016 300.686,18.9099965 300.686,19.606 C300.686,20.1700028 300.886998,20.6469981 301.289,21.037 C301.691002,21.427002 302.299996,21.622 303.116,21.622 C303.896004,21.622 304.513998,21.4810014 304.97,21.199 C305.426002,20.9169986 305.773999,20.5930018 306.014,20.227 C306.254001,19.8609982 306.407,19.5070017 306.473,19.165 C306.539,18.8229983 306.572,18.5920006 306.572,18.472 L306.572,16.744 Z M315.284,9.148 L315.284,22 L314.6,22 L314.6,9.148 L315.284,9.148 Z M317.714,17.374 C317.714,17.9260028 317.791999,18.4569975 317.948,18.967 C318.104001,19.4770026 318.331998,19.929998 318.632,20.326 C318.932001,20.722002 319.303998,21.0369988 319.748,21.271 C320.192002,21.5050012 320.701997,21.622 321.278,21.622 C321.854003,21.622 322.363998,21.5050012 322.808,21.271 C323.252002,21.0369988 323.623998,20.722002 323.924,20.326 C324.224001,19.929998 324.451999,19.4770026 324.608,18.967 C324.764001,18.4569975 324.842,17.9260028 324.842,17.374 C324.842,16.8219972 324.764001,16.2910026 324.608,15.781 C324.451999,15.2709975 324.224001,14.818002 323.924,14.422 C323.623998,14.025998 323.252002,13.7110012 322.808,13.477 C322.363998,13.2429988 321.854003,13.126 321.278,13.126 C320.701997,13.126 320.192002,13.2429988 319.748,13.477 C319.303998,13.7110012 318.932001,14.025998 318.632,14.422 C318.331998,14.818002 318.104001,15.2709975 317.948,15.781 C317.791999,16.2910026 317.714,16.8219972 317.714,17.374 L317.714,17.374 Z M317.03,17.374 C317.03,16.7139967 317.122999,16.0930029 317.309,15.511 C317.495001,14.9289971 317.767998,14.4160022 318.128,13.972 C318.488002,13.5279978 318.931997,13.1770013 319.46,12.919 C319.988003,12.6609987 320.593997,12.532 321.278,12.532 C321.962003,12.532 322.567997,12.6609987 323.096,12.919 C323.624003,13.1770013 324.067998,13.5279978 324.428,13.972 C324.788002,14.4160022 325.060999,14.9289971 325.247,15.511 C325.433001,16.0930029 325.526,16.7139967 325.526,17.374 C325.526,18.0340033 325.433001,18.6579971 325.247,19.246 C325.060999,19.8340029 324.788002,20.3469978 324.428,20.785 C324.067998,21.2230022 323.624003,21.5709987 323.096,21.829 C322.567997,22.0870013 321.962003,22.216 321.278,22.216 C320.593997,22.216 319.988003,22.0870013 319.46,21.829 C318.931997,21.5709987 318.488002,21.2230022 318.128,20.785 C317.767998,20.3469978 317.495001,19.8340029 317.309,19.246 C317.122999,18.6579971 317.03,18.0340033 317.03,17.374 L317.03,17.374 Z M329.432,21.208 L329.468,21.208 L331.988,12.748 L332.906,12.748 L335.444,21.208 L335.48,21.208 L338.072,12.748 L338.828,12.748 L335.858,22 L335.012,22 L332.474,13.612 L332.438,13.612 L329.882,22 L329.018,22 L326.084,12.748 L326.822,12.748 L329.432,21.208 Z M340.034,17.446 L340.034,16.762 L343.886,16.762 L343.886,17.446 L340.034,17.446 Z M350.276,12.748 L350.96,12.748 L350.96,22 L350.276,22 L350.276,12.748 Z M350.276,9.148 L350.96,9.148 L350.96,11.002 L350.276,11.002 L350.276,9.148 Z M345.128,12.748 L346.784,12.748 L346.784,10.84 C346.784,10.5159984 346.837999,10.2370012 346.946,10.003 C347.054001,9.76899883 347.200999,9.58000072 347.387,9.436 C347.573001,9.29199928 347.788999,9.18400036 348.035,9.112 C348.281001,9.03999964 348.541999,9.004 348.818,9.004 C349.058001,9.004 349.327999,9.0339997 349.628,9.094 L349.628,9.688 C349.327999,9.6279997 349.058001,9.598 348.818,9.598 C348.433998,9.598 348.113001,9.68499913 347.855,9.859 C347.596999,10.0330009 347.468,10.3779974 347.468,10.894 L347.468,12.748 L349.394,12.748 L349.394,13.342 L347.468,13.342 L347.468,22 L346.784,22 L346.784,13.342 L345.128,13.342 L345.128,12.748 Z" id="designaffairs-presen" fill="#FFFFFF" sketch:type="MSShapeGroup"></path>
                <path d="M76.336,70.996 L76.336,103.196 L72.84,103.196 L72.84,89.212 L72.656,89.212 C71.8586627,91.604012 70.6626746,93.7659903 69.068,95.698 C67.4733254,97.6300097 65.5873442,99.2553267 63.41,100.574 C61.2326558,101.892673 58.8100133,102.919996 56.142,103.656 C53.4739867,104.392004 50.6986811,104.76 47.816,104.76 C42.8479752,104.76 38.4473525,103.870676 34.614,102.092 C30.7806475,100.313324 27.5453465,97.890682 24.908,94.824 C22.2706535,91.757318 20.2773401,88.1540207 18.928,84.014 C17.5786599,79.8739793 16.904,75.4426903 16.904,70.72 C16.904,66.0586434 17.5939931,61.6273543 18.974,57.426 C20.3540069,53.2246457 22.3626535,49.5293493 25,46.34 C27.6373465,43.1506507 30.8726475,40.620676 34.706,38.75 C38.5393525,36.879324 42.9399752,35.944 47.908,35.944 C51.2813502,35.944 54.501318,36.4346618 57.568,37.416 C60.634682,38.3973382 63.3793212,39.8386572 65.802,41.74 C68.2246788,43.6413428 70.2639917,45.9413198 71.92,48.64 C73.5760083,51.3386802 74.6799972,54.4053162 75.232,57.84 L71.368,57.84 C69.834659,52.1359715 67.0593534,47.6433497 63.042,44.362 C59.0246466,41.0806503 54.0106967,39.44 48,39.44 C43.5839779,39.44 39.6893502,40.2986581 36.316,42.016 C32.9426498,43.7333419 30.1213447,46.0333189 27.852,48.916 C25.5826553,51.7986811 23.8653392,55.1259811 22.7,58.898 C21.5346608,62.6700189 20.952,66.6106461 20.952,70.72 C20.952,74.8906875 21.5193277,78.8313148 22.654,82.542 C23.7886723,86.2526852 25.4753221,89.4879862 27.714,92.248 C29.9526779,95.0080138 32.7586498,97.2006585 36.132,98.826 C39.5053502,100.451341 43.4613106,101.264 48,101.264 C51.925353,101.264 55.4519844,100.620006 58.58,99.332 C61.7080156,98.0439936 64.3606558,96.2346783 66.538,93.904 C68.7153442,91.5733217 70.3559945,88.7673497 71.46,85.486 C72.5640055,82.2046503 73.0240009,78.5400202 72.84,74.492 L48.644,74.492 L48.644,70.996 L76.336,70.996 Z M87.468,37.508 L91.516,37.508 L91.516,103.196 L87.468,103.196 L87.468,37.508 Z M107.156,70.812 L107.156,103.196 L103.108,103.196 L103.108,37.508 L144.324,37.508 L144.324,41.004 L107.156,41.004 L107.156,67.316 L140.644,67.316 L140.644,70.812 L107.156,70.812 Z M150.948,79.92 L150.948,76.424 L170.636,76.424 L170.636,79.92 L150.948,79.92 Z M182.78,37.508 L188.576,37.508 L214.244,98.688 L214.428,98.688 L239.82,37.508 L245.616,37.508 L245.616,103.196 L241.568,103.196 L241.568,42.476 L241.384,42.476 L216.36,103.196 L212.312,103.196 L187.012,42.476 L186.828,42.476 L186.828,103.196 L182.78,103.196 L182.78,37.508 Z M293.18,78.632 L279.104,41.464 L278.92,41.464 L264.292,78.632 L293.18,78.632 Z M281.128,37.508 L307.072,103.196 L302.748,103.196 L294.468,82.128 L263.004,82.128 L254.632,103.196 L250.308,103.196 L276.712,37.508 L281.128,37.508 Z M354.636,56.276 C354.513333,53.4546526 353.915339,51.0013438 352.842,48.916 C351.768661,46.8306562 350.312009,45.0826737 348.472,43.672 C346.631991,42.2613263 344.439346,41.2033369 341.894,40.498 C339.348654,39.7926631 336.573348,39.44 333.568,39.44 C331.727991,39.44 329.750011,39.6546645 327.634,40.084 C325.517989,40.5133355 323.555342,41.2646613 321.746,42.338 C319.936658,43.4113387 318.449339,44.8526576 317.284,46.662 C316.118661,48.4713424 315.536,50.7253198 315.536,53.424 C315.536,56.0613465 316.179994,58.2079917 317.468,59.864 C318.756006,61.5200083 320.442656,62.8539949 322.528,63.866 C324.613344,64.8780051 327.00532,65.6906636 329.704,66.304 C332.40268,66.9173364 335.131986,67.4999972 337.892,68.052 C340.713347,68.6040028 343.457987,69.2633295 346.126,70.03 C348.794013,70.7966705 351.185989,71.8393267 353.302,73.158 C355.418011,74.4766733 357.119994,76.1786562 358.408,78.264 C359.696006,80.3493438 360.34,83.0173171 360.34,86.268 C360.34,89.7026838 359.604007,92.5853217 358.132,94.916 C356.659993,97.2466783 354.804678,99.1479926 352.566,100.62 C350.327322,102.092007 347.843347,103.149997 345.114,103.794 C342.384653,104.438003 339.762679,104.76 337.248,104.76 C333.383981,104.76 329.76535,104.346004 326.392,103.518 C323.01865,102.689996 320.074679,101.340676 317.56,99.47 C315.045321,97.599324 313.067341,95.1920147 311.626,92.248 C310.184659,89.3039853 309.494666,85.7160212 309.556,81.484 L313.604,81.484 C313.419999,85.1026848 313.925994,88.1539876 315.122,90.638 C316.318006,93.1220124 318.019989,95.1613254 320.228,96.756 C322.436011,98.3506746 325.011985,99.5006631 327.956,100.206 C330.900015,100.911337 333.997317,101.264 337.248,101.264 C339.210676,101.264 341.311322,101.018669 343.55,100.528 C345.788678,100.037331 347.843324,99.2093392 349.714,98.044 C351.584676,96.8786608 353.14866,95.3453428 354.406,93.444 C355.66334,91.5426572 356.292,89.1506811 356.292,86.268 C356.292,83.5079862 355.648006,81.2540087 354.36,79.506 C353.071994,77.7579913 351.370011,76.3473387 349.254,75.274 C347.137989,74.2006613 344.746013,73.3420032 342.078,72.698 C339.409987,72.0539968 336.665347,71.4560028 333.844,70.904 C331.083986,70.3519972 328.35468,69.7080037 325.656,68.972 C322.95732,68.2359963 320.565344,67.2393396 318.48,65.982 C316.394656,64.7246604 314.708006,63.0993433 313.42,61.106 C312.131994,59.1126567 311.488,56.5520156 311.488,53.424 C311.488,50.2959844 312.147327,47.6126779 313.466,45.374 C314.784673,43.1353221 316.501989,41.3260069 318.618,39.946 C320.734011,38.5659931 323.110653,37.5540032 325.748,36.91 C328.385347,36.2659968 330.991987,35.944 333.568,35.944 C337.002684,35.944 340.207318,36.3273295 343.182,37.094 C346.156682,37.8606705 348.763322,39.0566585 351.002,40.682 C353.240678,42.3073415 355.03466,44.4079871 356.384,46.984 C357.73334,49.5600129 358.499999,52.6573152 358.684,56.276 L354.636,56.276 Z M62.168,136.276 C62.0453327,133.454653 61.4473387,131.001344 60.374,128.916 C59.3006613,126.830656 57.8440092,125.082674 56.004,123.672 C54.1639908,122.261326 51.9713461,121.203337 49.426,120.498 C46.8806539,119.792663 44.1053484,119.44 41.1,119.44 C39.2599908,119.44 37.2820106,119.654665 35.166,120.084 C33.0499894,120.513335 31.0873424,121.264661 29.278,122.338 C27.4686576,123.411339 25.9813392,124.852658 24.816,126.662 C23.6506608,128.471342 23.068,130.72532 23.068,133.424 C23.068,136.061347 23.7119936,138.207992 25,139.864 C26.2880064,141.520008 27.9746562,142.853995 30.06,143.866 C32.1453438,144.878005 34.5373198,145.690664 37.236,146.304 C39.9346802,146.917336 42.6639862,147.499997 45.424,148.052 C48.2453474,148.604003 50.9899867,149.26333 53.658,150.03 C56.3260133,150.796671 58.7179894,151.839327 60.834,153.158 C62.9500106,154.476673 64.6519936,156.178656 65.94,158.264 C67.2280064,160.349344 67.872,163.017317 67.872,166.268 C67.872,169.702684 67.1360074,172.585322 65.664,174.916 C64.1919926,177.246678 62.3366779,179.147993 60.098,180.62 C57.8593221,182.092007 55.375347,183.149997 52.646,183.794 C49.916653,184.438003 47.2946792,184.76 44.78,184.76 C40.9159807,184.76 37.2973502,184.346004 33.924,183.518 C30.5506498,182.689996 27.6066792,181.340676 25.092,179.47 C22.5773208,177.599324 20.5993405,175.192015 19.158,172.248 C17.7166595,169.303985 17.0266664,165.716021 17.088,161.484 L21.136,161.484 C20.9519991,165.102685 21.457994,168.153988 22.654,170.638 C23.850006,173.122012 25.551989,175.161325 27.76,176.756 C29.968011,178.350675 32.5439853,179.500663 35.488,180.206 C38.4320147,180.911337 41.5293171,181.264 44.78,181.264 C46.7426765,181.264 48.8433221,181.018669 51.082,180.528 C53.3206779,180.037331 55.375324,179.209339 57.246,178.044 C59.116676,176.878661 60.6806604,175.345343 61.938,173.444 C63.1953396,171.542657 63.824,169.150681 63.824,166.268 C63.824,163.507986 63.1800064,161.254009 61.892,159.506 C60.6039936,157.757991 58.9020106,156.347339 56.786,155.274 C54.6699894,154.200661 52.2780133,153.342003 49.61,152.698 C46.9419867,152.053997 44.1973474,151.456003 41.376,150.904 C38.6159862,150.351997 35.8866802,149.708004 33.188,148.972 C30.4893198,148.235996 28.0973438,147.23934 26.012,145.982 C23.9266562,144.72466 22.2400064,143.099343 20.952,141.106 C19.6639936,139.112657 19.02,136.552016 19.02,133.424 C19.02,130.295984 19.6793267,127.612678 20.998,125.374 C22.3166733,123.135322 24.0339894,121.326007 26.15,119.946 C28.2660106,118.565993 30.6426535,117.554003 33.28,116.91 C35.9173465,116.265997 38.5239871,115.944 41.1,115.944 C44.5346838,115.944 47.7393185,116.32733 50.714,117.094 C53.6886815,117.860671 56.2953221,119.056659 58.534,120.682 C60.7726779,122.307341 62.5666599,124.407987 63.916,126.984 C65.2653401,129.560013 66.0319991,132.657315 66.216,136.276 L62.168,136.276 Z M70.172,121.004 L70.172,117.508 L120.496,117.508 L120.496,121.004 L97.312,121.004 L97.312,183.196 L93.264,183.196 L93.264,121.004 L70.172,121.004 Z M126.108,150.352 C126.108,154.584021 126.721327,158.570648 127.948,162.312 C129.174673,166.053352 130.953322,169.319319 133.284,172.11 C135.614678,174.900681 138.46665,177.123992 141.84,178.78 C145.21335,180.436008 149.046645,181.264 153.34,181.264 C157.633355,181.264 161.451317,180.436008 164.794,178.78 C168.136683,177.123992 170.973322,174.900681 173.304,172.11 C175.634678,169.319319 177.413327,166.053352 178.64,162.312 C179.866673,158.570648 180.48,154.584021 180.48,150.352 C180.48,146.119979 179.866673,142.133352 178.64,138.392 C177.413327,134.650648 175.634678,131.384681 173.304,128.594 C170.973322,125.803319 168.136683,123.580008 164.794,121.924 C161.451317,120.267992 157.633355,119.44 153.34,119.44 C149.046645,119.44 145.21335,120.267992 141.84,121.924 C138.46665,123.580008 135.614678,125.803319 133.284,128.594 C130.953322,131.384681 129.174673,134.650648 127.948,138.392 C126.721327,142.133352 126.108,146.119979 126.108,150.352 L126.108,150.352 Z M184.528,150.352 C184.528,155.136024 183.822674,159.628646 182.412,163.83 C181.001326,168.031354 178.962013,171.680651 176.294,174.778 C173.625987,177.875349 170.360019,180.313324 166.496,182.092 C162.631981,183.870676 158.246691,184.76 153.34,184.76 C148.433309,184.76 144.032686,183.870676 140.138,182.092 C136.243314,180.313324 132.962013,177.875349 130.294,174.778 C127.625987,171.680651 125.586674,168.031354 124.176,163.83 C122.765326,159.628646 122.06,155.136024 122.06,150.352 C122.06,145.567976 122.765326,141.075354 124.176,136.874 C125.586674,132.672646 127.625987,129.023349 130.294,125.926 C132.962013,122.828651 136.243314,120.390676 140.138,118.612 C144.032686,116.833324 148.433309,115.944 153.34,115.944 C158.246691,115.944 162.631981,116.833324 166.496,118.612 C170.360019,120.390676 173.625987,122.828651 176.294,125.926 C178.962013,129.023349 181.001326,132.672646 182.412,136.874 C183.822674,141.075354 184.528,145.567976 184.528,150.352 L184.528,150.352 Z M193.176,117.508 L220.592,117.508 C223.474681,117.508 226.173321,117.79933 228.688,118.382 C231.202679,118.96467 233.410657,119.915327 235.312,121.234 C237.213343,122.552673 238.700661,124.285323 239.774,126.432 C240.847339,128.578677 241.384,131.246651 241.384,134.436 C241.384,138.852022 240.142012,142.577985 237.658,145.614 C235.173988,148.650015 231.724022,150.535996 227.308,151.272 L227.308,151.456 C229.761346,151.762668 231.769992,152.345329 233.334,153.204 C234.898008,154.062671 236.155329,155.12066 237.106,156.378 C238.056671,157.63534 238.746665,159.045992 239.176,160.61 C239.605335,162.174008 239.911999,163.814658 240.096,165.532 C240.280001,167.249342 240.372,168.966658 240.372,170.684 C240.372,172.401342 240.402666,174.041992 240.464,175.606 C240.525334,177.170008 240.678665,178.611327 240.924,179.93 C241.169335,181.248673 241.62933,182.337329 242.304,183.196 L237.796,183.196 C237.182664,182.091994 236.784001,180.804007 236.6,179.332 C236.415999,177.859993 236.308667,176.311341 236.278,174.686 C236.247333,173.060659 236.247333,171.404675 236.278,169.718 C236.308667,168.031325 236.232001,166.390675 236.048,164.796 C235.863999,163.201325 235.48067,161.714007 234.898,160.334 C234.31533,158.953993 233.456672,157.742672 232.322,156.7 C231.187328,155.657328 229.669343,154.829336 227.768,154.216 C225.866657,153.602664 223.474681,153.296 220.592,153.296 L197.224,153.296 L197.224,183.196 L193.176,183.196 L193.176,117.508 Z M220.592,149.8 C222.984012,149.8 225.207323,149.50867 227.262,148.926 C229.316677,148.34333 231.079993,147.438673 232.552,146.212 C234.024007,144.985327 235.189329,143.421343 236.048,141.52 C236.906671,139.618657 237.336,137.349347 237.336,134.712 C237.336,132.258654 236.876005,130.158009 235.956,128.41 C235.035995,126.661991 233.809341,125.236006 232.276,124.132 C230.742659,123.027994 228.96401,122.230669 226.94,121.74 C224.91599,121.249331 222.800011,121.004 220.592,121.004 L197.224,121.004 L197.224,149.8 L220.592,149.8 Z M295.572,117.508 L300.08,117.508 L273.676,155.688 L273.676,183.196 L269.628,183.196 L269.628,155.688 L243.408,117.508 L248.008,117.508 L271.744,152.284 L295.572,117.508 Z" id="GIF-MAS" fill="#FFFFFF" sketch:type="MSShapeGroup"></path>
                <g id="Page-1" transform="translate(37.099351, 36.073205) scale(-1, 1) rotate(18.000000) translate(-37.099351, -36.073205) translate(7.265187, 7.837300)">
                    <path d="M4.25051597,28.6625338 C4.25051597,28.6625338 32.8359071,2.79737908 33.7810108,1.85227538 C34.7261145,0.907171688 35.2556709,0.346715606 35.6680217,0.346715606 C36.081438,0.346715606 36.4959198,0.907171688 37.1448128,1.61573308 C37.7947714,2.32429448 51.908462,15.965966 52.1439388,16.14284 C52.3815466,16.3207794 52.9121685,17.3830888 53.1497763,18.0916502 C53.3852531,18.8002116 56.7511861,28.6625338 56.7511861,28.6625338 L4.25051597,28.6625338 Z" id="Fill-1" fill="#D0021B" sketch:type="MSShapeGroup"></path>
                    <path d="M35.6112303,0.355878957 L40.2056915,28.6621076 L45.8155799,28.6621076 L35.6463919,0.350551427 C35.6346714,0.350551427 35.6229508,0.354813451 35.6112303,0.355878957" id="Fill-3" fill="#000000" sketch:type="MSShapeGroup"></path>
                    <g id="Group-7">
                        <mask id="mask-2" sketch:name="Clip 6" fill="white">
                            <use xlink:href="#path-1"></use>
                        </mask>
                        <g id="Clip-6"></g>
                        <path d="M59.5268289,39.4872209 C59.5268289,42.4450652 57.1283752,44.8435189 54.1683999,44.8435189 L29.3943232,44.0039002 L5.35757656,44.8435189 C2.39866679,44.8435189 0.000213101172,42.4450652 0.000213101172,39.4872209 L0.000213101172,32.7201932 C0.000213101172,29.7612834 2.39866679,27.3638953 5.35757656,27.3638953 L30.1316533,26.5242766 L54.1683999,27.3638953 C57.1283752,27.3638953 59.5268289,29.7612834 59.5268289,32.7201932 L59.5268289,39.4872209 Z" id="Fill-5" fill="#FFFFFF" sketch:type="MSShapeGroup" mask="url(#mask-2)"></path>
                    </g>
                    <path d="M52.2316299,54.1491143 L52.2316299,16.2341538 C52.1996648,16.1957956 52.1698306,16.1627649 52.1442585,16.1425203 C51.9077162,15.9656463 37.7940256,2.32504033 37.1451325,1.61647894 C36.4951739,0.907917542 36.0817576,0.346395955 35.6683414,0.346395955 C35.6417037,0.346395955 35.6129351,0.355985507 35.5852319,0.360247531 L52.2316299,54.1491143 Z" id="Fill-8" fill="#B80117" sketch:type="MSShapeGroup"></path>
                    <path d="M56.387529,52.3159114 C56.387529,54.6110111 54.5271558,56.4713843 52.2320561,56.4713843 C49.9369565,56.4713843 48.0755178,54.6110111 48.0755178,52.3159114 C48.0755178,50.0208118 49.9369565,48.1604386 52.2320561,48.1604386 C54.5271558,48.1604386 56.387529,50.0208118 56.387529,52.3159114" id="Fill-10" fill="#FFFFFF" sketch:type="MSShapeGroup"></path>
                </g>
            </g>
        </g>
    </g>
</svg>