<?xml version="1.0" encoding="utf-8"?>
<!-- Generator: Adobe Illustrator 19.0.0, SVG Export Plug-In . SVG Version: 6.00 Build 0)  -->
<svg version="1.1" id="Layer_1" xmlns="http://www.w3.org/2000/svg" xmlns:xlink="http://www.w3.org/1999/xlink" x="0px" y="0px"
	 viewBox="0 0 111.7 116.1" style="enable-background:new 0 0 111.7 116.1;" xml:space="preserve">
<style type="text/css">
	.st0{fill:#04A57E;}
	.st1{opacity:0.2;}
	.st2{fill:#FFFFFF;}
</style>
<g>
	<path class="st0" d="M111.7,116.1L56.2,44.2L0.7,116.1c0,0,21.1-0.2,55.5-0.2C94.7,115.9,111.7,116.1,111.7,116.1z"/>
	<path class="st1" d="M56.2,44.2l22.7,38c-6.2-1.1-52.4,8-60.1,10.4L56.2,44.2z"/>
	<path class="st0" d="M99.2,83l-43-58.5L13.2,83c0,0,21.7-0.5,43-0.5C77.5,82.6,99.2,83,99.2,83z"/>
	<path class="st1" d="M54.7,26.3l10.9,19.6c-4-1.1-27,5.7-31.4,8.5L54.7,26.3z"/>
	<path class="st0" d="M84.3,46L56.2,1.8L28.1,46c0,0,14.2-0.1,28.1-0.1C70.1,45.9,84.3,46,84.3,46z"/>
	<g>
		<g>
			<path class="st2" d="M46.7,19.2c1.7,1.1,3.9,0.6,4.9-1.1l8.2-12.8c1.1-1.7,0.6-3.8-1.1-4.9l0,0c-1.7-1.1-3.8-0.6-4.9,1.1
				l-8.2,12.8C44.6,16,45,18.2,46.7,19.2L46.7,19.2z"/>
			<path class="st2" d="M67.3,18.9c1.6-1.1,2-3.3,0.9-4.9L59.6,1.5c-1.1-1.6-3.3-2-4.9-0.9l0,0c-1.6,1.1-2,3.3-0.9,4.9L62.3,18
				C63.5,19.6,65.7,20,67.3,18.9L67.3,18.9z"/>
		</g>
		<path class="st2" d="M68.9,82.2c0,2,1.6,3.6,3.6,3.6h15.2c2,0,3.6-1.6,3.6-3.6l0,0c0-2-1.6-3.6-3.5-3.5H72.4
			C70.5,78.7,68.9,80.3,68.9,82.2L68.9,82.2z"/>
		<circle class="st2" cx="57" cy="12.5" r="6.5"/>
		<path class="st2" d="M0,112c0,2.3,1.9,4.2,4.2,4.2h39.6c2.3,0,4.2-1.9,4.2-4.2l0,0c0-2.3-1.9-4.2-4.2-4.2H4.2
			C1.9,107.8,0,109.7,0,112L0,112z"/>
	</g>
</g>
</svg>
