<?xml version="1.0" encoding="utf-8"?>
<!-- Generator: Adobe Illustrator 19.0.0, SVG Export Plug-In . SVG Version: 6.00 Build 0)  -->
<svg version="1.1" id="Layer_1" xmlns="http://www.w3.org/2000/svg" xmlns:xlink="http://www.w3.org/1999/xlink" x="0px" y="0px"
	 viewBox="0 0 37 38" style="enable-background:new 0 0 37 38;" xml:space="preserve">
<style type="text/css">
	.st0{fill:#04A57E;}
	.st1{opacity:0.2;}
	.st2{fill:#FFFFFF;}
</style>
<path class="st0" d="M36.6,38L18.5,14.8L0.4,38c0,0,6.9,0,18.1,0C31,38,36.6,38,36.6,38z"/>
<path class="st1" d="M18.5,14.8l7.4,12.4c-2-0.4-17.1,2.6-19.6,3.4L18.5,14.8z"/>
<path class="st0" d="M32.5,27.4l-14-19l-14,19c0,0,7.1-0.1,14-0.1C25.4,27.3,32.5,27.4,32.5,27.4z"/>
<path class="st1" d="M18,9l3.5,6.4c-1.3-0.4-8.8,1.9-10.2,2.8L18,9z"/>
<path class="st0" d="M27.7,15.4L18.5,1L9.3,15.4c0,0,4.6,0,9.2,0C23,15.3,27.7,15.4,27.7,15.4z"/>
<path class="st2" d="M22.4,4.9l-2.7-4c-0.1-0.2-0.2-0.3-0.4-0.4c-0.3-0.2-0.6-0.2-0.9-0.2c-0.1,0-0.3,0.1-0.4,0.2
	c-0.2,0.1-0.3,0.3-0.4,0.4L15,5.1c-0.3,0.5-0.2,1.3,0.4,1.6C15.9,7,16.7,6.9,17,6.3l0.2-0.4c0.4,0.4,0.9,0.7,1.5,0.7
	c0.6,0,1.1-0.2,1.5-0.6l0.2,0.3c0.4,0.5,1.1,0.7,1.6,0.3C22.6,6.2,22.8,5.5,22.4,4.9z"/>
<path class="st2" d="M13.9,27.2c0-0.6-0.5-1.2-1.2-1.2H7.8c-0.6,0-1.2,0.5-1.2,1.2c0,0.6,0.5,1.2,1.2,1.2h1.8c0,0.9,0.7,1.7,1.7,1.7
	c0.9,0,1.7-0.7,1.7-1.7c0,0,0,0,0,0C13.4,28.2,13.9,27.7,13.9,27.2z"/>
</svg>
