<?xml version="1.0" encoding="UTF-8" standalone="no"?>
<svg width="149px" height="149px" viewBox="0 0 149 149" version="1.1" xmlns="http://www.w3.org/2000/svg" xmlns:xlink="http://www.w3.org/1999/xlink" xmlns:sketch="http://www.bohemiancoding.com/sketch/ns">
    <!-- Generator: Sketch 3.4.3 (16618) - http://www.bohemiancoding.com/sketch -->
    <title>wreath</title>
    <desc>Created with Sketch.</desc>
    <defs>
        <linearGradient x1="62.4910119%" y1="81.7114186%" x2="36.1942945%" y2="37.8758939%" id="linearGradient-1">
            <stop stop-color="#2C313B" stop-opacity="0" offset="0%"></stop>
            <stop stop-color="#000000" offset="100%"></stop>
        </linearGradient>
        <path id="path-2" d="M0,0 L81,0 L81,81 L0,81 L0,0 Z"></path>
        <path id="path-4" d="M0,0 L81,0 L81,81 L0,81 L0,0 Z"></path>
    </defs>
    <g id="v4" stroke="none" stroke-width="1" fill="none" fill-rule="evenodd" sketch:type="MSPage">
        <g id="Artboard-1" sketch:type="MSArtboardGroup" transform="translate(-841.000000, -393.000000)">
            <g id="wreath" sketch:type="MSLayerGroup" transform="translate(841.000000, 393.000000)">
                <path d="M8.45140028,63.0793487 L48.6708374,69.5544959 C48.6708374,69.5544959 58.3318735,43.869772 67.7399521,38.8461598 C77.1480307,33.8225476 64.2737825,8.26580725 64.2737825,8.26580725 L191,148.81231 L85.8601882,148.81231 L8.45140028,63.0793487 Z" id="Rectangle-5-Copy" opacity="0.15" fill="url(#linearGradient-1)" sketch:type="MSShapeGroup"></path>
                <g>
                    <path d="M40.501,58.4082 C30.745,58.4082 22.836,50.4992 22.836,40.7422 C22.836,30.9862 30.745,23.0762 40.501,23.0762 C50.258,23.0762 58.166,30.9862 58.166,40.7422 C58.166,50.4992 50.258,58.4082 40.501,58.4082 M40.501,0.7422 C18.41,0.7422 0.5,18.6502 0.5,40.7422 C0.5,62.8342 18.41,80.7422 40.501,80.7422 C62.594,80.7422 80.5,62.8342 80.5,40.7422 C80.5,18.6502 62.594,0.7422 40.501,0.7422" id="Fill-1" fill="#158B4B" sketch:type="MSShapeGroup"></path>
                    <g id="Group-5">
                        <mask id="mask-3" sketch:name="Clip 4" fill="white">
                            <use xlink:href="#path-2"></use>
                        </mask>
                        <g id="Clip-4"></g>
                        <path d="M40.501,58.4082 C30.745,58.4082 22.836,50.4992 22.836,40.7422 C22.836,30.9862 30.745,23.0762 40.501,23.0762 C50.258,23.0762 58.166,30.9862 58.166,40.7422 C58.166,50.4992 50.258,58.4082 40.501,58.4082 L40.501,58.4082 Z M81,32.5192 L59.769,32.5192 L74.781,17.5062 L63.494,6.2192 L48.48,21.2322 L48.48,0.0002 L32.519,0.0002 L32.519,21.2322 L17.506,6.2192 L6.219,17.5062 L21.232,32.5192 L0,32.5192 L0,48.4802 L21.232,48.4802 L6.219,63.4942 L17.506,74.7812 L32.519,59.7672 L32.519,81.0002 L48.48,81.0002 L48.48,59.7672 L63.494,74.7812 L74.781,63.4942 L59.769,48.4802 L81,48.4802 L81,32.5192 Z" id="Fill-3" fill="#1D9953" sketch:type="MSShapeGroup" mask="url(#mask-3)"></path>
                    </g>
                    <path d="M16.666,40.7422 C16.666,43.1352 14.727,45.0742 12.334,45.0742 C9.941,45.0742 8.001,43.1352 8.001,40.7422 C8.001,38.3492 9.941,36.4102 12.334,36.4102 C14.727,36.4102 16.666,38.3492 16.666,40.7422" id="Fill-6" fill="#B33F30" sketch:type="MSShapeGroup"></path>
                    <path d="M73,40.7422 C73,43.1352 71.061,45.0742 68.668,45.0742 C66.275,45.0742 64.335,43.1352 64.335,40.7422 C64.335,38.3492 66.275,36.4102 68.668,36.4102 C71.061,36.4102 73,38.3492 73,40.7422" id="Fill-8" fill="#B33F30" sketch:type="MSShapeGroup"></path>
                    <path d="M40.5,64.5762 C42.894,64.5762 44.833,66.5152 44.833,68.9092 C44.833,71.3022 42.894,73.2422 40.5,73.2422 C38.107,73.2422 36.168,71.3022 36.168,68.9092 C36.168,66.5152 38.107,64.5762 40.5,64.5762" id="Fill-10" fill="#B33F30" sketch:type="MSShapeGroup"></path>
                    <path d="M40.5,8.2422 C42.894,8.2422 44.833,10.1812 44.833,12.5742 C44.833,14.9672 42.894,16.9082 40.5,16.9082 C38.107,16.9082 36.168,14.9672 36.168,12.5742 C36.168,10.1812 38.107,8.2422 40.5,8.2422" id="Fill-12" fill="#B33F30" sketch:type="MSShapeGroup"></path>
                    <path d="M23.6465,23.8887 C21.9555,25.5807 19.2115,25.5807 17.5195,23.8887 C15.8285,22.1977 15.8285,19.4527 17.5195,17.7617 C19.2115,16.0707 21.9555,16.0707 23.6465,17.7617 C25.3385,19.4527 25.3385,22.1977 23.6465,23.8887" id="Fill-14" fill="#B33F30" sketch:type="MSShapeGroup"></path>
                    <path d="M63.4815,63.7227 C61.7895,65.4147 59.0455,65.4147 57.3545,63.7227 C55.6625,62.0317 55.6625,59.2877 57.3535,57.5957 C59.0455,55.9047 61.7895,55.9047 63.4815,57.5957 C65.1725,59.2877 65.1725,62.0317 63.4815,63.7227" id="Fill-16" fill="#B33F30" sketch:type="MSShapeGroup"></path>
                    <path d="M23.6465,57.5957 C25.3395,59.2877 25.3395,62.0317 23.6465,63.7227 C21.9555,65.4137 19.2115,65.4147 17.5195,63.7227 C15.8285,62.0317 15.8285,59.2867 17.5195,57.5957 C19.2115,55.9037 21.9555,55.9047 23.6465,57.5957" id="Fill-18" fill="#B33F30" sketch:type="MSShapeGroup"></path>
                    <path d="M63.4815,17.7618 C65.1725,19.4528 65.1725,22.1968 63.4815,23.8888 C61.7895,25.5798 59.0455,25.5808 57.3535,23.8888 C55.6625,22.1978 55.6625,19.4528 57.3545,17.7618 C59.0455,16.0698 61.7895,16.0708 63.4815,17.7618" id="Fill-20" fill="#B33F30" sketch:type="MSShapeGroup"></path>
                    <mask id="mask-5" sketch:name="Clip 23" fill="white">
                        <use xlink:href="#path-4"></use>
                    </mask>
                    <g id="Clip-23"></g>
                    <path d="M40.902,30.998 L39.902,30.998 L39.902,21.393 L40.902,21.393 L40.902,30.998 Z" id="Fill-22" fill="#1D9953" sketch:type="MSShapeGroup" mask="url(#mask-5)"></path>
                    <path d="M44.6885,48.0684 C44.6885,50.3824 42.8135,52.2574 40.4995,52.2574 C38.1865,52.2574 36.3105,50.3824 36.3105,48.0684 C36.3105,45.7554 38.1865,43.8814 40.4995,43.8814 C42.8135,43.8814 44.6885,45.7554 44.6885,48.0684" id="Fill-24" fill="#C7A61C" sketch:type="MSShapeGroup" mask="url(#mask-5)"></path>
                    <path d="M29.5449,48.8165 L29.5449,47.1765 C29.5449,46.3575 29.8179,45.4275 30.8009,44.3905 C31.7849,43.3515 33.3159,42.1505 34.1349,40.3465 C34.9549,38.5435 35.6109,34.0075 36.5929,32.9155 C37.5759,31.8225 38.1779,31.4945 40.5269,31.4945 L40.5269,48.8165 L29.5449,48.8165 Z" id="Fill-25" fill="#E4BD21" sketch:type="MSShapeGroup" mask="url(#mask-5)"></path>
                    <path d="M51.4551,48.8165 L51.4551,47.1765 C51.4551,46.3575 51.1821,45.4275 50.1991,44.3905 C49.2151,43.3515 47.6851,42.1505 46.8661,40.3465 C46.0461,38.5435 45.3901,34.0075 44.4071,32.9155 C43.4231,31.8225 42.8221,31.4945 40.4731,31.4945 L40.4731,48.8165 L51.4551,48.8165 Z" id="Fill-26" fill="#FDD204" sketch:type="MSShapeGroup" mask="url(#mask-5)"></path>
                    <path d="M36.3242,30.2286 L36.3242,32.0336 L40.5112,30.9336 L44.8852,32.2066 L44.8852,30.0176 L40.5092,30.9196 L36.3242,30.2286 Z" id="Fill-27" fill="#B64031" sketch:type="MSShapeGroup" mask="url(#mask-5)"></path>
                    <path d="M45.7676,34.3584 C45.1006,34.3554 44.5606,34.0064 44.5636,33.5804 L44.5836,28.3024 C44.5836,27.8744 45.1256,27.5314 45.7956,27.5334 L46.3346,27.5354 C47.0016,27.5384 47.5406,27.8864 47.5406,28.3144 L47.5186,33.5934 C47.5186,34.0184 46.9746,34.3634 46.3066,34.3604 L45.7676,34.3584 Z" id="Fill-28" fill="#E54937" sketch:type="MSShapeGroup" mask="url(#mask-5)"></path>
                    <path d="M46.5049,30.0332 C45.5859,30.4862 44.4749,30.1092 44.0209,29.1922 C43.5679,28.2752 43.9429,27.1622 44.8599,26.7092 C45.7779,26.2552 46.8899,26.6312 47.3429,27.5492 C47.7979,28.4672 47.4219,29.5782 46.5049,30.0332" id="Fill-29" fill="#C44536" sketch:type="MSShapeGroup" mask="url(#mask-5)"></path>
                    <path d="M44.3555,27.0743 L40.5065,30.9293 L45.9065,30.2113 L44.3555,27.0743 Z" id="Fill-30" fill="#C44536" sketch:type="MSShapeGroup" mask="url(#mask-5)"></path>
                    <path d="M44.8438,35.1543 C43.9268,34.7013 43.5498,33.5893 44.0038,32.6723 C44.4578,31.7553 45.5688,31.3773 46.4868,31.8303 C47.4058,32.2853 47.7808,33.3963 47.3258,34.3123 C46.8738,35.2323 45.7618,35.6073 44.8438,35.1543" id="Fill-31" fill="#C44536" sketch:type="MSShapeGroup" mask="url(#mask-5)"></path>
                    <path d="M45.8897,31.6524 L40.4897,30.9334 L44.3367,34.7874 L45.8897,31.6524 Z" id="Fill-32" fill="#C44536" sketch:type="MSShapeGroup" mask="url(#mask-5)"></path>
                    <path d="M35.2324,34.3594 C35.8984,34.3554 36.4374,34.0064 36.4354,33.5804 L36.4164,28.3024 C36.4164,27.8744 35.8734,27.5314 35.2034,27.5344 L34.6644,27.5354 C33.9994,27.5384 33.4604,27.8864 33.4604,28.3144 L33.4824,33.5934 C33.4824,34.0184 34.0254,34.3634 34.6934,34.3604 L35.2324,34.3594 Z" id="Fill-33" fill="#E54937" sketch:type="MSShapeGroup" mask="url(#mask-5)"></path>
                    <path d="M34.4961,30.0332 C35.4141,30.4862 36.5231,30.1092 36.9791,29.1922 C37.4321,28.2742 37.0571,27.1622 36.1411,26.7092 C35.2231,26.2552 34.1101,26.6312 33.6581,27.5492 C33.2031,28.4672 33.5791,29.5782 34.4961,30.0332" id="Fill-34" fill="#C44536" sketch:type="MSShapeGroup" mask="url(#mask-5)"></path>
                    <path d="M36.6426,27.0743 L40.4926,30.9293 L35.0936,30.2113 L36.6426,27.0743 Z" id="Fill-35" fill="#C44536" sketch:type="MSShapeGroup" mask="url(#mask-5)"></path>
                    <path d="M36.1543,35.1543 C37.0733,34.7013 37.4503,33.5883 36.9963,32.6723 C36.5423,31.7543 35.4313,31.3773 34.5133,31.8303 C33.5953,32.2853 33.2203,33.3963 33.6733,34.3123 C34.1273,35.2323 35.2383,35.6073 36.1543,35.1543" id="Fill-36" fill="#C44536" sketch:type="MSShapeGroup" mask="url(#mask-5)"></path>
                    <path d="M35.1113,31.6524 L40.5113,30.9334 L36.6613,34.7874 L35.1113,31.6524 Z" id="Fill-37" fill="#C44536" sketch:type="MSShapeGroup" mask="url(#mask-5)"></path>
                    <path d="M41.6836,30.9317 C41.6836,31.5847 41.1536,32.1147 40.4996,32.1147 C39.8466,32.1147 39.3166,31.5847 39.3166,30.9317 C39.3166,30.2787 39.8466,29.7487 40.4996,29.7487 C41.1536,29.7487 41.6836,30.2787 41.6836,30.9317" id="Fill-38" fill="#FEFEFE" sketch:type="MSShapeGroup" mask="url(#mask-5)"></path>
                    <path d="M9.499,50.75 C9.499,51.131 9.19,51.441 8.809,51.441 C8.428,51.441 8.118,51.131 8.118,50.75 C8.118,50.369 8.428,50.06 8.809,50.06 C9.19,50.06 9.499,50.369 9.499,50.75" id="Fill-39" fill="#FEFEFE" sketch:type="MSShapeGroup" mask="url(#mask-5)"></path>
                    <path d="M12.9395,54 C12.9395,54.381 12.6305,54.691 12.2485,54.691 C11.8675,54.691 11.5585,54.381 11.5585,54 C11.5585,53.619 11.8675,53.31 12.2485,53.31 C12.6305,53.31 12.9395,53.619 12.9395,54" id="Fill-40" fill="#FEFEFE" sketch:type="MSShapeGroup" mask="url(#mask-5)"></path>
                    <path d="M18.1895,49.25 C18.1895,49.631 17.8805,49.941 17.4985,49.941 C17.1175,49.941 16.8085,49.631 16.8085,49.25 C16.8085,48.869 17.1175,48.56 17.4985,48.56 C17.8805,48.56 18.1895,48.869 18.1895,49.25" id="Fill-41" fill="#FEFEFE" sketch:type="MSShapeGroup" mask="url(#mask-5)"></path>
                    <path d="M20.4395,38.25 C20.4395,38.631 20.1305,38.94 19.7485,38.94 C19.3675,38.94 19.0585,38.631 19.0585,38.25 C19.0585,37.869 19.3675,37.56 19.7485,37.56 C20.1305,37.56 20.4395,37.869 20.4395,38.25" id="Fill-42" fill="#FEFEFE" sketch:type="MSShapeGroup" mask="url(#mask-5)"></path>
                    <path d="M15.4395,29.25 C15.4395,29.631 15.1305,29.94 14.7485,29.94 C14.3675,29.94 14.0585,29.631 14.0585,29.25 C14.0585,28.869 14.3675,28.56 14.7485,28.56 C15.1305,28.56 15.4395,28.869 15.4395,29.25" id="Fill-43" fill="#FEFEFE" sketch:type="MSShapeGroup" mask="url(#mask-5)"></path>
                    <path d="M31.9395,24.25 C31.9395,24.631 31.6305,24.94 31.2485,24.94 C30.8675,24.94 30.5585,24.631 30.5585,24.25 C30.5585,23.869 30.8675,23.56 31.2485,23.56 C31.6305,23.56 31.9395,23.869 31.9395,24.25" id="Fill-44" fill="#FEFEFE" sketch:type="MSShapeGroup" mask="url(#mask-5)"></path>
                    <path d="M31.1895,11 C31.1895,11.381 30.8805,11.69 30.4985,11.69 C30.1175,11.69 29.8085,11.381 29.8085,11 C29.8085,10.619 30.1175,10.31 30.4985,10.31 C30.8805,10.31 31.1895,10.619 31.1895,11" id="Fill-45" fill="#FEFEFE" sketch:type="MSShapeGroup" mask="url(#mask-5)"></path>
                    <path d="M54.1895,27 C54.1895,27.381 53.8805,27.69 53.4995,27.69 C53.1175,27.69 52.8085,27.381 52.8085,27 C52.8085,26.619 53.1175,26.31 53.4995,26.31 C53.8805,26.31 54.1895,26.619 54.1895,27" id="Fill-46" fill="#FEFEFE" sketch:type="MSShapeGroup" mask="url(#mask-5)"></path>
                    <path d="M61.9395,32.5 C61.9395,32.881 61.6305,33.19 61.2485,33.19 C60.8675,33.19 60.5585,32.881 60.5585,32.5 C60.5585,32.119 60.8675,31.81 61.2485,31.81 C61.6305,31.81 61.9395,32.119 61.9395,32.5" id="Fill-47" fill="#FEFEFE" sketch:type="MSShapeGroup" mask="url(#mask-5)"></path>
                    <path d="M64.1895,48 C64.1895,48.381 63.8805,48.69 63.4985,48.69 C63.1175,48.69 62.8085,48.381 62.8085,48 C62.8085,47.619 63.1175,47.31 63.4985,47.31 C63.8805,47.31 64.1895,47.619 64.1895,48" id="Fill-48" fill="#FEFEFE" sketch:type="MSShapeGroup" mask="url(#mask-5)"></path>
                    <path d="M65.6895,57.75 C65.6895,58.131 65.3805,58.441 64.9995,58.441 C64.6175,58.441 64.3085,58.131 64.3085,57.75 C64.3085,57.369 64.6175,57.06 64.9995,57.06 C65.3805,57.06 65.6895,57.369 65.6895,57.75" id="Fill-49" fill="#FEFEFE" sketch:type="MSShapeGroup" mask="url(#mask-5)"></path>
                    <path d="M63.1621,66.5577 C63.2691,66.9237 63.0581,67.3067 62.6911,67.4127 C62.3251,67.5197 61.9421,67.3087 61.8361,66.9427 C61.7291,66.5767 61.9391,66.1937 62.3071,66.0867 C62.6731,65.9807 63.0561,66.1917 63.1621,66.5577" id="Fill-50" fill="#FEFEFE" sketch:type="MSShapeGroup" mask="url(#mask-5)"></path>
                    <path d="M54.3848,72.1153 C54.4908,72.4813 54.2808,72.8643 53.9138,72.9703 C53.5478,73.0773 53.1648,72.8663 53.0588,72.5003 C52.9518,72.1343 53.1618,71.7513 53.5298,71.6443 C53.8958,71.5383 54.2788,71.7493 54.3848,72.1153" id="Fill-51" fill="#FEFEFE" sketch:type="MSShapeGroup" mask="url(#mask-5)"></path>
                    <path d="M48.3848,62.8653 C48.4908,63.2313 48.2808,63.6143 47.9138,63.7203 C47.5478,63.8273 47.1648,63.6163 47.0588,63.2503 C46.9518,62.8843 47.1618,62.5013 47.5298,62.3943 C47.8958,62.2883 48.2788,62.4993 48.3848,62.8653" id="Fill-52" fill="#FEFEFE" sketch:type="MSShapeGroup" mask="url(#mask-5)"></path>
                    <path d="M35.1348,66.3653 C35.2408,66.7313 35.0308,67.1143 34.6638,67.2203 C34.2978,67.3273 33.9148,67.1163 33.8088,66.7503 C33.7018,66.3843 33.9118,66.0013 34.2798,65.8943 C34.6458,65.7883 35.0288,65.9993 35.1348,66.3653" id="Fill-53" fill="#FEFEFE" sketch:type="MSShapeGroup" mask="url(#mask-5)"></path>
                    <path d="M35.1348,73.8653 C35.2408,74.2313 35.0308,74.6143 34.6638,74.7203 C34.2978,74.8273 33.9148,74.6163 33.8088,74.2503 C33.7018,73.8843 33.9118,73.5013 34.2798,73.3943 C34.6458,73.2883 35.0288,73.4993 35.1348,73.8653" id="Fill-54" fill="#FEFEFE" sketch:type="MSShapeGroup" mask="url(#mask-5)"></path>
                    <path d="M27.3848,71.8653 C27.4908,72.2313 27.2808,72.6143 26.9138,72.7203 C26.5478,72.8273 26.1648,72.6163 26.0588,72.2503 C25.9518,71.8843 26.1618,71.5013 26.5298,71.3943 C26.8958,71.2883 27.2788,71.4993 27.3848,71.8653" id="Fill-55" fill="#FEFEFE" sketch:type="MSShapeGroup" mask="url(#mask-5)"></path>
                    <path d="M27.6348,60.8653 C27.7408,61.2313 27.5308,61.6143 27.1638,61.7203 C26.7978,61.8273 26.4148,61.6163 26.3088,61.2503 C26.2018,60.8843 26.4118,60.5013 26.7798,60.3943 C27.1458,60.2883 27.5288,60.4993 27.6348,60.8653" id="Fill-56" fill="#FEFEFE" sketch:type="MSShapeGroup" mask="url(#mask-5)"></path>
                    <path d="M41.3848,60.6153 C41.4908,60.9813 41.2808,61.3643 40.9138,61.4703 C40.5478,61.5773 40.1648,61.3663 40.0588,61.0003 C39.9518,60.6343 40.1618,60.2513 40.5298,60.1443 C40.8958,60.0383 41.2788,60.2493 41.3848,60.6153" id="Fill-57" fill="#FEFEFE" sketch:type="MSShapeGroup" mask="url(#mask-5)"></path>
                    <path d="M55.0293,59.3946 C55.1363,59.7606 54.9253,60.1436 54.5583,60.2496 C54.1923,60.3566 53.8093,60.1456 53.7033,59.7796 C53.5963,59.4136 53.8063,59.0306 54.1743,58.9236 C54.5403,58.8176 54.9233,59.0286 55.0293,59.3946" id="Fill-58" fill="#FEFEFE" sketch:type="MSShapeGroup" mask="url(#mask-5)"></path>
                    <path d="M58.7793,52.3946 C58.8863,52.7606 58.6753,53.1436 58.3083,53.2496 C57.9423,53.3566 57.5593,53.1456 57.4533,52.7796 C57.3463,52.4136 57.5563,52.0306 57.9243,51.9236 C58.2903,51.8176 58.6733,52.0286 58.7793,52.3946" id="Fill-59" fill="#FEFEFE" sketch:type="MSShapeGroup" mask="url(#mask-5)"></path>
                    <path d="M68.5293,51.6446 C68.6363,52.0106 68.4253,52.3936 68.0583,52.4996 C67.6923,52.6066 67.3093,52.3956 67.2033,52.0296 C67.0963,51.6636 67.3063,51.2806 67.6743,51.1736 C68.0403,51.0676 68.4233,51.2786 68.5293,51.6446" id="Fill-60" fill="#FEFEFE" sketch:type="MSShapeGroup" mask="url(#mask-5)"></path>
                    <path d="M74.7793,51.3946 C74.8863,51.7606 74.6753,52.1436 74.3083,52.2496 C73.9423,52.3566 73.5593,52.1456 73.4533,51.7796 C73.3463,51.4136 73.5563,51.0306 73.9243,50.9236 C74.2903,50.8176 74.6733,51.0286 74.7793,51.3946" id="Fill-61" fill="#FEFEFE" sketch:type="MSShapeGroup" mask="url(#mask-5)"></path>
                    <path d="M77.5293,40.1446 C77.6363,40.5106 77.4253,40.8936 77.0583,40.9996 C76.6923,41.1066 76.3093,40.8956 76.2033,40.5296 C76.0963,40.1636 76.3063,39.7806 76.6743,39.6736 C77.0403,39.5676 77.4233,39.7786 77.5293,40.1446" id="Fill-62" fill="#FEFEFE" sketch:type="MSShapeGroup" mask="url(#mask-5)"></path>
                    <path d="M74.7793,27.3946 C74.8863,27.7606 74.6753,28.1436 74.3083,28.2496 C73.9423,28.3566 73.5593,28.1456 73.4533,27.7796 C73.3463,27.4136 73.5563,27.0306 73.9243,26.9236 C74.2903,26.8176 74.6733,27.0286 74.7793,27.3946" id="Fill-63" fill="#FEFEFE" sketch:type="MSShapeGroup" mask="url(#mask-5)"></path>
                    <path d="M69.7793,15.1446 C69.8863,15.5106 69.6753,15.8936 69.3083,15.9996 C68.9423,16.1066 68.5593,15.8956 68.4533,15.5296 C68.3463,15.1636 68.5563,14.7806 68.9243,14.6736 C69.2903,14.5676 69.6733,14.7786 69.7793,15.1446" id="Fill-64" fill="#FEFEFE" sketch:type="MSShapeGroup" mask="url(#mask-5)"></path>
                    <path d="M55.2793,8.3946 C55.3863,8.7606 55.1753,9.1436 54.8083,9.2496 C54.4423,9.3566 54.0593,9.1456 53.9533,8.7796 C53.8463,8.4136 54.0563,8.0306 54.4243,7.9236 C54.7903,7.8176 55.1733,8.0286 55.2793,8.3946" id="Fill-65" fill="#FEFEFE" sketch:type="MSShapeGroup" mask="url(#mask-5)"></path>
                    <path d="M51.5293,12.3946 C51.6363,12.7606 51.4253,13.1436 51.0583,13.2496 C50.6923,13.3566 50.3093,13.1456 50.2033,12.7796 C50.0963,12.4136 50.3063,12.0306 50.6743,11.9236 C51.0403,11.8176 51.4233,12.0286 51.5293,12.3946" id="Fill-66" fill="#FEFEFE" sketch:type="MSShapeGroup" mask="url(#mask-5)"></path>
                    <path d="M46.1641,18.2207 C46.2701,18.5867 46.0601,18.9697 45.6931,19.0757 C45.3271,19.1827 44.9441,18.9717 44.8381,18.6057 C44.7311,18.2397 44.9411,17.8567 45.3081,17.7497 C45.6751,17.6437 46.0571,17.8547 46.1641,18.2207" id="Fill-67" fill="#FEFEFE" sketch:type="MSShapeGroup" mask="url(#mask-5)"></path>
                    <path d="M14.6641,14.2207 C14.7701,14.5867 14.5601,14.9697 14.1931,15.0757 C13.8271,15.1827 13.4441,14.9717 13.3381,14.6057 C13.2311,14.2397 13.4411,13.8567 13.8091,13.7497 C14.1751,13.6437 14.5581,13.8547 14.6641,14.2207" id="Fill-68" fill="#FEFEFE" sketch:type="MSShapeGroup" mask="url(#mask-5)"></path>
                </g>
            </g>
        </g>
    </g>
</svg>